<?xml version="1.0" encoding="UTF-8"?>
<svg width="101px" height="19px" viewBox="0 0 101 19" version="1.1" xmlns="http://www.w3.org/2000/svg" xmlns:xlink="http://www.w3.org/1999/xlink">
    <title>中央公論新社</title>
    <g stroke="none" stroke-width="1" fill="none" fill-rule="evenodd">
        <g transform="translate(0.000000, 0.205000)" fill="#1A1311" fill-rule="nonzero">
            <path d="M62.079396,7.531457 L62.116,7.487 C62.24025,7.337375 62.2864063,7.34240625 62.4480762,7.43979102 L63.888,8.348 C64.119,8.495 64.172,8.668 63.95,8.836 C63.8376377,8.91808956 63.7214651,8.9947632 63.6018822,9.06577038 L63.42,9.168 L63.42,16.01 C63.4568914,16.4614242 63.1959763,16.8843984 62.776,17.054 C62.3417339,17.227706 61.8827334,17.3316561 61.416,17.362 C61.232,17.3684 61.18944,17.3396 61.1424,17.136336 L61.104,16.949 L61.104,16.949 C61.0375526,16.6477052 60.9223312,16.3598419 60.7633564,16.0966205 L60.636,15.904 L60.636,16.279 C60.636,16.525 60.611,16.61 60.417,16.688 C60.1151755,16.767477 59.8050371,16.8111111 59.493,16.818 C59.349,16.8082222 59.3045556,16.7589383 59.3217407,16.5043978 L59.3463442,16.1837576 L59.3463442,16.1837576 L59.35,15.968 L59.35,12.403 L58.338,12.403 L58.338,16.278 C58.338,16.524 58.313,16.609 58.119,16.687 C57.8171829,16.7665135 57.5070401,16.8101483 57.195,16.817 C57.033,16.806 56.997,16.745 57.033,16.398 L57.04844,16.182769 L57.04844,16.182769 L57.051,15.967 L57.051,12.402 L56.136,12.402 L56.136,16.402 L56.148512,16.61848 C56.16208,16.87608 56.148,17.0172 55.924,17.134 C55.5359988,17.2658073 55.1276185,17.3274369 54.718,17.316 L54.6289602,17.3035171 C54.5373457,17.2840247 54.4895556,17.232 54.495,16.987 L54.5049534,16.7902653 L54.5049534,16.7902653 L54.543,16.187 L54.556,7.42 C55.1170455,7.62420869 55.6493968,7.89874105 56.1404353,8.23668184 L56.43,8.447 L61.368,8.447 L61.711936,7.997912 L61.711936,7.997912 L62.079396,7.531457 L62.079396,7.531457 Z M80.177,0.435 C80.7148736,0.87784598 81.2085189,1.37182614 81.651,1.91 C81.844,2.166 81.825,2.327 81.476,2.356 C81.1384695,2.3790842 80.7998527,2.38175573 80.462,2.364 C79.4566336,2.6609468 78.4287696,2.87436025 77.3888916,3.00221304 L76.868,3.059 L76.868,7.094 L80.11,7.094 L80.2163045,6.95096433 L80.2163045,6.95096433 L80.4448889,6.65537037 L80.4448889,6.65537037 L80.6728807,6.37083813 L80.6728807,6.37083813 L81.022,5.949 L81.022,5.949 C81.117,5.835 81.181,5.834 81.291,5.943 L81.497085,6.15643484 L81.497085,6.15643484 L81.7743471,6.45536763 L81.7743471,6.45536763 L82.0712963,6.78574074 C82.1678395,6.89509877 82.2590823,7.00068724 82.3364431,7.09349657 L82.441,7.222 C82.5858889,7.41222222 82.5648519,7.53607407 82.3771866,7.56897394 L82.299,7.577 L80.312,7.577 L80.312,12.392 L80.3169555,12.9227305 L80.3169555,12.9227305 L80.3327417,13.8183183 L80.3327417,13.8183183 L80.3739804,15.4065306 L80.3739804,15.4065306 L80.405923,16.3042598 L80.405923,16.3042598 L80.412,16.417 L80.412,16.417 C80.433,16.718 80.233,16.892 79.833,17.011 C79.4387079,17.1420064 79.0273257,17.2144447 78.612,17.226 C78.3711111,17.2028889 78.2519012,17.0778519 78.2283841,16.8263073 L78.224,16.726 L78.255332,13.6174645 L78.255332,13.6174645 L78.26,12.478 L78.26,7.578 L76.86,7.578 C76.8782418,9.35516639 76.6504134,11.1263053 76.183,12.841 C75.537396,14.742024 74.2006156,16.3308116 72.438,17.292 C72.1712308,17.4526154 71.9794438,17.3064852 72.1363505,17.0942868 L72.183,17.04 C73.3440295,15.751947 74.1307346,14.170929 74.458,12.468 C74.6813657,11.4102721 74.79331,10.3320545 74.792,9.251 L74.8132344,3.57776562 L74.8132344,3.57776562 L74.805,2.134 L74.742,1.515 C75.4092563,1.73982952 76.0521682,2.03130082 76.661,2.385 C77.7428878,1.92822288 78.7885562,1.39001123 79.789,0.775 C79.9345724,0.681659665 80.0653544,0.567056815 80.177,0.435 Z M21.357,0.632 C22.1234938,0.672540105 22.8868652,0.759028808 23.643,0.891 C24.262,1.014 24.41,1.244 24.178,1.514 C24.0930975,1.59876984 24.003871,1.67903621 23.9106904,1.7544833 L23.768,1.864 L23.768,4.605 L25.689,4.605 L26.0391719,4.30289063 L26.0391719,4.30289063 L26.8163691,3.61303711 C26.8579219,3.57665625 26.896625,3.543125 26.932,3.513 C27.0258671,3.42190402 27.1638643,3.40048494 27.2785358,3.45218102 L28.3051443,4.05762995 L28.3051443,4.05762995 L28.7638043,4.33585981 L28.7638043,4.33585981 L28.9843842,4.47555212 C29.0126686,4.49417751 29.0361538,4.51015385 29.054,4.523 C29.312,4.709 29.291,4.822 29.085,4.997 C28.9604509,5.09993364 28.8314874,5.19734343 28.6984852,5.28895815 L28.496,5.422 L28.496,9.877 L28.696,9.877 L29.127989,9.1661358 L29.127989,9.1661358 L29.2658134,8.95023457 C29.3058765,8.88939506 29.3393333,8.841 29.364,8.809 C29.5,8.634 29.6,8.651 29.751,8.77 C30.0608081,9.04923492 30.3555497,9.34460374 30.6340108,9.65484626 L30.907,9.97 C31.0287778,10.138 31.0217654,10.3091605 30.8375021,10.3535501 L30.76,10.364 L23.948,10.364 C24.6257418,11.4918254 25.5074121,12.4837045 26.548,13.289 C27.7629764,14.1941393 29.1468197,14.8469597 30.618,15.209 C30.8724545,15.2589091 30.9066694,15.297438 30.7677476,15.388121 L30.65,15.457 L30.65,15.457 C30.2889057,15.6897711 29.9459281,15.9495114 29.624,16.234 C29.4135243,16.4292498 29.2203052,16.6420643 29.0463962,16.8700483 L28.879,17.103 C28.772,17.263 28.722,17.254 28.506,17.154 C27.1675937,16.5177998 25.9817546,15.601051 25.029,14.466 C24.2886821,13.4913818 23.7198728,12.397726 23.347,11.232 C22.7566001,13.0891562 21.5164494,14.6712094 19.854,15.688 C18.3883358,16.5671862 16.7569618,17.1343541 15.062,17.354 C14.787,17.386 14.712,17.163 14.962,17.054 C16.4258484,16.4460037 17.7778014,15.5976532 18.962,14.544 C20.0210399,13.4700895 20.7897526,12.1470535 21.1989766,10.6992634 L21.287,10.363 L15.402784,10.363144 C15.353176,10.361296 15.324664,10.352464 15.301696,10.327576 L15.28,10.297 L15.02,9.849 L15.2226083,9.86838982 L15.2226083,9.86838982 L15.426,9.876 L16.926,9.876 L16.926,6.409 C16.9329141,5.44351274 16.8911945,4.47828996 16.801,3.517 C17.5134523,3.75107968 18.2105585,4.0289855 18.8883448,4.34906174 L19.408,4.605 L21.498,4.605 L21.498,2.414 C21.4888568,1.81761002 21.4417616,1.22240671 21.357,0.632 Z M86.034,0.056 C86.8666068,0.15160624 87.6925129,0.298552729 88.507,0.496 C89.004,0.619 89.038,0.934 88.738,1.125 C88.6121046,1.2030027 88.4824953,1.27475685 88.3496456,1.34001521 L88.148,1.433 L88.148,3.913 L88.541,3.913 L88.851,3.37275 L88.851,3.37275 L89.092,2.969 L89.092,2.969 L89.156838,2.87218981 C89.2484838,2.75154398 89.3278484,2.7461169 89.5700098,2.91876794 L89.657,2.983 C90.180461,3.36924946 90.681287,3.78526895 91.157,4.229 L91.247648,4.329766 C91.48856,4.6225 91.4288,4.8331 90.491,5.068 C89.9255736,6.2464033 89.2385063,7.36246874 88.441,8.398 C89.0899095,8.68707017 89.7201358,9.01637758 90.328,9.384 C90.7205563,9.61719319 91.050667,9.94215659 91.29,10.331 C91.5562549,10.8073404 91.5068026,11.3976028 91.165,11.823 C90.9762094,12.0670316 90.6737359,12.1948244 90.3671643,12.1600797 C90.0989142,12.129678 89.8615714,11.9786919 89.719746,11.7537806 L89.665,11.653 C89.4115223,10.6202622 88.8658224,9.68636255 88.096,8.957 L88.184,10.65 L88.184,10.65 L88.184,14.25 L88.206,15.118128 L88.206,15.118128 L88.251,16.344 C88.263,16.651 88.229,16.821 88.006,16.951 C87.5248929,17.1711395 87.0010444,17.2821244 86.472,17.276 C86.136,17.276 85.986,17.162 85.999,16.819 L86.05175,15.545625 L86.05175,15.545625 L86.0712812,14.8712031 C86.0737031,14.7529141 86.0756328,14.6310508 86.076957,14.504666 L86.079,14.111 L86.079,10.571 C85.071283,11.3226056 83.9812624,11.9570252 82.83,12.462 C82.5087692,12.5976923 82.362213,12.425787 82.5208949,12.2711197 L82.567,12.233 C84.0363472,11.0839799 85.3361668,9.73332555 86.428,8.221 C87.18861,7.18505365 87.8076323,6.05312765 88.2692869,4.85524084 L88.435,4.403 L83.730192,4.403144 C83.680008,4.401296 83.650992,4.392464 83.627808,4.367576 L83.606,4.337 L83.343,3.885 L83.5476344,3.90376508 L83.5476344,3.90376508 L83.753,3.911 L86.094,3.911 L86.094,1.045 C86.1016386,0.714236523 86.0815685,0.383414211 86.034,0.056 Z M69.044,2.13162821e-14 C69.8268577,0.0714508527 70.6044107,0.192359015 71.372,0.362 C71.811,0.497 71.856,0.699 71.551,0.937 C71.4614666,1.00692703 71.3671049,1.07031715 71.2686531,1.12671185 L71.118,1.206 L71.118,2.872 L71.818,2.872 L71.9387266,2.71562305 L71.9387266,2.71562305 L72.1914297,2.40310352 L72.1914297,2.40310352 L72.4394453,2.11144336 L72.4394453,2.11144336 L72.6591484,1.86529883 L72.6591484,1.86529883 L72.751,1.767 C72.7731696,1.73827815 72.8068891,1.72080965 72.843139,1.7192671 C72.8673056,1.71823873 72.890953,1.72435852 72.9113007,1.73647402 L73.0107693,1.82478437 L73.0107693,1.82478437 L73.4843832,2.281716 L73.4843832,2.281716 L73.9900932,2.7866837 L73.9900932,2.7866837 L74.144,2.948 L74.144,2.948 C74.3303636,3.14890909 74.3274711,3.32502479 74.0842329,3.35538542 L74.004,3.36 L71.473,3.36 C72.1602812,3.50310272 72.8330707,3.70862148 73.483,3.974 C73.821,4.154 73.767,4.317 73.436,4.474 C73.2263417,4.55289271 73.0123221,4.6196695 72.795,4.674 C72.3707544,5.34627399 71.9090812,5.99399662 71.4122142,6.61412509 L71.033,7.074 L72.061,7.074 L72.2428467,6.80498873 L72.2428467,6.80498873 L72.5187498,6.41798197 L72.5187498,6.41798197 L72.906,5.902 L72.906,5.902 C72.953,5.841 72.985,5.845 73.046,5.902 L73.1342487,5.98688279 L73.1342487,5.98688279 L73.6331187,6.4963163 L73.6331187,6.4963163 L74.1323494,7.02486326 L74.1323494,7.02486326 L74.285,7.191 L74.285,7.191 C74.4494444,7.37411111 74.4400617,7.52324691 74.2758148,7.55412757 L74.207,7.56 L71.019,7.56 L71.019,9.908 L71.609,9.908 L72.454,8.743 L72.454,8.743 C72.568,8.599 72.6,8.597 72.74,8.728 L72.8111563,8.79810368 L72.8111563,8.79810368 L73.0157814,9.01359279 L73.0157814,9.01359279 L73.3981022,9.43469271 L73.3981022,9.43469271 L73.7422457,9.82869121 C73.8037603,9.90119008 73.8517273,9.95963636 73.879,9.996 C74.0284,10.1967 73.98502,10.35123 73.786768,10.388148 L73.715,10.396 L71.015,10.396 L71.015,11.027 C71.6286512,11.2161498 72.2074193,11.5020534 72.7296792,11.8733111 L72.986,12.066 C73.3340291,12.3051175 73.573424,12.6721177 73.652,13.087 C73.6869472,13.5632314 73.3911381,13.9953097 72.9470151,14.141538 L72.833,14.172 C72.4795968,14.2218286 72.1417013,14.0112813 72.018365,13.6791486 L71.988,13.576 C71.8327528,12.9925685 71.580956,12.4400007 71.2436989,11.9409567 L71.068,11.696 L71.0689453,14.5653418 L71.09,16.203 L71.09,16.203 C71.09,16.544 71.06,16.741 70.76,16.919 C70.3422007,17.1086914 69.88667,17.2006867 69.428,17.188 C69.2164444,17.1577778 69.1289383,17.1022716 69.1212346,16.8620521 L69.148,15.035 L69.148,13.302 L69.185,12.385 C68.8780842,12.9825483 68.4941453,13.537276 68.043,14.035 C67.3739326,14.7435332 66.5778152,15.320184 65.696,15.735 C65.528,15.805 65.418,15.698 65.564,15.554 C66.2730794,14.8159631 66.8737441,13.9809584 67.348,13.074 C67.7104993,12.3597736 68.0139744,11.6173896 68.2555243,10.8542877 L68.393,10.394 L66.722688,10.394728 C66.672912,10.393432 66.644088,10.385008 66.621312,10.359952 L66.6,10.329 L66.34,9.881 L66.5426139,9.90030531 L66.5426139,9.90030531 L66.746,9.908 L69.1,9.908 L69.1,7.559 L66.449688,7.559144 C66.399912,7.557296 66.371088,7.548464 66.348312,7.523576 L66.327,7.493 L66.067,7.045 L66.2696084,7.06438814 L66.2696084,7.06438814 L66.473,7.072 L68.425,7.072 C68.297748,7.01803824 68.1877513,6.93017918 68.107,6.818 C67.9903328,6.51747105 67.9558164,6.19129094 68.007,5.873 C68.0146853,5.44445605 67.9604593,5.01704728 67.846,4.604 C67.7492283,4.2828133 67.6295362,3.96913714 67.4879062,3.66537223 L67.339,3.365 L66.510296,3.365248 C66.460304,3.363592 66.431696,3.355168 66.408704,3.330472 L66.387,3.3 L66.127,2.852 L66.3296082,2.87139151 L66.3296082,2.87139151 L66.533,2.879 L69.062,2.879 L69.062,0.622 C69.064,0.443 69.057,0.213 69.044,2.13162821e-14 Z M48.98,10.384 C49.4999255,10.5818882 49.9946902,10.8394939 50.4544347,11.1513905 L50.726,11.345 L51.916,11.345 L52.136824,11.006249 L52.136824,11.006249 L52.347712,10.696712 L52.347712,10.696712 L52.492288,10.493663 L52.492288,10.493663 L52.516,10.463 C52.5362484,10.4323331 52.5696283,10.4128504 52.6062884,10.4103018 C52.6307284,10.4086028 52.654766,10.4145593 52.6752747,10.4268881 L52.703,10.45 L52.9530878,10.6391468 L52.9530878,10.6391468 L53.2878505,10.8988779 L53.2878505,10.8988779 L53.642037,11.1836296 C53.8131111,11.3246667 53.967,11.458 54.067,11.558 C54.212,11.703 54.237,11.766 54.027,11.916 C53.9898,11.9448 53.9414,11.97808 53.88564,12.014048 L53.70012,12.128224 L53.70012,12.128224 L53.598,12.188 L53.598,16.108 L53.625128,16.318472 C53.6442,16.55252 53.593,16.6162 53.449,16.701 C53.1983253,16.7980067 52.9355539,16.8602509 52.668,16.886 C52.2096667,16.9281667 52.0899653,16.8686597 52.0832112,16.7174925 L52.1,16.3920741 L52.1,16.3920741 L52.102,16.084 L50.567,16.084 L50.567,16.684 C50.564,16.83 50.535,16.915 50.448,16.965 C50.0555409,17.1144465 49.6378443,17.1864397 49.218,17.177 C49.05,17.157 48.941,17.09 48.95,16.89 L48.98,16.069 L48.98,10.384 Z M38.081,6.479 C39.1070001,6.75100104 40.110078,7.10308138 41.081,7.532 C41.341,7.67 41.431,7.877 41.181,8.077 C40.9410235,8.23668604 40.6849552,8.37075326 40.417,8.477 C39.356133,10.4784937 38.1694187,12.4107038 36.864,14.262 L37.8588876,14.2402949 L37.8588876,14.2402949 L38.8409941,14.2064424 C39.0028876,14.1998548 39.1637041,14.1928111 39.3231716,14.1853364 L40.2616095,14.1355157 C40.4145917,14.1264169 40.5656805,14.1169372 40.7146036,14.1071015 L41.5799763,14.0440164 L41.5799763,14.0440164 L42.3803077,13.9735904 C42.5075503,13.9613077 42.6315385,13.9487692 42.752,13.936 C42.3346882,13.0140355 41.8035553,12.147963 41.171,11.358 C40.9791818,11.1498182 41.0245537,11.0672562 41.2485131,11.1290969 L41.321,11.152 C42.8444085,11.6992622 44.1637196,12.7016304 45.0999209,14.0201268 L45.282,14.288 C45.7010964,14.8377822 45.7869775,15.572372 45.506,16.204 C45.2996402,16.6689403 44.844484,16.9739339 44.336,16.988 C43.8276167,17.0374134 43.3692475,16.680904 43.292,16.176 C43.2197128,15.6449074 43.1141721,15.1188738 42.976,14.601 C40.4063332,15.3927935 37.7946374,16.041127 35.153,16.543 C35.0123266,16.7273774 34.8557244,16.8990375 34.685,17.056 C34.6390056,17.1079739 34.571012,17.1349417 34.5018974,17.1286226 C34.4327827,17.1223036 34.3708068,17.0834529 34.335,17.024 C33.8301523,16.1510563 33.3841601,15.2453749 33,14.313 C32.9685714,14.2222857 32.9820408,14.2009592 33.0396793,14.1987289 L33.13,14.202 C33.975,14.247 34.893,14.267 35.83,14.267 L36.1832927,13.3519785 L36.1832927,13.3519785 L36.5672963,12.3130055 L36.5672963,12.3130055 L36.7764181,11.7239501 L36.7764181,11.7239501 L36.9888709,11.1043941 L36.9888709,11.1043941 L37.198593,10.4662464 L37.198593,10.4662464 L37.3995226,9.82141601 C37.7885482,8.53301189 38.0884483,7.27596552 38.081,6.479 Z M5.553,0.534 C6.48254477,0.538256019 7.40891311,0.642862216 8.316,0.846 C8.74,0.959 8.692,1.296 8.473,1.473 C8.37373847,1.55597733 8.27037556,1.63385462 8.16331459,1.70634365 L8,1.811 L8,4.743 L10.62,4.743 L10.839984,4.503568 L10.839984,4.503568 L11.343888,3.973536 L11.343888,3.973536 L11.838,3.47 L11.838,3.47 C11.926,3.383 11.958,3.374 12.091,3.437 C12.5840053,3.68508904 13.0658068,3.95465346 13.535026,4.24489527 L14,4.542 C14.297,4.75 14.27,4.908 14.097,5.059 C13.9176487,5.21340743 13.728231,5.35572121 13.53,5.485 L13.5468132,7.47296484 L13.5468132,7.47296484 L13.5828878,9.85278864 L13.5828878,9.85278864 L13.591,10.101 L13.591,10.101 L13.6011611,10.2528284 L13.6011611,10.2528284 L13.6124984,10.5192071 C13.619071,10.9235266 13.5562308,11.1355385 13.307,11.244 C12.7448024,11.4215012 12.1595135,11.5151744 11.57,11.522 C11.291,11.481 11.215,11.388 11.226,11.196 L11.2372963,10.9537037 L11.2372963,10.9537037 L11.2437037,10.6776296 C11.2439074,10.6343704 11.2435648,10.5938796 11.2425046,10.5582454 L11.237,10.468 L11.237,10.286 L7.996,10.286 L8.004,13.1 L8.004,13.1 L8.02988985,14.4807565 L8.02988985,14.4807565 L8.05127765,15.2387883 C8.05417569,15.3178635 8.05727082,15.394371 8.06058625,15.4674602 L8.08330815,15.8581702 L8.08330815,15.8581702 L8.097,16.01 C8.14,16.398 8.063,16.531 7.863,16.659 C7.26099419,16.8941034 6.62125532,17.0177817 5.975,17.024 C5.86046025,17.0344577 5.74716432,16.9936917 5.6655467,16.912653 C5.58392909,16.8316142 5.54235777,16.7186113 5.552,16.604 L5.56433511,16.4679025 L5.56433511,16.4679025 L5.585288,16.094248 L5.585288,16.094248 L5.608784,15.363744 L5.608784,15.363744 L5.62911111,14.3065185 L5.62911111,14.3065185 L5.645,13.353 L5.645,10.286 L2.437,10.286 L2.454,10.818 C2.465,11.044 2.422,11.144 2.271,11.206 C1.72855961,11.3867985 1.1633209,11.4901506 0.592,11.513 C0.134,11.521 0.006,11.39 0.025,11.105 L0.0327755102,10.9753207 L0.0327755102,10.9753207 L0.0420816327,10.6496997 L0.0420816327,10.6496997 L0.0455102041,10.308965 L0.0455102041,10.308965 L0.044537037,4.49282407 L0.044537037,4.49282407 L0.0365,4.14875 C0.03,3.96325 0.019,3.76 -4.08562073e-14,3.55 C0.842743571,3.81159291 1.6657383,4.1323419 2.462872,4.50976506 L2.938,4.743 L5.638,4.743 L5.638,1.288 C5.62829276,1.03491493 5.59988194,0.782894285 5.553,0.534 Z M93.356,0.353 C94.2171492,0.443191614 95.0718166,0.587139113 95.915,0.784 C96.42,0.918 96.435,1.18 96.199,1.404 C96.080191,1.5034565 95.9546347,1.59440744 95.8232747,1.67621823 L95.622,1.792 L95.622,6.564 L97.132,6.564 L97.517856,5.991504 L97.517856,5.991504 L97.828448,5.550912 L97.828448,5.550912 L97.923,5.424 L97.923,5.424 C98.042875,5.27 98.1045625,5.25610938 98.2206094,5.33476367 L98.274,5.374 C98.3251667,5.414 98.3919722,5.4705 98.4686481,5.53784259 L98.7225185,5.76674074 L98.7225185,5.76674074 L99.1386539,6.15781366 L99.1386539,6.15781366 L99.3891562,6.40084375 L99.3891562,6.40084375 L99.5777419,6.59012384 C99.6020903,6.61530556 99.6224167,6.63683333 99.638,6.654 C99.8063,6.8394 99.74861,7.00617 99.54512,7.045689 L99.472,7.054 L95.621,7.054 L95.621,15.954 L97.662,15.954 L98.048928,15.38136 L98.048928,15.38136 L98.359824,14.9412 L98.359824,14.9412 L98.454,14.814 L98.454,14.814 C98.573875,14.659125 98.6355625,14.645125 98.7516094,14.7244355 L98.805,14.764 C98.8561667,14.8038333 98.9231389,14.8603889 99.0000648,14.927912 L99.2548519,15.1576296 L99.2548519,15.1576296 L99.53425,15.418625 L99.53425,15.418625 L99.8031481,15.6763704 L99.8031481,15.6763704 L100.110002,15.9813652 L100.110002,15.9813652 L100.169,16.044 L100.154,16.048 C100.3214,16.2334 100.26443,16.40017 100.061093,16.439689 L99.988,16.448 L89.961808,16.44872 C89.911432,16.4474 89.882728,16.43888 89.859712,16.41344 L89.838,16.382 L89.575,15.93 L89.7796131,15.9493755 L89.7796131,15.9493755 L89.985,15.957 L93.398,15.957 L93.398,7.057 L91.097808,7.057144 C91.047432,7.055296 91.018728,7.046464 90.995712,7.021576 L90.974,6.991 L90.711,6.538 L90.915613,6.55737711 L90.915613,6.55737711 L91.121,6.565 L93.398,6.565 L93.398,1.097 C93.4113017,0.84821023 93.3972171,0.598712095 93.356,0.353 Z M61.701,12.403 L60.636,12.403 L60.636,15.61 C60.9204795,15.6749034 61.2112148,15.7084369 61.503,15.71 C61.6632857,15.7031429 61.6957347,15.6676327 61.7017347,15.561277 L61.703,15.502 L61.701,12.403 Z M52.056,11.828 L50.565,11.828 L50.565,15.588 L52.055,15.588 L52.056,11.828 Z M61.703,8.93 L60.638,8.93 L60.638,11.92 L61.703,11.92 L61.703,8.93 Z M59.351,8.93 L58.339,8.93 L58.339,11.92 L59.351,11.92 L59.351,8.93 Z M57.051,8.93 L56.159,8.93 L56.159,11.92 L57.051,11.92 L57.051,8.93 Z M35.531,2.639 C36.4365567,2.93003912 37.3264174,3.26782571 38.197,3.651 C38.713,3.887 38.643,4.156 38.313,4.287 L38.1521139,4.34621536 L38.1521139,4.34621536 L37.738,4.475 L37.738,4.475 C37.0793212,5.61097413 36.3491934,6.70372741 35.5521041,7.74669525 L35.148,8.264 C34.3151499,9.23898833 33.3763645,10.1207761 32.351,10.894 C32.0343846,11.1007692 31.8898876,10.977787 31.9890828,10.8003377 L32.019,10.755 C32.8229363,9.58797932 33.5392334,8.36295429 34.162,7.09 C34.8759234,5.69813693 35.3393243,4.1914915 35.531,2.639 Z M41.5471195,0.610099125 L41.632,0.516 C41.782,0.353 41.822,0.333 42.098,0.473 L42.2317723,0.544190672 L42.2317723,0.544190672 L42.5565185,0.729814815 C42.6146173,0.764012346 42.6739095,0.799325103 42.7332044,0.834980796 L43.0794815,1.04685185 L43.0794815,1.04685185 L43.3686722,1.2298834 C43.4089383,1.25592593 43.4444444,1.27922222 43.474,1.299 C43.758,1.489 43.748,1.686 43.417,1.868 C43.0330914,2.07960928 42.6315942,2.25760633 42.217,2.4 C42.4356959,3.63090594 42.9944228,4.77607093 43.83,5.706 C44.7389488,6.89723028 45.8807777,7.89105692 47.186,8.627 C47.4651667,8.76866667 47.4728056,8.81936111 47.3316019,8.89366667 L47.23,8.942 C46.8348443,9.11767678 46.4571668,9.33028781 46.102,9.577 C45.8172703,9.77076041 45.5750088,10.0205076 45.39,10.311 C45.2924,10.4782 45.24856,10.50844 45.112048,10.387384 L44.99,10.268 L44.99,10.268 C43.7979191,9.09819438 42.8293794,7.72061786 42.132,6.203 C41.6533423,4.98756825 41.3515077,3.71064931 41.2349906,2.41125163 L41.2,1.923 L36.283392,1.923632 C36.233568,1.922168 36.205272,1.913432 36.182088,1.888568 L36.16,1.858 L35.9,1.41 L36.1026311,1.42876062 L36.1026311,1.42876062 L36.306,1.436 L40.85,1.436 L41.2065889,1.00462974 L41.2065889,1.00462974 L41.5471195,0.610099125 L41.5471195,0.610099125 Z M26.133,5.092 L23.767,5.092 L23.7210933,9.75768734 L23.7210933,9.75768734 L23.719,9.876 L26.133,9.876 L26.133,5.092 Z M21.499,5.092 L19.141,5.092 L19.137,9.876 L21.437,9.876 C21.4473333,9.62966667 21.4559444,9.35280556 21.4631204,9.05906019 L21.4806296,8.14081481 L21.4806296,8.14081481 L21.49125,7.203125 L21.49125,7.203125 L21.4980313,5.93920313 L21.4980313,5.93920313 L21.499,5.092 Z M11.233,9.8 L11.233,5.234 L7.995,5.234 L7.995,9.8 L11.233,9.8 Z M2.432,5.231 L2.432,9.8 L5.644,9.8 L5.644,5.234 L2.432,5.231 Z M52.3919096,7.70832653 L52.472,7.613 C52.575,7.492 52.602,7.475 52.749,7.603 L52.9774966,7.80862963 L52.9774966,7.80862963 L53.5610741,8.36033333 L53.5610741,8.36033333 L53.7985583,8.59618519 C53.8302222,8.62867901 53.8571111,8.657 53.878,8.68 C54.0472,8.8663 53.99284,8.98942 53.788549,9.0202 L53.715,9.027 L49.258,9.027 C49.1684,9.0286 49.12744,9.02444 49.096208,8.99148 L49.074,8.961 L48.809,8.513 L49.0156107,8.53246885 L49.0156107,8.53246885 L49.223,8.54 L51.713,8.54 L52.3919096,7.70832653 L52.3919096,7.70832653 Z M71.127,3.371 L67.834,3.371 C68.6330361,3.85805158 69.2924157,4.54361339 69.748,5.361 C69.9630388,5.86173969 69.8544172,6.44276636 69.473,6.832 C69.4011366,6.91118976 69.3171956,6.97816712 69.2244961,7.03055851 L69.129,7.078 L70.341,7.078 C70.4921207,6.56842656 70.6237716,6.05334703 70.7356811,5.53388342 L70.8724023,4.85508203 L70.8724023,4.85508203 L71.016293,4.05137891 L71.016293,4.05137891 L71.127,3.371 Z M57.862,0.162 C58.6365811,0.305416504 59.4024625,0.492379711 60.156,0.722 C60.805,0.952 60.711,1.228 59.979,1.552 C60.5317651,2.32902543 61.2279151,2.99326993 62.03,3.509 C62.7944325,4.02319933 63.605623,4.46354193 64.4525875,4.82428711 L64.879,4.998 C64.9782857,5.04585714 65.0035918,5.06157143 64.9691312,5.09361224 L64.9,5.143 C64.2986636,5.56005334 63.7599023,6.06076464 63.3,6.63 C63.225,6.73575 63.1921875,6.759375 63.1066406,6.71142188 L63,6.64 L63,6.64 C62.1602574,6.00863704 61.4097855,5.2665748 60.769,4.434 C60.2073163,3.72716583 59.7275857,2.95892591 59.339,2.144 C58.7226383,3.07697116 57.9852025,3.92403034 57.146,4.663 C56.2243059,5.41007256 55.1829737,5.99599098 54.066,6.396 C54.2037778,6.56311111 54.1487654,6.67728395 53.9585542,6.70761591 L53.881,6.715 L49.200312,6.715144 C49.149528,6.713296 49.120632,6.704464 49.097208,6.679576 L49.075,6.649 L48.81,6.201 L49.0166154,6.22039666 L49.0166154,6.22039666 L49.224,6.228 L51.755,6.228 L51.9676406,5.97867188 L51.9676406,5.97867188 L52.566,5.301 C52.6542857,5.19814286 52.7043673,5.18344898 52.7943324,5.25125073 L53.6642695,6.01276758 C53.7056563,6.04979688 53.7455,6.08575 53.783,6.12 C54.7002051,5.37801677 55.5176456,4.52057824 56.215,3.569 C56.9495051,2.53274344 57.5061335,1.38129671 57.862,0.162 Z M60.0485324,5.23777315 L60.153,5.135 C60.296,5 60.329,4.982 60.483,5.1 C60.8841693,5.40357628 61.2696656,5.72732642 61.638,6.07 C61.8081,6.2563 61.74735,6.36727 61.541772,6.39562 L61.468,6.402 L56.285,6.402 C56.1954,6.4044 56.15444,6.39976 56.123208,6.366576 L56.101,6.336 L55.836,5.888 L56.0426387,5.90675343 L56.0426387,5.90675343 L56.25,5.914 L59.413,5.914 L59.5245509,5.78664352 L59.5245509,5.78664352 L59.789375,5.502375 L59.789375,5.502375 L60.0485324,5.23777315 L60.0485324,5.23777315 Z M53.325,2.798 C53.387,2.728 53.444,2.702 53.551,2.788 L53.768616,2.97076 L53.768616,2.97076 L54.19275,3.341875 L54.19275,3.341875 L54.773,3.865 L54.773,3.865 C54.9575,4.0369 54.93383,4.19179 54.703448,4.221049 L54.619,4.226 L48.91,4.225 C48.8212,4.2282 48.77976,4.22372 48.748304,4.190568 L48.726,4.16 L48.461,3.712 L48.668115,3.73141701 L48.668115,3.73141701 L48.876,3.739 L52.545,3.739 L53.0309259,3.14571468 L53.0309259,3.14571468 L53.325,2.798 L53.325,2.798 Z M51.8793704,1.31233333 L52.439,0.735 C52.545,0.615 52.585,0.617 52.739,0.735 L52.8343576,0.810973704 L52.8343576,0.810973704 L53.0757055,1.01440571 L53.0757055,1.01440571 L53.4931067,1.38193163 L53.4931067,1.38193163 L53.9536506,1.80267092 C53.9800744,1.82755372 54.0024545,1.84890909 54.02,1.866 C54.1604444,2.00466667 54.1602469,2.13859259 53.9730535,2.17436763 L53.894,2.183 L49.403,2.183 C49.3118,2.1838 49.26988,2.17948 49.238328,2.146488 L49.216,2.116 L48.95,1.668 L49.1566222,1.68729316 L49.1566222,1.68729316 L49.364,1.695 L51.532,1.695 L51.6433347,1.56759259 L51.6433347,1.56759259 L51.8793704,1.31233333 L51.8793704,1.31233333 Z" id="Shape"></path>
        </g>
    </g>
</svg>