<?xml version="1.0" encoding="UTF-8"?>
<svg width="59px" height="21px" viewBox="0 0 59 21" version="1.1" xmlns="http://www.w3.org/2000/svg" xmlns:xlink="http://www.w3.org/1999/xlink">
    <title>読響</title>
    <g stroke="none" stroke-width="1" fill="none" fill-rule="evenodd">
        <g transform="translate(0.789000, 0.498000)" fill="#1A1311" fill-rule="nonzero">
            <path d="M0,4.573 C0.576442169,4.72491119 1.17238604,4.78962908 1.768,4.765 L5.388,4.765 C5.75659301,4.2857027 6.15505073,3.83013159 6.581,3.401 C7.12514252,3.87036384 7.64419435,4.36805277 8.136,4.892 C8.221,4.999 8.264,5.063 8.264,5.127 C8.264,5.21233333 8.17866667,5.255 8.008,5.255 L1.768,5.255 C1.22533008,5.24047613 0.682645688,5.28338138 0.149,5.383 L0,4.573 Z M0.66,1.633 C1.17116713,1.74042033 1.69273527,1.79039696 2.215,1.782 L5.133,1.782 C5.602,1.249 5.733,1.082 6.198,0.546 C6.837,1.121 7.029,1.313 7.647,1.93 C7.71175357,1.98221575 7.75076762,2.05987923 7.754,2.143 C7.754,2.207 7.69,2.271 7.584,2.271 L2.215,2.271 C1.74396023,2.25892188 1.27290454,2.29443532 0.809,2.377 L0.66,1.633 Z M2.194,19.313 C2.172,19.483 2.13,19.547 1.959,19.59 C1.6929883,19.6461697 1.42187708,19.6746548 1.15,19.675 C0.916,19.675 0.83,19.611 0.809,19.419 C0.852,18.503 0.852,18.077 0.852,16.884 C0.852,14.008 0.852,13.348 0.788,12.24 C1.488,12.709 1.704,12.858 2.343,13.305 L5.133,13.305 C5.516,12.837 5.623,12.688 6.028,12.24 C6.603,12.709 6.774,12.858 7.285,13.305 C7.413,13.433 7.455,13.497 7.455,13.539 C7.455,13.646 7.263,13.795 6.755,14.114 L6.755,15.84 C6.755,16.692 6.755,16.692 6.84,18.758 C6.819,19.035 6.563,19.12 5.69,19.12 C5.477,19.12 5.413,19.056 5.39,18.886 L5.39,18.566 L2.194,18.566 L2.194,19.313 Z M0.809,10.303 C1.31960111,10.41284 1.84231048,10.4558669 2.364,10.431 L4.771,10.431 C5.24,9.92 5.389,9.75 5.857,9.26 C6.539,9.814 6.73,10.005 7.348,10.58 C7.40206552,10.6292044 7.43291874,10.6988964 7.433,10.772 C7.433,10.836 7.326,10.921 7.241,10.921 L2.365,10.921 C1.88576437,10.9003089 1.40590316,10.9433518 0.938,11.049 L0.809,10.303 Z M0.831,7.403 C1.39631657,7.53356273 1.97605228,7.59103219 2.556,7.574 L4.9,7.574 C5.348,7.041 5.5,6.874 5.965,6.36 C6.625,6.914 6.817,7.105 7.477,7.702 C7.53727525,7.75770618 7.57529391,7.83338818 7.584,7.915 C7.584,8.001 7.477,8.064 7.371,8.064 L2.556,8.064 C2.02847073,8.0534024 1.50104755,8.08988027 0.98,8.173 L0.831,7.403 Z M2.194,18.079 L5.389,18.079 L5.389,13.797 L2.194,13.797 L2.194,18.079 Z M6.3,19.633 C7.90233342,18.863688 9.19468797,17.5713334 9.964,15.969 C10.5890053,14.5710261 10.8806728,13.0469608 10.816,11.517 C10.816,11.198 10.816,11.07 10.795,10.729 C12.818,11.113 12.968,11.155 12.968,11.347 C12.968,11.496 12.755,11.603 12.223,11.709 C12.01,14.309 11.69,15.458 10.838,16.736 C10.1521859,17.7556003 9.23175996,18.5957804 8.154,19.186 C7.61467146,19.4716378 7.06018329,19.7276838 6.493,19.953 L6.3,19.633 Z M9.457,9.472 C9.45067116,10.3087732 9.23071965,11.1300632 8.818,11.858 C8.605,12.199 8.349,12.412 8.136,12.412 C7.795,12.412 7.518,11.858 7.518,11.24 C7.518,10.963 7.582,10.878 8.051,10.54 C8.36638613,10.2414284 8.61337908,9.8781031 8.775,9.475 C8.97608437,8.96630722 9.0703719,8.42168614 9.052,7.875 L9.371,7.875 C9.44127861,8.23983153 9.47710289,8.61046222 9.478,8.982 L17.615,8.982 C18.015,8.492 18.147,8.343 18.552,7.875 C19.252,8.45 19.468,8.642 20.128,9.26 C20.234,9.388 20.277,9.452 20.277,9.516 C20.277,9.686 20.021,9.75 19.042,9.878 L18.573,10.346 C18.1186836,10.8373635 17.6272331,11.2930418 17.103,11.709 L16.911,11.56 C17.2708744,10.8974276 17.5566006,10.1971972 17.763,9.472 L9.457,9.472 Z M16.934,3.401 C17.403,2.801 17.534,2.634 17.999,2.059 C18.787,2.698 19.043,2.911 19.767,3.529 C19.873,3.636 19.916,3.7 19.916,3.742 C19.9033429,3.81843799 19.843438,3.87834292 19.767,3.891 L14.016,3.891 L14.016,6.511 L16.487,6.511 C16.956,5.936 17.105,5.765 17.595,5.211 C18.319,5.85 18.532,6.041 19.257,6.681 C19.342,6.788 19.363,6.83 19.363,6.873 C19.3586114,6.94179272 19.3037927,6.99661142 19.235,7.001 L10.714,7.001 C10.0369374,6.98112403 9.35947167,7.02296356 8.69,7.126 L8.541,6.338 C9.25052954,6.51701117 9.98526409,6.57449155 10.714,6.508 L12.652,6.508 L12.652,3.891 L9.947,3.891 C9.30478886,3.88196523 8.66310216,3.93184073 8.03,4.04 L7.86,3.21 C8.54505756,3.36000998 9.24607168,3.42450193 9.947,3.402 L12.653,3.402 L12.653,2.059 C12.6543176,1.53798225 12.6114978,1.01778922 12.525,0.504 C12.994,0.59 13.377,0.632 13.633,0.675 C14.633,0.803 14.933,0.909 14.933,1.058 C14.933,1.25 14.677,1.399 14.017,1.612 L14.017,3.401 L16.934,3.401 Z M14.016,12.501 C14.0281274,11.8896229 14.006762,11.2780404 13.952,10.669 C15.852,10.969 16.125,11.031 16.125,11.223 C16.125,11.372 15.934,11.457 15.38,11.628 L15.38,17.656 C15.38,17.847 15.38,17.869 15.465,17.911 C15.8165349,17.9717034 16.1737253,17.9931684 16.53,17.975 L16.785,17.975 C17.275,17.954 17.573,17.954 17.659,17.954 C18.085,17.954 18.192,17.869 18.359,17.4 C18.7481924,16.1962537 19.0752901,14.9733088 19.339,13.736 L19.658,13.8 L19.467,17.4 L19.445,17.485 C19.445,17.57 19.594,17.72 19.765,17.785 C19.999,17.871 20.084,17.913 20.148,17.998 C20.221554,18.1154003 20.2721184,18.2457138 20.297,18.382 C20.297,18.659 19.978,18.936 19.616,19.042 C18.9458312,19.1468261 18.2699257,19.2109437 17.592,19.234 C16.5603377,19.3244909 15.5211632,19.2743656 14.503,19.085 C14.1722375,18.9487147 13.9721607,18.6094007 14.013,18.254 L14.013,12.497 L14.016,12.501 Z" id="Shape"></path>
            <path d="M36.87,10.585 C38.0421263,10.0049294 39.1027161,9.22260477 40.003,8.274 C40.4757572,7.77894902 40.8956876,7.2360222 41.256,6.654 C40.435,6.892 40.025,6.978 38.167,7.432 C38.08,7.932 37.972,8.102 37.799,8.102 C37.583,8.102 37.583,8.102 37.216,6.244 C37.6856776,6.33157291 38.1634889,6.36778598 38.641,6.352 C39.9313488,5.1161038 41.0700232,3.73102989 42.033,2.226 C43.433,2.939 43.61,3.047 43.61,3.198 C43.61,3.328 43.459,3.414 43.243,3.414 L42.725,3.414 C41.6054937,4.53528687 40.3583021,5.52136027 39.009,6.352 C40.046,6.352 40.197,6.352 41.472,6.266 C41.7253554,5.90474006 41.9154003,5.50300802 42.034,5.078 C43.417,5.64 43.784,5.834 43.784,6.007 C43.784,6.158 43.59,6.223 43.071,6.245 C42.3406209,7.36228685 41.4192214,8.34224705 40.349,9.14 C39.331559,9.89386451 38.2111207,10.4976955 37.022,10.933 L36.87,10.585 Z M50.004,10.931 C51.041,11.384 51.473,11.622 51.473,11.773 C51.473,11.903 51.3,11.968 50.998,11.968 L50.544,11.968 C50.004,12.357 49.767,12.508 49.227,12.875 L54.027,12.875 C54.546,12.357 54.697,12.206 55.194,11.687 C55.972,12.313 56.209,12.53 56.987,13.221 C57.0039822,13.2381038 57.0121033,13.262098 57.009,13.286 C57.009,13.33 56.965,13.351 56.879,13.351 L39.182,13.351 C38.5317902,13.3498438 37.8822664,13.3932791 37.238,13.481 L37.044,12.66 C37.7634128,12.7970906 38.4936717,12.8693802 39.226,12.876 L43.59,12.876 C43.5111482,12.7648223 43.4525796,12.6405757 43.417,12.509 C43.2484593,11.9305378 42.9613722,11.3934838 42.574,10.932 L41.364,10.932 C40.7723895,10.886752 40.1774428,10.9156427 39.593,11.018 L39.42,10.283 C40.0588567,10.4163969 40.7122071,10.4671458 41.364,10.434 L46.052,10.434 L46.052,9.915 C46.052,9.526 46.052,9.245 46.03,8.684 C46.441,8.749 46.786,8.792 47.002,8.814 C48.125,8.944 48.211,8.987 48.211,9.16 C48.211,9.333 48.038,9.42 47.369,9.571 L47.369,10.435 L52.64,10.435 C53.14,9.895 53.288,9.744 53.785,9.247 C54.3470173,9.67373264 54.881422,10.1356587 55.385,10.63 L55.429,10.76 C55.4089893,10.8627261 55.3176165,10.935909 55.213,10.933 L50.004,10.931 Z M37.388,1.62 C37.9326483,1.89986504 38.4528122,2.22500931 38.943,2.592 C39.6010473,1.81971266 40.1268109,0.94389048 40.499,0 C40.888,0.194 41.191,0.324 41.406,0.432 C42.27,0.821 42.4,0.907 42.4,1.032 C42.3882722,1.09025498 42.3581213,1.14319428 42.314,1.183 C42.1760533,1.23434207 42.0289472,1.25647608 41.882,1.248 C41.753,1.248 41.582,1.248 41.342,1.27 C40.6685947,1.84165721 39.9372892,2.34137147 39.16,2.761 C39.7,3.171 39.808,3.323 39.808,3.625 C39.808,4.143 39.484,4.705 39.182,4.705 C39.053,4.705 38.988,4.619 38.75,4.057 C38.4042881,3.20154846 37.8819017,2.42870287 37.217,1.789 L37.388,1.62 Z M42.011,19.745 C41.99,19.983 41.881,20.004 41.169,20.004 L40.802,20.004 C40.586,20.004 40.502,19.918 40.502,19.723 C40.588,18.103 40.632,17.045 40.632,15.792 C40.632,15.058 40.632,14.647 40.589,13.783 C41.302,14.15 41.518,14.258 42.189,14.669 L51.24,14.669 C51.629,14.323 51.629,14.323 52.126,13.869 C52.5369566,14.1203657 52.9335726,14.3944581 53.314,14.69 C53.465,14.798 53.509,14.884 53.509,14.949 C53.509,15.122 53.336,15.249 52.883,15.449 C52.861,15.902 52.861,16.183 52.861,16.464 C52.861,16.615 52.861,16.615 52.883,17.803 C52.905,18.797 52.905,18.797 52.926,19.596 L52.926,19.661 C52.926,19.92 52.775,19.961 51.716,19.961 C51.478,19.961 51.416,19.918 51.416,19.723 L51.416,19.223 L42.016,19.223 L42.011,19.745 Z M51.411,15.165 L42.011,15.165 L42.011,16.548 L51.411,16.548 L51.411,15.165 Z M42.011,18.73 L51.411,18.73 L51.411,17.044 L42.011,17.044 L42.011,18.73 Z M45.143,7.669 C45.532,7.604 45.743,7.583 45.743,7.583 L47.925,7.151 C47.558,6.784 47.407,6.611 46.888,6.157 L47.083,5.919 C47.822875,6.30648461 48.537321,6.74069677 49.222,7.219 C49.626441,7.43591624 49.8763264,7.86010444 49.87,8.319 C49.87,8.751 49.654,9.204 49.438,9.204 C49.33,9.204 49.222,9.074 49.071,8.794 C48.8319849,8.31932115 48.5343242,7.87652573 48.185,7.476 C46.6564275,8.08015862 45.0905174,8.58520471 43.497,8.988 C43.389,9.636 43.346,9.744 43.197,9.744 C43.024,9.744 42.959,9.549 42.527,7.994 C43.0269627,7.96562441 43.5248229,7.90785793 44.018,7.821 L44.018,2.4 C44.018,1.428 44.018,1 43.953,0.153 C44.4417774,0.395146538 44.9099956,0.676746326 45.353,0.995 L48.529,0.995 C48.788,0.695 48.875,0.606 49.134,0.304 C49.4707147,0.569154787 49.7881794,0.857880624 50.084,1.168 C50.192,1.276 50.235,1.341 50.235,1.406 C50.235,1.514 50.127,1.579 49.695,1.795 C49.673,2.162 49.673,2.395 49.673,2.637 C49.673,2.723 49.673,2.723 49.716,4.905 L49.716,5.272 C49.7180562,5.43892393 49.7110458,5.60583636 49.695,5.772 C49.695,5.837 49.695,5.88 49.716,5.902 L49.716,5.924 C49.716,6.097 49.478,6.183 49.09,6.183 C48.572,6.183 48.528,6.161 48.528,5.945 L48.528,5.573 L45.136,5.573 L45.143,7.669 Z M43.043,10.931 C44.21,11.471 44.534,11.731 44.534,12.097 C44.5366351,12.3850584 44.4293497,12.6632854 44.234,12.875 L48.663,12.875 C49.0742875,12.2863815 49.3745524,11.627561 49.549,10.931 L43.043,10.931 Z M48.53,1.469 L45.138,1.469 L45.138,3 L48.53,3 L48.53,1.469 Z M48.53,3.456 L45.138,3.456 L45.138,5.1 L48.53,5.1 L48.53,3.456 Z M52.182,7.842 C52.182,8.166 52.182,8.49 52.204,9.182 L52.204,9.247 C52.204,9.507 51.988,9.571 51.211,9.571 C50.973,9.571 50.911,9.527 50.911,9.376 C50.976,7.237 50.976,6.957 50.976,2.226 C50.9902052,1.52534932 50.9685101,0.824430918 50.911,0.126 C51.559,0.493 51.754,0.601 52.337,0.99 L54.497,0.99 L55.189,0.256 C55.729,0.71 55.902,0.839 56.42,1.315 C56.55,1.445 56.593,1.509 56.593,1.574 C56.5875174,1.64587802 56.5471691,1.71051005 56.485,1.747 C56.399,1.79 56.118,1.877 55.643,2.028 C54.887,2.935 54.563,3.303 53.634,4.253 C54.2957733,4.51892981 54.8926044,4.92409287 55.384,5.441 C55.8314496,5.88177495 56.0942575,6.47640021 56.119,7.104 C56.1138996,7.55972796 55.8908194,7.98543922 55.519,8.249 C55.0528223,8.5451107 54.5150744,8.70926897 53.963,8.724 C53.966266,8.37745017 53.7724044,8.05912938 53.463,7.903 C53.247,7.751 53.096,7.73 52.188,7.622 L52.182,7.842 Z M52.182,7.302 C52.528,7.324 52.787,7.324 52.96,7.324 C53.478,7.346 53.824,7.367 53.932,7.367 C54.71,7.367 54.883,7.281 54.883,6.827 C54.883,5.985 54.494,5.38 53.241,4.256 C53.7323749,3.35466175 54.1513598,2.41570742 54.494,1.448 L52.182,1.448 L52.182,7.302 Z" id="Shape"></path>
            <g id="Group" transform="translate(21.624000, 3.180000)">
                <path d="M3.296,-4.4408921e-15 L2.634,1.175 L2.634,2.058 L2.41,2.058 L2.41,1.18 L1.784,-4.4408921e-15 L2.041,-4.4408921e-15 L2.327,0.575 C2.405,0.729 2.47,0.861 2.532,1.01 L2.54,1.01 C2.596,0.872 2.667,0.732 2.748,0.572 L3.048,-4.4408921e-15 L3.296,-4.4408921e-15 Z" id="パス_36883"></path>
                <path d="M4.909,1.315 C4.93199664,1.51233147 4.87006097,1.71013986 4.73863125,1.85911899 C4.60720152,2.00809811 4.41865891,2.09421356 4.22,2.096 C4.02694233,2.09415305 3.84374179,2.01044747 3.71597328,1.86570672 C3.58820477,1.72096598 3.52787782,1.5287949 3.55,1.337 C3.52700336,1.13966853 3.58893903,0.941860139 3.72036875,0.792881014 C3.85179848,0.643901889 4.04034109,0.557786436 4.239,0.556 C4.43216447,0.557531995 4.61556143,0.641146099 4.74339879,0.785964839 C4.87123615,0.93078358 4.93144795,1.12313821 4.909,1.315 M4.231,0.732 C3.912,0.732 3.78,1.045 3.78,1.332 C3.78,1.659 3.961,1.924 4.226,1.924 C4.491,1.924 4.68,1.659 4.68,1.324 C4.68,1.062 4.553,0.732 4.231,0.732" id="パス_36884"></path>
                <path d="M7.387,2.059 L7.166,2.059 L7.166,1.208 C7.166,0.922 7.066,0.738 6.842,0.738 C6.63875325,0.753470736 6.48508442,0.928457782 6.496,1.132 L6.496,2.058 L6.274,2.058 L6.274,1.15 C6.274,0.915 6.174,0.737 5.966,0.737 C5.75254116,0.757079213 5.59287364,0.941887747 5.604,1.156 L5.604,2.056 L5.382,2.056 L5.382,0.965 C5.382,0.814 5.377,0.705 5.371,0.584 L5.571,0.584 L5.584,0.822 L5.594,0.822 C5.67860311,0.652982209 5.85303566,0.54785545 6.042,0.552 C6.225075,0.552603724 6.3867738,0.671452339 6.442,0.846 L6.447,0.846 C6.53351073,0.663848568 6.71837183,0.548945473 6.92,0.552 C7.101,0.552 7.387,0.668 7.387,1.173 L7.387,2.059 Z" id="パス_36885"></path>
                <path d="M8.067,0.327 C7.98755327,0.320561321 7.92635921,0.25420721 7.92635921,0.1745 C7.92635921,0.0947927898 7.98755327,0.0284386792 8.067,0.022 C8.14644673,0.0284386792 8.20764079,0.0947927898 8.20764079,0.1745 C8.20764079,0.25420721 8.14644673,0.320561321 8.067,0.327 M8.18,2.058 L7.956,2.058 L7.956,0.587 L8.18,0.587 L8.18,2.058 Z" id="パス_36886"></path>
                <path d="M9.914,1.666 C9.914,1.817 9.922,1.944 9.927,2.058 L9.727,2.058 L9.716,1.825 L9.706,1.825 C9.60876256,1.99180687 9.42905399,2.09313192 9.236,2.09 C9.015,2.09 8.753,1.963 8.753,1.455 L8.753,0.585 L8.977,0.585 L8.977,1.414 C8.977,1.7 9.061,1.9 9.307,1.9 C9.41097129,1.89816816 9.50990559,1.85489018 9.58182242,1.77978122 C9.65373925,1.70467226 9.69268248,1.60395283 9.69,1.5 L9.69,0.584 L9.914,0.584 L9.914,1.666 Z" id="パス_36887"></path>
                <path d="M11.164,0.775 C11.1371462,0.771363773 11.1100965,0.769360093 11.083,0.769 C10.84,0.769 10.715,1.01 10.715,1.258 L10.715,2.058 L10.491,2.058 L10.491,1.027 C10.491,0.87 10.491,0.727 10.48,0.587 L10.68,0.587 L10.691,0.871 L10.699,0.871 C10.7517847,0.69146878 10.9121266,0.564798681 11.099,0.555 C11.12182,0.556143405 11.1445377,0.558816069 11.167,0.563 L11.164,0.775 Z" id="パス_36888"></path>
                <path d="M11.672,0.327 C11.5925533,0.320561321 11.5313592,0.25420721 11.5313592,0.1745 C11.5313592,0.0947927898 11.5925533,0.0284386792 11.672,0.022 C11.7514467,0.0284386792 11.8126408,0.0947927898 11.8126408,0.1745 C11.8126408,0.25420721 11.7514467,0.320561321 11.672,0.327 M11.785,2.058 L11.561,2.058 L11.561,0.587 L11.785,0.587 L11.785,2.058 Z" id="パス_36889"></path>
                <path d="M3.677,5.959 L3.453,5.959 L2.797,4.876 C2.65977308,4.65510395 2.53620828,4.42600814 2.427,4.19 L2.416,4.19 C2.435,4.452 2.438,4.69 2.438,5.049 L2.438,5.957 L2.232,5.957 L2.232,3.901 L2.467,3.901 L3.131,4.984 C3.26390526,5.20067212 3.38378429,5.42506963 3.49,5.656 L3.495,5.656 C3.473,5.37 3.468,5.124 3.468,4.8 L3.468,3.9 L3.681,3.9 L3.677,5.959 Z" id="パス_36890"></path>
                <path d="M4.373,4.227 C4.29355327,4.22056132 4.23235921,4.15420721 4.23235921,4.0745 C4.23235921,3.99479279 4.29355327,3.92843868 4.373,3.922 C4.45244673,3.92843868 4.51364079,3.99479279 4.51364079,4.0745 C4.51364079,4.15420721 4.45244673,4.22056132 4.373,4.227 M4.486,5.958 L4.264,5.958 L4.264,4.487 L4.488,4.487 L4.486,5.958 Z" id="パス_36891"></path>
                <path d="M5.278,4.736 C5.3771026,4.55395725 5.57088876,4.44388671 5.778,4.452 C6.126,4.452 6.378,4.752 6.378,5.203 C6.378,5.743 6.062,5.991 5.738,5.991 C5.55888607,5.99773258 5.38987093,5.90807443 5.295,5.756 L5.289,5.756 L5.289,6.561 L5.065,6.561 L5.065,4.961 C5.065,4.769 5.059,4.62 5.054,4.485 L5.254,4.485 L5.268,4.736 L5.278,4.736 Z M5.292,5.373 C5.28598351,5.48657071 5.32672708,5.59765281 5.40475015,5.68039883 C5.48277323,5.76314485 5.59127196,5.81033908 5.705,5.811 C5.994,5.811 6.153,5.563 6.153,5.211 C6.153,4.906 5.999,4.636 5.713,4.636 C5.47399887,4.65241526 5.2893169,4.85245084 5.292,5.092 L5.292,5.373 Z" id="パス_36892"></path>
                <path d="M7.066,4.736 C7.1651026,4.55395725 7.35888876,4.44388671 7.566,4.452 C7.914,4.452 8.166,4.752 8.166,5.203 C8.166,5.743 7.85,5.991 7.526,5.991 C7.34688607,5.99773258 7.17787093,5.90807443 7.083,5.756 L7.076,5.756 L7.076,6.561 L6.852,6.561 L6.852,4.961 C6.852,4.769 6.847,4.62 6.841,4.485 L7.041,4.485 L7.055,4.736 L7.066,4.736 Z M7.079,5.373 C7.07298351,5.48657071 7.11372708,5.59765281 7.19175015,5.68039883 C7.26977323,5.76314485 7.37827196,5.81033908 7.492,5.811 C7.781,5.811 7.94,5.563 7.94,5.211 C7.94,4.906 7.786,4.636 7.5,4.636 C7.26099887,4.65241526 7.0763169,4.85245084 7.079,5.092 L7.079,5.373 Z" id="パス_36893"></path>
                <path d="M9.888,5.215 C9.91099664,5.41233147 9.84906097,5.61013986 9.71763125,5.75911899 C9.58620152,5.90809811 9.39765891,5.99421356 9.199,5.996 C9.00594233,5.99415305 8.82274179,5.91044747 8.69497328,5.76570672 C8.56720477,5.62096598 8.50687782,5.4287949 8.529,5.237 C8.50600336,5.03966853 8.56793903,4.84186014 8.69936875,4.69288101 C8.83079848,4.54390189 9.01934109,4.45778644 9.218,4.456 C9.41116447,4.457532 9.59456143,4.5411461 9.72239879,4.68596484 C9.85023615,4.83078358 9.91044795,5.02313821 9.888,5.215 M9.21,4.632 C8.891,4.632 8.759,4.945 8.759,5.232 C8.759,5.559 8.94,5.824 9.205,5.824 C9.47,5.824 9.659,5.559 9.659,5.224 C9.659,4.962 9.532,4.632 9.21,4.632" id="パス_36894"></path>
                <path d="M11.54,5.959 L11.316,5.959 L11.316,5.089 C11.316,4.849 11.23,4.638 10.973,4.638 C10.8659874,4.64162379 10.7648951,4.68800026 10.6923471,4.76675056 C10.6197991,4.84550087 10.5818526,4.95004988 10.587,5.057 L10.587,5.957 L10.363,5.957 L10.363,4.865 C10.363,4.714 10.358,4.603 10.352,4.484 L10.552,4.484 L10.565,4.725 L10.571,4.725 C10.6650332,4.55253588 10.8476264,4.44714914 11.044,4.452 C11.228,4.452 11.544,4.563 11.544,5.062 L11.54,5.959 Z" id="パス_36895"></path>
                <path d="M1.029,8.055 C0.919192069,7.99106491 0.794052447,7.95822441 0.667,7.96 C0.381,7.96 0.272,8.136 0.272,8.284 C0.272,8.484 0.397,8.589 0.672,8.705 C1.004,8.846 1.172,9.016 1.172,9.31 C1.172,9.637 0.934,9.888 0.492,9.888 C0.319311055,9.89061964 0.149187429,9.84601405 7.10542736e-15,9.759 L0.062,9.572 C0.194917605,9.65485356 0.348373764,9.69884663 0.505,9.699 C0.78,9.699 0.942,9.55 0.942,9.329 C0.942,9.129 0.831,9.002 0.564,8.894 C0.253,8.778 0.043,8.594 0.043,8.313 C0.0484197642,8.155339 0.119392406,8.00709349 0.238805702,7.90400697 C0.358218997,7.80092046 0.51523661,7.75234767 0.672,7.77 C0.819004535,7.76572594 0.964545185,7.80021424 1.094,7.87 L1.029,8.055 Z" id="パス_36896"></path>
                <path d="M2.771,8.387 L2.38,9.433 C2.28892681,9.77337984 2.12402279,10.0895312 1.897,10.359 C1.81204534,10.4395222 1.70924571,10.4988033 1.597,10.532 L1.535,10.343 C1.76426711,10.2454604 1.93856336,10.0513911 2.011,9.813 C2.00885816,9.79152477 2.00311095,9.77056434 1.994,9.751 L1.473,8.39 L1.719,8.39 L2.041,9.284 C2.079,9.384 2.111,9.503 2.136,9.592 L2.144,9.592 C2.168,9.503 2.204,9.392 2.239,9.279 L2.539,8.39 L2.771,8.387 Z" id="パス_36897"></path>
                <path d="M5.158,9.859 L4.937,9.859 L4.937,9.008 C4.937,8.722 4.837,8.538 4.613,8.538 C4.40975325,8.55347074 4.25608442,8.72845778 4.267,8.932 L4.267,9.858 L4.046,9.858 L4.046,8.95 C4.046,8.715 3.946,8.537 3.738,8.537 C3.52454116,8.55707921 3.36487364,8.74188775 3.376,8.956 L3.376,9.856 L3.154,9.856 L3.154,8.765 C3.154,8.614 3.149,8.505 3.143,8.384 L3.343,8.384 L3.357,8.622 L3.365,8.622 C3.44960311,8.45298221 3.62403566,8.34785545 3.813,8.352 C3.996075,8.35260372 4.1577738,8.47145234 4.213,8.646 L4.218,8.646 C4.30451073,8.46384857 4.48937183,8.34894547 4.691,8.352 C4.872,8.352 5.158,8.468 5.158,8.973 L5.158,9.859 Z" id="パス_36898"></path>
                <path d="M5.938,8.636 C6.0371026,8.45395725 6.23088876,8.34388671 6.438,8.352 C6.786,8.352 7.038,8.652 7.038,9.103 C7.038,9.643 6.722,9.891 6.398,9.891 C6.21888607,9.89773258 6.04987093,9.80807443 5.955,9.656 L5.949,9.656 L5.949,10.461 L5.725,10.461 L5.725,8.861 C5.725,8.669 5.72,8.52 5.714,8.385 L5.914,8.385 L5.928,8.636 L5.938,8.636 Z M5.951,9.273 C5.94498351,9.38657071 5.98572708,9.49765281 6.06375015,9.58039883 C6.14177323,9.66314485 6.25027196,9.71033908 6.364,9.711 C6.653,9.711 6.812,9.463 6.812,9.111 C6.812,8.806 6.658,8.536 6.372,8.536 C6.13260879,8.5524355 5.9477821,8.75306684 5.951,8.993 L5.951,9.273 Z" id="パス_36899"></path>
                <path d="M8.69,9.86 L8.466,9.86 L8.466,8.99 C8.466,8.75 8.38,8.542 8.126,8.542 C8.01954272,8.54487112 7.91862531,8.59007597 7.84560745,8.66759879 C7.77258959,8.74512161 7.73350017,8.84856154 7.737,8.955 L7.737,9.86 L7.513,9.86 L7.513,7.699 L7.737,7.699 L7.737,8.615 L7.743,8.615 C7.83933027,8.45454957 8.01186896,8.3554155 8.199,8.353 C8.38,8.353 8.691,8.464 8.691,8.963 L8.69,9.86 Z" id="パス_36900"></path>
                <path d="M10.51,9.115 C10.5329966,9.31233147 10.471061,9.51013986 10.3396312,9.65911899 C10.2082015,9.80809811 10.0196589,9.89421356 9.821,9.896 C9.62794233,9.89415305 9.44474179,9.81044747 9.31697328,9.66570672 C9.18920477,9.52096598 9.12887782,9.3287949 9.151,9.137 C9.12800336,8.93966853 9.18993903,8.74186014 9.32136875,8.59288101 C9.45279848,8.44390189 9.64134109,8.35778644 9.84,8.356 C10.0331645,8.357532 10.2165614,8.4411461 10.3443988,8.58596484 C10.4722361,8.73078358 10.5324479,8.92313821 10.51,9.115 M9.832,8.532 C9.513,8.532 9.381,8.845 9.381,9.132 C9.381,9.459 9.562,9.724 9.827,9.724 C10.092,9.724 10.281,9.459 10.281,9.124 C10.281,8.862 10.154,8.532 9.832,8.532" id="パス_36901"></path>
                <path d="M12.162,9.859 L11.938,9.859 L11.938,8.989 C11.938,8.749 11.852,8.538 11.595,8.538 C11.4879874,8.54162379 11.3868951,8.58800026 11.3143471,8.66675056 C11.2417991,8.74550087 11.2038526,8.85004988 11.209,8.957 L11.209,9.857 L10.985,9.857 L10.985,8.765 C10.985,8.614 10.98,8.503 10.974,8.384 L11.174,8.384 L11.188,8.625 L11.194,8.625 C11.2880332,8.45253588 11.4706264,8.34714914 11.667,8.352 C11.851,8.352 12.167,8.463 12.167,8.962 L12.162,9.859 Z" id="パス_36902"></path>
                <path d="M13.842,8.387 L13.45,9.43 C13.3591732,9.77047565 13.1942423,10.0866784 12.967,10.356 C12.8820226,10.4364917 12.7792307,10.4957683 12.667,10.529 L12.605,10.34 C12.8339676,10.2423367 13.0079063,10.0482577 13.08,9.81 C13.0782125,9.788577 13.0728024,9.76761269 13.064,9.748 L12.543,8.387 L12.789,8.387 L13.111,9.281 C13.149,9.381 13.181,9.5 13.205,9.589 L13.213,9.589 C13.237,9.5 13.273,9.389 13.308,9.276 L13.608,8.387 L13.842,8.387 Z" id="パス_36903"></path>
                <path d="M2.348,12.712 C2.348,13.436 1.943,13.792 1.457,13.792 C0.947,13.792 0.585,13.392 0.585,12.747 C0.585,12.077 0.966,11.669 1.485,11.669 C2.004,11.669 2.352,12.091 2.352,12.712 M0.823,12.742 C0.823,13.18 1.05,13.606 1.469,13.606 C1.888,13.606 2.117,13.193 2.117,12.723 C2.117,12.31 1.917,11.856 1.474,11.856 C1.031,11.856 0.823,12.304 0.823,12.742" id="パス_36904"></path>
                <path d="M3.488,12.476 C3.46114593,12.4723662 3.43409639,12.4703625 3.407,12.47 C3.164,12.47 3.04,12.711 3.04,12.959 L3.04,13.759 L2.816,13.759 L2.816,12.728 C2.816,12.571 2.816,12.428 2.805,12.288 L3.005,12.288 L3.016,12.572 L3.024,12.572 C3.0767847,12.3924688 3.2371266,12.2657987 3.424,12.256 C3.44681978,12.2571464 3.46953723,12.259819 3.492,12.264 L3.488,12.476 Z" id="パス_36905"></path>
                <path d="M4.877,13.705 C4.75144164,13.7619995 4.61488051,13.7906774 4.477,13.789 C4.28069916,13.7942204 4.09159773,13.7149437 3.95770617,13.5712972 C3.82381461,13.4276507 3.75801025,13.2334499 3.777,13.038 C3.76283853,12.831123 3.83660286,12.6278703 3.98015155,12.4782293 C4.12370023,12.3285884 4.32371331,12.2464445 4.531,12.252 C4.65337727,12.2509234 4.77440767,12.2775911 4.885,12.33 L4.829,12.511 C4.73727069,12.4602174 4.63383533,12.4343585 4.529,12.436 C4.3797737,12.4381704 4.23840692,12.5032738 4.13975334,12.6152589 C4.04109977,12.727244 3.99433907,12.8756908 4.011,13.024 C3.99336804,13.1704752 4.03890756,13.3175324 4.136234,13.4284082 C4.23356044,13.539284 4.37347499,13.603499 4.521,13.605 C4.63145642,13.6048457 4.74046949,13.5798991 4.84,13.532 L4.877,13.705 Z" id="パス_36906"></path>
                <path d="M6.504,13.76 L6.28,13.76 L6.28,12.89 C6.28,12.65 6.194,12.442 5.94,12.442 C5.83354272,12.4448711 5.73262531,12.490076 5.65960745,12.5675988 C5.58658959,12.6451216 5.54750017,12.7485615 5.551,12.855 L5.551,13.76 L5.327,13.76 L5.327,11.599 L5.551,11.599 L5.551,12.515 L5.557,12.515 C5.65333027,12.3545496 5.82586896,12.2554155 6.013,12.253 C6.194,12.253 6.504,12.364 6.504,12.863 L6.504,13.76 Z" id="パス_36907"></path>
                <path d="M8.115,13.697 C7.969767,13.7616707 7.81192798,13.7931019 7.653,13.789 C7.45913869,13.7947957 7.27227784,13.7163008 7.14071089,13.5738019 C7.00914395,13.431303 6.94578174,13.2387838 6.967,13.046 C6.967,12.584 7.227,12.252 7.624,12.252 C7.79115758,12.259138 7.94774283,12.3357469 8.0559685,12.4633392 C8.16419417,12.5909316 8.21422952,12.7579176 8.194,12.924 C8.194,12.975 8.194,13.013 8.189,13.049 L7.189,13.049 C7.189,13.457 7.424,13.611 7.689,13.611 C7.82160866,13.6134206 7.95320673,13.5875101 8.075,13.535 L8.115,13.697 Z M7.972,12.881 C7.972,12.681 7.891,12.422 7.602,12.422 C7.332,12.422 7.213,12.679 7.191,12.881 L7.972,12.881 Z" id="パス_36908"></path>
                <path d="M9.351,12.516 C9.26590531,12.4604593 9.16661455,12.4306026 9.065,12.43 C9.00229459,12.422313 8.93928412,12.4417056 8.89175205,12.48332 C8.84421998,12.5249344 8.81666888,12.5848287 8.816,12.648 C8.816,12.775 8.9,12.835 9.089,12.916 C9.327,13.016 9.464,13.137 9.464,13.359 C9.464,13.621 9.264,13.7940136 8.943,13.7940136 C8.80750964,13.7948006 8.67414174,13.7603386 8.556,13.694 L8.618,13.521 C8.7185293,13.581648 8.83269832,13.6160363 8.95,13.621 C9.15,13.621 9.244,13.516 9.244,13.383 C9.244,13.25 9.166,13.17 8.971,13.091 C8.723,12.991 8.596,12.853 8.596,12.675 C8.59976762,12.5540031 8.65378492,12.4400487 8.74506463,12.3605348 C8.83634434,12.2810209 8.95662944,12.2431401 9.077,12.256 C9.19568558,12.2541991 9.31259213,12.2849822 9.415,12.345 L9.351,12.516 Z" id="パス_36909"></path>
                <path d="M10.002,12.021 L10.223,11.945 L10.223,12.288 L10.604,12.288 L10.604,12.464 L10.223,12.464 L10.223,13.315 C10.223,13.502 10.28,13.604 10.423,13.604 C10.4742329,13.6055585 10.5253417,13.5981122 10.574,13.582 L10.588,13.755 C10.5183761,13.7810182 10.4442693,13.7929161 10.37,13.79 C10.013,13.79 10.002,13.466 10.002,13.309 L10.002,12.464 L9.775,12.464 L9.775,12.288 L10.002,12.288 L10.002,12.021 Z" id="パス_36910"></path>
                <path d="M11.705,12.476 C11.6781459,12.4723662 11.6510964,12.4703625 11.624,12.47 C11.381,12.47 11.257,12.711 11.257,12.959 L11.257,13.759 L11.033,13.759 L11.033,12.728 C11.033,12.571 11.033,12.428 11.022,12.288 L11.222,12.288 L11.233,12.572 L11.241,12.572 C11.2937847,12.3924688 11.4541266,12.2657987 11.641,12.256 C11.6634835,12.2572077 11.6858643,12.25988 11.708,12.264 L11.705,12.476 Z" id="パス_36911"></path>
                <path d="M13.067,13.408 C13.0641857,13.5254157 13.0715465,13.6428546 13.089,13.759 L12.883,13.759 L12.861,13.57 L12.856,13.57 C12.7578049,13.7126053 12.594077,13.7957866 12.421,13.791 C12.3070951,13.7971971 12.1957975,13.7554258 12.1140972,13.6758155 C12.032397,13.5962052 11.987756,13.4860272 11.991,13.372 C11.991,13.018 12.299,12.826 12.845,12.829 C12.845,12.704 12.845,12.424 12.51,12.424 C12.3825306,12.4223477 12.2574891,12.4589198 12.151,12.529 L12.097,12.375 C12.2319626,12.2921154 12.3876294,12.249125 12.546,12.251 C12.962,12.251 13.07,12.546 13.07,12.837 L13.067,13.408 Z M12.846,12.995 C12.568,12.995 12.219,13.036 12.219,13.346 C12.2107323,13.4172726 12.2341232,13.4885873 12.2829976,13.5411176 C12.3318719,13.593648 12.401317,13.6221137 12.473,13.619 C12.6714951,13.6263178 12.8384103,13.4714849 12.846,13.273 L12.846,12.995 Z" id="パス_36912"></path>
            </g>
        </g>
    </g>
</svg>