<?xml version="1.0" encoding="UTF-8"?>
<svg width="161px" height="18px" viewBox="0 0 161 18" version="1.1" xmlns="http://www.w3.org/2000/svg" xmlns:xlink="http://www.w3.org/1999/xlink">
    <title>よみうりカルチャー</title>
    <g stroke="none" stroke-width="1" fill="none" fill-rule="evenodd">
        <g transform="translate(0.000000, 0.189000)" fill-rule="nonzero">
            <path d="M7.2,12.252 C7.18037131,12.4478697 7.12938775,12.6393113 7.049,12.819 C6.89699822,13.0986405 6.68491363,13.3411204 6.428,13.529 C5.94551846,13.8301985 5.3819627,13.975452 4.814,13.945 C4.15311442,13.9807364 3.49795551,13.8056539 2.943,13.445 C2.51264295,13.1685262 2.25203987,12.6925113 2.251,12.181 C2.24352339,11.6988179 2.49400808,11.249318 2.908,11.002 C3.50252524,10.679867 4.17486591,10.5292655 4.85,10.567 C5.23502625,10.5686481 5.61940504,10.5987299 6,10.657 C6.4250644,10.721314 6.84660312,10.8070903 7.263,10.914 L7.263,11.366 C7.251,11.7266667 7.23033333,12.0223333 7.201,12.253 M9.445,3.118 L9.445,0.032 L7.263,0.032 L7.263,8.802 C6.83166667,8.73133333 6.41633333,8.67833333 6.017,8.643 C5.61766667,8.60766667 5.24533333,8.59 4.9,8.59 C3.61466152,8.51049304 2.33957509,8.8624352 1.277,9.59 C0.449518324,10.2054984 -0.026831933,11.1850566 2.57389596e-16,12.216 C-0.024506228,13.2850619 0.477482013,14.2980091 1.343,14.926 C2.43795181,15.6730326 3.74982491,16.0356442 5.073,15.957 C6.1304081,16.0087735 7.17607735,15.7161265 8.053,15.123 C8.56984786,14.7637875 8.96034345,14.2508247 9.169,13.657 C9.25868091,13.3942317 9.32559418,13.1242367 9.369,12.85 C9.42447887,12.4980899 9.4512338,12.1422494 9.449,11.786 L9.449,11.626 C10.4063333,11.9986667 11.364,12.4243333 12.322,12.903 C13.28,13.3816667 14.229,13.9046667 15.169,14.472 L15.683,12.148 C14.057,11.3273333 12.6763333,10.6623333 11.541,10.153 C10.865093,9.83255842 10.1653228,9.56508773 9.448,9.353 L9.448,3.118 L9.445,3.118 Z" id="パス_36844" fill="#C30013"></path>
            <path d="M22.745,11.717 C22.5528966,12.3126247 22.0111828,12.726384 21.386,12.755 C20.9534152,12.7628253 20.5412177,12.5714742 20.268,12.236 C19.9566653,11.8428754 19.7991827,11.349809 19.825,10.849 C19.8215007,10.0813214 20.1692296,9.35418493 20.769,8.875 C21.5355237,8.28434658 22.4696583,7.95207757 23.437,7.926 L23.402,8.526 C23.3617963,9.61900881 23.1401057,10.6977229 22.746,11.718 M29.686,6.548 C29.0058575,6.36775671 28.3152012,6.22982582 27.618,6.135 C26.8793333,6.01966667 26.2616667,5.93866667 25.765,5.892 L26.128,0.801 L18.95,0.801 L18.95,2.801 L23.819,2.801 L23.606,5.826 C22.0109241,5.83172286 20.4666819,6.3876783 19.234,7.4 C18.2175592,8.29768996 17.6507556,9.59936104 17.686,10.955 C17.6414844,12.0339925 18.0142927,13.088671 18.727,13.9 C19.3788568,14.6436569 20.3330351,15.0512242 21.321,15.008 C22.5473704,15.0199229 23.6832249,14.3640771 24.286,13.296 C25.1155721,11.6426543 25.5642243,9.82446818 25.599,7.975 C26.3441462,8.05110323 27.0843473,8.1696289 27.816,8.33 C28.578,8.496 28.834,8.552 29.645,8.782 L29.686,6.548 Z M32.614,9.782 L34.155,10.504 L34.27,8.172 L32.685,7.472 L32.614,9.782 Z" id="パス_36845" fill="#1A1311"></path>
            <path d="M36.644,8.664 L36.644,6.34 C37.9355678,5.86920094 39.262379,5.50138535 40.612,5.24 C41.8851083,4.99483104 43.1785019,4.87027954 44.475,4.868 C46.3332478,4.74586978 48.1826689,5.21303669 49.76,6.203 C50.9559913,7.05995056 51.6395203,8.46197462 51.578,9.932 C51.6020419,11.6801079 50.7237489,13.3172702 49.254,14.264 C47.2646104,15.4774792 44.9509106,16.0516286 42.625,15.909 C42.117,15.909 41.5746667,15.8883333 40.998,15.847 C40.4213333,15.8056667 39.8213333,15.7463333 39.198,15.669 L39.198,13.55 C39.812,13.6206667 40.3786667,13.668 40.898,13.692 C41.4173333,13.716 41.8903333,13.7276667 42.317,13.727 C44.0607347,13.813363 45.796851,13.4435292 47.354,12.654 C48.4299599,12.1616101 49.1293277,11.0970168 49.154,9.914 C49.1732542,9.04591662 48.7116624,8.23813099 47.954,7.814 C46.8916213,7.24269424 45.691028,6.97881997 44.487,7.052 C43.255731,7.0631005 42.0286459,7.19709833 40.824,7.452 C39.3999393,7.75052133 38.0005877,8.15668766 36.638,8.667" id="パス_36846" fill="#C30013"></path>
            <path d="M58.405,15.692 L58.405,13.528 C61.3076667,13.552 63.3533333,12.983 64.542,11.821 C65.7306667,10.659 66.2923333,8.757 66.227,6.115 C66.227,5.329 66.1856667,4.494 66.103,3.61 C66.0203333,2.726 65.905,1.78733333 65.757,0.794 L68.009,0.794 C68.1803333,1.86066667 68.3073333,2.88066667 68.39,3.854 C68.4726667,4.82733333 68.514,5.77033333 68.514,6.683 C68.5180773,7.32578274 68.4883697,7.96833559 68.425,8.608 C68.3776667,9.116 68.311,9.58566667 68.225,10.017 C67.8951538,11.5420672 67.0378392,12.9018722 65.804,13.857 C63.8070842,15.1930601 61.4272323,15.8376399 59.029,15.692 L58.405,15.692 Z" id="パス_36847" fill="#1A1311"></path>
            <path d="M76.323,5.079 L72.583,5.079 L72.583,2.942 L76.323,2.942 L76.323,5.079 Z M79.565,2.942 L87.64,2.942 L87.64,12.129 C87.7365775,13.1465165 87.3491637,14.1502368 86.594,14.839 C85.7139458,15.4958859 84.6316523,15.8238643 83.535,15.766 L81.123,15.766 L81.123,13.415 L82.932,13.415 C83.6058754,13.4958295 84.2870356,13.3422241 84.861,12.98 C85.2451341,12.4100897 85.4076685,11.7194076 85.318,11.038 L85.318,5.079 L79.565,5.079 L79.565,2.942 Z" id="パス_36848" fill="#C30013"></path>
            <path d="M99.738,0.737 L99.738,13.357 L99.951,13.357 C100.675327,13.3396023 101.385691,13.1540517 102.026,12.815 C102.862558,12.3871158 103.537696,11.6993454 103.95,10.855 C104.154478,10.403755 104.294837,9.92612831 104.367,9.436 C104.524903,8.58528984 104.599257,7.72117971 104.589,6.856 L104.589,4.356 L106.78,4.356 L106.78,6.28 C106.790436,7.58046413 106.708899,8.88003851 106.536,10.169 C106.38246,11.2809822 105.913246,12.3256076 105.184,13.179 C104.455457,14.0751703 103.499947,14.7596014 102.417,15.161 C101.172571,15.5646919 99.8661067,15.743154 98.559,15.688 L97.451,15.688 L97.451,0.737 L99.738,0.737 Z" id="パス_36849" fill="#1A1311"></path>
            <path d="M118.094,8.831 L118.094,10.3 C118.233915,11.8438345 117.674248,13.3690647 116.569,14.456 C115.173443,15.4352532 113.47916,15.8951755 111.78,15.756 L110.201,15.756 L110.201,13.639 L111.727,13.639 C112.79815,13.7181953 113.863987,13.4269348 114.746,12.814 C115.459354,12.1648078 115.830997,11.2212927 115.752,10.26 L115.752,8.831 L118.094,8.831 Z M115.752,5.677 L115.752,3.1 L109.775,3.1 L109.775,1.1 L116.496,1.1 C117.302999,1.12374091 118.109682,1.0430726 118.896,0.86 C119.437515,0.75513219 119.918586,0.447532848 120.241,-3.55271368e-15 L123.078,-3.55271368e-15 C122.700959,0.924766444 122.041637,1.70692435 121.194,2.235 C120.250245,2.77448774 119.181059,3.0559252 118.094,3.051 L118.094,5.677 L115.752,5.677 Z" id="パス_36850" fill="#C30013"></path>
            <path d="M130.316,6.433 L127.902,6.433 L127.902,4.433 L130.024,4.433 L130.316,6.433 Z M133.216,4.433 L141.766,4.433 C141.924804,6.33713345 141.431089,8.23864295 140.366,9.825 C139.219666,11.1670482 137.56733,11.9725706 135.804,12.049 L135.804,9.939 C136.776132,9.83689111 137.69364,9.43938548 138.433,8.8 C139.06557,8.17128899 139.437678,7.32708339 139.475,6.436 L133.505,6.436 L133.216,4.433 Z" id="パス_36851" fill="#1A1311"></path>
            <rect id="長方形_5288" fill="#C30013" x="145.134" y="6.567" width="15.652" height="2.35"></rect>
            <rect id="長方形_5289" fill="#1A1311" x="9.996" y="3.043" width="5.446" height="2.038"></rect>
            <rect id="長方形_5290" fill="#1A1311" x="38.434" y="1.15" width="10.988" height="1.985"></rect>
            <path d="M32.322,7.817 L32.322,3.356 L30.14,3.356 L30.14,7.156 L30.105,9.391 C30.064394,10.5088949 29.6957511,11.5901314 29.045,12.5 C28.3689248,13.3150536 27.4346481,13.8746317 26.397,14.086 L26.912,16.268 C28.3454905,15.9386812 29.6455866,15.1828195 30.641,14.1 C31.5730557,12.9759818 32.1353307,11.5915979 32.251,10.136 L32.322,7.817 Z" id="パス_36852" fill="#C30013"></path>
            <path d="M60.999,6.964 L60.999,9.27 C60.6337674,9.5459827 60.2292874,9.76575016 59.799,9.922 C59.4135781,10.0584562 59.0078628,10.1287802 58.599,10.13 C57.7929469,10.1402406 57.0549113,9.67960327 56.71,8.951 C56.2009446,7.86602724 55.9693447,6.67160366 56.036,5.475 C56.0375101,4.69418577 56.0953267,3.91449694 56.209,3.142 C56.329061,2.33002912 56.5082032,1.52789986 56.745,0.742 L58.945,0.742 C58.6963836,1.55992563 58.5108399,2.39570799 58.39,3.242 C58.2762168,4.03931125 58.2184087,4.84361198 58.217,5.649 C58.1867525,6.18359623 58.2808847,6.71792444 58.492,7.21 C58.6339993,7.53263236 58.9555476,7.73872274 59.308,7.733 C59.5713985,7.72317266 59.8304436,7.66274012 60.071,7.555 C60.4002407,7.39184778 60.7121576,7.19585276 61.002,6.97" id="パス_36853" fill="#C30013"></path>
            <path d="M79.119,5.989 L79.119,7.94 C79.119,8.69066667 79.0803333,9.59833333 79.003,10.663 C78.9374828,11.6874087 78.6289742,12.6814918 78.103,13.563 C77.5840655,14.4004442 76.8616388,15.0929418 76.003,15.576 C74.9540387,16.1488907 73.8004319,16.5046315 72.611,16.622 L72.611,14.422 C74.355,14.12 75.499,13.4533333 76.043,12.422 C76.6643334,10.9725645 76.9261001,9.39441674 76.806,7.822 L76.806,0.686 L79.112,0.686 L79.112,5.986 L79.119,5.989 Z" id="パス_36854" fill="#1A1311"></path>
            <path d="M94.778,1.476 L94.778,8.521 C94.7923903,9.21044863 94.7686876,9.90016585 94.707,10.587 C94.668063,11.0011496 94.6059658,11.4127939 94.521,11.82 C94.3173965,12.6166212 93.9453699,13.3603335 93.43,14.001 C92.5618841,15.0033473 91.3628783,15.6608665 90.051,15.854 L90.051,13.584 C90.8994541,13.3678131 91.6222691,12.813414 92.051,12.05 C92.4706724,11.1116674 92.6635418,10.0877125 92.614,9.061 L92.614,1.476 L94.778,1.476 Z" id="パス_36855" fill="#C30013"></path>
            <rect id="長方形_5291" fill="#1A1311" x="108.747" y="6.126" width="16.672" height="2.128"></rect>
            <polygon id="パス_36856" fill="#C30013" points="132.821 5.677 134.178 15.086 132.006 15.086 130.657 5.677 130.365 3.677 130.099 1.77 132.236 1.77 132.521 3.682"></polygon>
        </g>
    </g>
</svg>