<?xml version="1.0" encoding="UTF-8"?>
<svg width="65px" height="18px" viewBox="0 0 65 18" version="1.1" xmlns="http://www.w3.org/2000/svg" xmlns:xlink="http://www.w3.org/1999/xlink">
    <title>BS日テレ</title>
    <g stroke="none" stroke-width="1" fill="none" fill-rule="evenodd">
        <g fill-rule="nonzero">
            <path d="M30.69318,0.00104300519 L31.31,-0.001 C33.7275309,-0.0325518675 35.8857008,1.5089402 36.64,3.806 C37.0155582,5.2592854 37.1799929,6.75817027 37.1289871,8.25660252 L37.104,8.756 L37.104,9.244 C37.2138931,10.9081808 37.0572531,12.5792325 36.64,14.194 C35.9099011,16.4135329 33.8691912,17.9269733 31.5507835,17.9969413 L30.934,17.999 C28.5168379,18.0303693 26.358923,16.4894642 25.604,14.193 C25.228457,12.7397119 25.0640241,11.240829 25.1150175,9.74239734 L25.14,9.243 L25.14,8.755 C25.0300726,7.09081875 25.1867131,5.41976156 25.604,3.805 C26.3334961,1.58489139 28.3744241,0.0708834685 30.69318,0.00104300519 L30.69318,0.00104300519 Z M56.623,0.85 L56.623,14.292 L56.742,14.295 C59.6095,14.295 61.2900277,11.8603795 61.3764907,9.21029968 L61.38,8.995 L61.38,8.786 L64.189,8.786 L64.189,8.995 C64.189,12.8668596 61.9120459,17.0022244 55.9907086,17.1461332 L55.67,17.15 L53.63,17.15 L53.63,0.85 L56.623,0.85 Z M50.892,6.255 L50.892,9.249 L46.682,9.249 L46.682,11.288 C46.7438252,12.8488479 46.155545,14.3654332 45.0573611,15.4763161 C44.0237763,16.521853 42.6256459,17.119872 41.1629407,17.1500295 L40.624,17.149 L40.624,14.343 L40.824,14.343 C41.6643703,14.406633 42.4898976,14.0955887 43.0793338,13.4932297 C43.6234287,12.937206 43.914999,12.1854456 43.8922668,11.4133469 L43.88,11.22 L43.88,9.249 L39.669,9.249 L39.669,6.255 L50.892,6.255 Z M34.265,8.199 L28.249,13.247 C28.6198935,14.3388151 29.6046295,15.0968153 30.7420885,15.1863283 L30.933,15.195 L31.309,15.195 C32.5815187,15.1810543 33.6845684,14.3315665 34.0324962,13.1221682 L34.077,12.947 C34.21973,11.9240027 34.2867371,10.8937746 34.2787707,9.86327598 L34.265,9.245 L34.265,8.199 Z M31.31,2.806 L30.934,2.806 C29.6613219,2.82039826 28.5583548,3.67021124 28.2104944,4.87980479 L28.166,5.055 C28.0239052,6.07714535 27.9570032,7.10724582 27.9651253,8.13772654 L27.979,8.756 L27.979,9.81 L33.996,4.76 C33.6268151,3.66529221 32.6408319,2.90453252 31.5012696,2.81470172 L31.31,2.806 Z M50.894,0.85 L50.894,3.843 L39.669,3.843 L39.669,0.85 L50.894,0.85 Z" id="Shape" fill="#17100D"></path>
            <path d="M17.108696,0.322696534 L17.331,0.329 L17.573,0.329 C19.6627657,0.269191337 21.5603117,1.54185236 22.298,3.498 C22.5368912,4.25401247 22.6447712,5.04444027 22.6178178,5.83518796 L22.598,6.174 L19.73,6.174 C19.9151429,4.50192857 19.1044196,3.12368878 17.6699352,3.02737582 L17.508,3.022 L17.408,3.022 C16.8739825,2.98393713 16.3482007,3.16975115 15.9566815,3.53490347 C15.5651624,3.90005578 15.3432009,4.41162833 15.344,4.947 C15.3328571,6.03042857 16.258449,6.7105102 17.1364956,7.16923907 L17.4260667,7.31420009 L17.4260667,7.31420009 L17.8747754,7.52650391 L17.8747754,7.52650391 L18.5343418,7.85023047 C18.9834434,8.07612109 19.4377637,8.31619922 19.8159277,8.53471484 L20.084,8.694 L20.2824387,8.80666758 C22.2318589,9.97402511 23.1260793,12.3462741 22.407,14.523 C21.7295756,16.4803518 19.8566186,17.7559897 17.8036081,17.6866105 L17.583,17.674 L17.236,17.674 C15.1298821,17.7455987 13.2107689,16.4716804 12.459,14.503 C12.1852783,13.741831 12.0642061,12.9352246 12.1015563,12.1291593 L12.123,11.827 L15.13,11.827 C14.9448571,13.4990714 15.8318278,14.8131518 17.2296165,14.9048819 L17.387,14.91 L17.487,14.91 C18.6252569,14.9715462 19.6006063,14.1046185 19.673,12.967 C19.7568095,11.8212857 18.9825692,11.0429184 17.5982003,10.360653 L17.386,10.259 C17.1891429,10.1675714 16.9765306,10.0667551 16.7548338,9.95934985 L16.0691603,9.62016618 L16.0691603,9.62016618 L15.3690029,9.25824198 C15.2533265,9.19695918 15.1387143,9.13542857 15.026,9.074 C12.962126,8.12095378 11.9059333,5.80149674 12.542,3.619 C13.189323,1.63763548 15.0411432,0.312463354 17.108696,0.322696534 L17.108696,0.322696534 Z M4.032,0.519 C8.15120455,0.519 9.67741581,2.69558626 9.74466136,5.08404434 L9.747,5.311 C9.73829715,6.80083475 8.85977079,8.14814309 7.5,8.757 C9.0938872,9.33277612 10.1856744,10.7982079 10.2927758,12.4761937 L10.301,12.687 L10.301,12.747 C10.301,15.1464667 8.95870667,17.3786247 4.86910983,17.4766468 L4.586,17.48 L-7.1942452e-14,17.48 L-7.1942452e-14,0.519 L4.032,0.519 Z M4.883,10.423 L2.793,10.423 L2.793,14.62 L4.889,14.62 C6.63044,14.62 7.2825488,13.6136128 7.3319312,12.7987709 L7.335,12.698 L7.329,12.345 C7.329,11.5482 6.7465488,10.5099408 5.0950416,10.4281549 L4.883,10.423 Z M4.324,3.392 L2.8,3.392 L2.793,7.579 L4.324,7.579 C6.06544,7.579 6.7175488,6.5726128 6.7669312,5.75777094 L6.77,5.657 L6.77,5.314 C6.77,4.5172 6.1875488,3.4789408 4.5360416,3.39715494 L4.324,3.392 Z" id="Shape" fill="#95949A"></path>
        </g>
    </g>
</svg>