<?xml version="1.0" encoding="UTF-8"?>
<svg width="351px" height="42px" viewBox="0 0 351 42" version="1.1" xmlns="http://www.w3.org/2000/svg" xmlns:xlink="http://www.w3.org/1999/xlink">
  <title>読売新聞オンライン</title>
  <path d="M162.166,9.29559964 C162.887,9.38259964 163.573,9.84559964 164.347,9.55959964 C164.397,9.64259964 164.463,9.64359964 164.513,9.55959964 C164.764837,9.57240597 165.017163,9.57240597 165.269,9.55959964 C165.403,9.59459964 165.607,9.48759964 165.689,9.64559964 C165.902,9.33159964 165.947,9.87159964 166.189,9.73359964 C166.704,9.43359964 167.472,9.9995996 168.038,9.57959964 C168.958138,9.71897124 169.895896,9.48615092 170.644,8.93259964 C171.535,7.89159964 174.266,7.38759964 173.187,5.54259964 C171.971903,4.75939665 170.646606,4.16213673 169.255,3.77059964 C168.365,3.51359964 167.521,2.88559964 166.573,3.00259964 C164.754,2.45759964 162.611,2.67559964 160.785,2.12959964 C160.234634,2.68684832 159.77656,3.32821955 159.428,4.02959964 C159.928,5.14759964 160.075,6.41159964 160.579,7.52959964 C161.008,8.18159964 161.039,9.42059964 162.166,9.29559964 Z M49.575,21.2275996 C50.456,21.2415996 51.21,21.5725996 52.091,21.5775996 C52.4130175,21.6959825 52.7539348,21.7546094 53.097,21.7505996 C53.597,22.2505996 54.107,21.5085996 54.608,21.7615996 C55.66,21.4535996 57.17,21.7465996 58.222,21.2055996 C59.3299784,20.6875764 60.2047255,19.7746728 60.675,18.6455996 L60.591,18.6455996 C60.491,18.5945996 60.508,18.4875996 60.509,18.3955996 C60.166,18.3025996 60.102,17.8605996 59.841,17.7265996 C59.341,17.0665996 58.427,17.1265996 57.746,17.1265996 C57.29817,17.3267394 56.8065928,17.4090132 56.318,17.3655996 C55.78,17.3655996 55.292,17.5585996 54.636,17.6025996 C52.41,17.5865996 49.917,17.5785996 48.91,19.8025996 C49.46,20.1455996 48.74,21.0715996 49.575,21.2275996 Z M50.767,7.10359964 C51.2419674,7.56385704 51.7759715,7.95897968 52.355,8.27859964 L52.606,8.27859964 C52.947,8.73759964 53.612,8.45159964 54.115,8.53859964 C54.5553509,8.76082104 55.0506293,8.85077694 55.541,8.79759964 C57.103,8.69759964 58.289,9.72259964 59.903,9.24359964 C60.443,8.93159964 61.489,9.34359964 61.588,8.50659964 C61.8406214,8.23798248 61.9655631,7.87372106 61.931,7.50659964 C62.311,7.14459964 62.89,7.22359964 63.196,6.68359964 C63.149,6.35159964 62.77,6.43259964 62.613,6.18359964 C62.659,5.55959964 62.15,5.05759964 62.458,4.43559964 C61.952,3.44359964 60.789,3.98459964 60.284,3.00759964 C60.143,2.80759964 59.784,3.07959964 59.699,2.75559964 C59.321,2.75559964 59.071,2.42659964 58.693,2.41559964 C57.783,1.69459964 56.412,2.07659964 55.338,1.72659964 C55.003,1.77459964 54.696,1.26559964 54.417,1.63859964 C53.7059953,1.45029153 52.9674378,1.38835018 52.235,1.45559964 C51.2645854,1.78165866 50.5910208,2.66640558 50.535,3.68859964 C49.894,4.18159964 50.073,5.02259964 49.598,5.59359964 C49.857343,5.90028225 50.0804814,6.23582882 50.263,6.59359964 C50.5254219,6.63139987 50.7299299,6.840416 50.762,7.10359964 L50.767,7.10359964 Z M89.296,32.0635996 C90.1571452,31.6292825 90.952387,31.0751047 91.658,30.4175996 C91.810508,29.4071766 91.7024258,28.3745449 91.344,27.4175996 C89.574,25.8825996 91.81,24.3945996 91.21,22.5955996 C90.7868946,22.0715859 90.1163528,21.8131281 89.451,21.9175996 C88.562,21.7785996 87.481,21.4385996 86.762,22.2315996 C86.383,22.5315996 85.922,22.2745996 85.503,22.2225996 C83.3807614,21.9519075 81.2303447,21.993009 79.12,22.3445996 C78.1880714,22.4848686 77.2811356,22.7583301 76.427,23.1565996 C75.877,23.8505996 74.914,23.5285996 74.157,23.7225996 C73.4997173,24.1402681 72.9493613,24.7060355 72.55,25.3745996 C71.607,26.9065996 70.62,28.7275996 71.25,30.6025996 C71.5375518,31.2801351 71.8987215,31.9240031 72.327,32.5225996 C72.29,33.0625996 71.653,32.8515996 71.316,33.0155996 C70.963,33.1375996 70.927,33.5025996 70.556,33.5915996 C70.5008751,34.7052909 70.3810059,35.814832 70.197,36.9145996 C69.4674104,38.0889486 68.3680886,38.9874023 67.072,39.4685996 C66.5422063,39.3384678 66.0533735,39.0778945 65.65,38.7105996 C65.1651113,38.8150919 64.6874559,38.950706 64.22,39.1165996 C64.4129241,39.4124098 64.4993358,39.7651108 64.465,40.1165996 C65.0927466,40.6667049 65.8355246,41.069527 66.639,41.2955996 C67.6307039,40.546804 68.7042517,39.9130753 69.839,39.4065996 C71.2576294,38.3175913 73.0179357,37.7698222 74.804,37.8615996 C75.2375952,37.6127637 75.5456587,37.1920826 75.652,36.7035996 C75.8188726,36.2123669 75.7924129,35.6760223 75.578,35.2035996 C75.633,34.5305996 74.878,34.1765996 74.666,33.6175996 C75.12,33.4175996 75.782,33.7085996 76.178,33.3785996 C78.411,33.6015996 80.547,33.0785996 82.731,32.9255996 C82.9739294,32.7815592 83.2832233,32.818019 83.486,33.0145996 C83.986,32.7025996 84.46,32.9305996 84.999,32.7755996 C85.5278383,32.6906213 86.0646666,32.666464 86.599,32.7035996 C87.053,32.6975996 87.45,32.3095996 87.86,32.4625996 C88.357,32.3895996 88.822,31.9675996 89.291,32.0625996 L89.296,32.0635996 Z M74.903,25.3115996 C75.396,25.5635996 75.695,24.8175996 76.078,25.3185996 C76.329,25.2865996 76.578,25.0185996 76.834,25.2405996 C77.34,24.9195996 78.254,25.0765996 78.934,24.9225996 C79.726,24.6375996 80.724,24.8515996 81.457,24.4405996 C82.8248924,24.4165362 84.1828344,24.2028328 85.492,23.8055996 C86.032,23.4345996 86.779,23.5645996 87.262,23.0695996 C87.579531,23.0357792 87.9000207,23.0955669 88.184,23.2415996 C87.978,23.8715996 88.544,24.4165996 88.337,25.1545996 C87.337,25.6125996 86.654,24.5925996 85.651,25.0545996 C85.485,24.7715996 85.314,25.2545996 85.151,24.9675996 C84.251,25.3025996 83.2,25.2775996 82.292,25.6135996 C82.209,25.3965996 82.124,25.6615996 82.039,25.6955996 C81.418,25.5245996 81.039,26.2205996 80.439,25.8505996 C79.967,26.1885996 79.22,26.0505996 78.673,26.0875996 C78.303,26.1355996 77.873,26.5145996 77.581,26.2465996 C76.7680518,26.6291664 75.8699446,26.7948701 74.974,26.7275996 C74.674,26.5925996 74.874,26.2605996 74.727,26.0595996 C74.775,25.9095996 74.594,25.4505996 74.898,25.3115996 L74.903,25.3115996 Z M87.713,30.3885996 C87.236,30.2355996 86.771,30.6405996 86.2,30.5455996 C86.0394852,30.5079815 85.8723327,30.5726985 85.779,30.7085996 C85.070553,30.6560925 84.358512,30.7354342 83.679,30.9425996 C83.496,30.4925996 83.215,31.0975996 83.007,30.8555996 C82.807,30.9375996 82.545,30.8435996 82.418,31.1005996 C81.199,31.1925996 79.883,31.0325996 78.887,31.6575996 C78.511,31.4805996 78.071,31.8685996 77.711,31.7335996 L76.45,31.9735996 C75.95,32.1535996 75.255,32.3315996 74.85,32.0455996 C74.936,31.7135996 74.65,31.1455996 75.109,31.0455996 C75.621,31.1235996 76.126,30.9195996 76.537,30.9725996 C76.991,30.8925996 77.38,30.4375996 77.882,30.7325996 C78.082,30.4015996 78.553,30.6965996 78.808,30.4905996 C80.608,29.8905996 82.724,30.0515996 84.524,29.4485996 C84.741,29.7325996 84.869,29.2765996 85.113,29.3695996 C86.246,29.4775996 87,28.4845996 87.974,28.3915996 C88.058,28.4745996 88.141,28.5595996 88.225,28.6425996 C88.052,29.2265996 88.631,30.4125996 87.708,30.3885996 L87.713,30.3885996 Z M88.15,27.9805996 C88.067,27.8145996 87.906,28.0135996 87.813,28.0625996 C87.266,28.3085996 86.901,27.6405996 86.389,27.5535996 C85.368,27.1305996 84.648,27.9535996 83.618,27.7845996 C81.732,28.2695996 79.742,28.4555996 77.818,28.8245996 C77.094,28.9525996 76.098,28.4725996 75.631,29.2245996 C75.252,29.3885996 75.348,28.9485996 75.214,28.8055996 C75.261,28.1055996 76.175,28.4305996 76.646,28.2345996 C77.173,28.3285996 77.607,27.6925996 78.073,28.1605996 C78.8173281,27.9010875 79.5759025,27.6843997 80.345,27.5115996 C82.868,27.0315996 85.545,26.9245996 87.911,26.0675996 C88.627,25.7975996 88.328,26.4945996 88.494,26.8195996 C88.494,27.2525996 88.139,27.6145996 88.145,27.9805996 L88.15,27.9805996 Z M61.282,27.9595996 C60.805,27.7825996 60.174,27.9595996 59.688,27.7825996 C59.108,27.9365996 59.053,28.5265996 58.507,28.6885996 C58.25,28.2465996 57.866,29.0165996 57.584,28.5165996 C57.1622953,28.4804884 56.7375864,28.5054118 56.323,28.5905996 C55.1885922,28.533326 54.0525925,28.6661578 52.962,28.9835996 C51.6756959,29.0004809 50.3996927,29.2156779 49.179,29.6215996 C48.545,29.0775996 47.586,29.2705996 46.747,29.1885996 C46.36,29.1525996 45.959,28.8885996 45.572,29.0975996 C45.266,29.5695996 45.446,30.2605996 45.392,30.8415996 C45.5285533,30.9325766 45.5939954,31.0989752 45.556,31.2585996 C45.8452715,32.5525378 46.2004001,33.8308676 46.62,35.0885996 C47.005,35.3995996 46.976,35.8815996 47.2,36.2575996 C47.145,36.7235996 47.581,36.9745996 47.78,37.3415996 C48.1640419,38.4090099 48.3550205,39.5362578 48.344,40.6705996 C48.377,40.7455996 48.302,40.7865996 48.258,40.8365996 C48.164,41.1675996 48.05,41.7155996 48.334,41.9995996 C49.042,41.6385996 49.234,40.9175996 49.605,40.3465996 C49.3950813,40.027094 49.3080427,39.6423478 49.36,39.2635996 C49.4606048,38.5966433 49.8676821,38.015263 50.46,37.6925996 C50.998,37.6205996 51.22,38.2545996 51.715,38.2835996 C52.3269437,38.1966665 52.9462334,38.1732085 53.563,38.2135996 C54.354,37.8785996 55.295,37.9015996 56.086,37.5655996 C56.254,37.3585996 56.64,37.6535996 56.76,37.3205996 C57.4918943,37.0969086 58.1976167,36.7951746 58.865,36.4205996 C58.976,36.0805996 59.74,36.0865996 59.459,35.5095996 C60.134,34.9495996 60.183,34.1355996 60.732,33.5235996 C60.819,33.1495996 61.248,32.9365996 61.243,32.5235996 C61.7820021,31.5414513 62.2385688,30.5162665 62.608,29.4585996 C62.96,28.5615996 61.693,28.5375996 61.275,27.9595996 L61.282,27.9595996 Z M58.547,34.7595996 C58.275,35.2975996 57.665,34.7705996 57.203,34.8325996 C56.11,34.9505996 55.03,34.5685996 54.096,34.8115996 C53.289,34.8975996 52.739,35.6255996 51.824,35.4605996 C51.595,35.8325996 51.27,35.4605996 50.984,35.4545996 C50.695,34.8035996 49.776,34.1145996 50.495,33.3725996 C51.243,33.3025996 51.8,32.8005996 52.515,32.6385996 C52.6760663,32.4377843 52.9355281,32.3433294 53.188,32.3935996 C53.638,32.9455996 54.315,32.0195996 54.866,32.5715996 C56.0791752,32.4759628 57.2565589,32.1151351 58.315,31.5145996 C58.347,31.8815996 58.615,32.2315996 58.391,32.5965996 C58.5585397,33.3039248 58.6095431,34.0338481 58.542,34.7575996 L58.547,34.7595996 Z M46.333,16.8015996 C47.505,17.1075996 48.733,16.5595996 49.857,16.9915996 C51.1631938,16.9010004 52.4579289,16.6873875 53.724,16.3535996 C54.601,15.9355996 55.624,15.8755996 56.501,15.4595996 C57.901,15.1105996 59.351,14.8955996 60.789,14.6595996 C61.925,14.3015996 63.358,14.6515996 64.321,13.8515996 C65.782,13.7515996 65.349,12.1295996 65.683,11.2015996 C65.3508437,10.435967 64.5955781,9.94083968 63.761,9.94159964 C63.1125776,9.74135324 62.4095544,9.82682166 61.828,10.1765996 C60.602,10.2105996 59.582,10.7435996 58.298,10.6505996 C58.046,10.6975996 57.75,10.9125996 57.541,10.8125996 C56.8224433,11.1137495 56.0239472,11.1665368 55.272,10.9625996 C53.795,10.9855996 52.094,10.4915996 50.822,11.0135996 C50.1628228,11.3302937 49.4509424,11.5228404 48.722,11.5815996 C47.5597757,12.0881815 46.3469488,12.4696622 45.104,12.7195996 C44.335,13.3545996 43.304,13.3805996 42.575,14.1195996 C42.15,14.6985996 41.36,14.8925996 41.475,15.6915996 C42.044,16.0615996 42.499,17.0195996 43.314,16.9515996 C44.315,16.4025996 45.315,17.3375996 46.327,16.7995996 L46.333,16.8015996 Z M60.639,23.8835996 C60.974,22.8045996 59.839,22.8965996 59.307,22.4605996 C58.8104112,22.5649802 58.3004119,22.5899571 57.796,22.5345996 C56.3877157,22.905326 54.9542361,23.1727039 53.507,23.3345996 C53.221,23.5085996 52.676,23.3205996 52.498,23.4945996 C51.4058529,23.6048596 50.331243,23.8479901 49.298,24.2185996 C48.1334837,24.5000529 47.0041222,24.9109432 45.931,25.4435996 C45.831,25.8255996 46.458,25.6965996 46.262,26.1115996 C46.9726475,26.9021974 47.9625847,27.3858719 49.023,27.4605996 C49.408,27.6385996 49.807,27.0845996 50.029,27.6335996 C50.401,27.2545996 50.989,27.3575996 51.46,27.2285996 C53.7912412,26.9604672 56.096832,26.5032954 58.354,25.8615996 C59.2013628,25.6198483 60.0000179,25.2320268 60.714,24.7155996 C60.68,24.4305996 60.792,24.1065996 60.633,23.8815996 L60.639,23.8835996 Z M250.275,5.50559964 C249.099,5.58159964 247.663,5.77959964 246.755,4.98359964 C246.633,5.48359964 246.101,5.65259964 245.655,5.72359964 C245.287,5.47159964 244.755,5.84159964 244.227,5.71359964 C242.51,5.24559964 240.485,5.52159964 238.604,5.42459964 C238.554,5.47459964 238.486,5.54059964 238.433,5.59059964 C237.161,5.36559964 236.133,5.99759964 234.909,5.64759964 C233.771,4.10359964 232.609,6.04759964 231.296,5.87259964 C231.084507,6.09303656 230.98895,6.40007685 231.038,6.70159964 C231.177112,6.81626671 231.290854,6.95861454 231.372,7.11959964 C231.02,8.08959964 231.407,9.37259964 230.677,10.1905996 C230.745882,10.9157487 230.683897,11.6473748 230.494,12.3505996 C230.654,13.3665996 230.439,14.2295996 230.977,15.0975996 C230.749,15.5525996 231.377,15.8565996 231.304,16.3475996 C232.089,17.0175996 232.346,18.5475996 233.641,18.3585996 C234.264,17.9965996 235.202,18.4035996 235.826,18.0405996 C238.706667,17.9365996 241.535,17.7072663 244.311,17.3525996 C244.941,17.4065996 245.447,16.9035996 246.075,17.1975996 C246.114,18.9975996 246.293,20.9735996 246.202,22.9345996 C246.284,23.4085996 246.567,23.7835996 246.278,24.2635996 C246.484,25.7285996 246.835,27.1535996 246.918,28.6755996 C246.882,29.2315996 247.318,29.7175996 247.075,30.2565996 C247.245114,31.0508088 247.351122,31.8574055 247.392,32.6685996 C247.365287,32.6975644 247.336906,32.7249444 247.307,32.7505996 C247.482779,33.9343571 247.530721,35.1335879 247.45,36.3275996 C247.781,36.8785996 247.487,37.3835996 247.691,37.9915996 C247.733496,38.5302555 247.842318,39.0616064 248.015,39.5735996 C248.045,39.9145996 248.264,40.1895996 248.175,40.5735996 C248.212,41.3145996 249.05,41.5855996 249.595,41.8305996 C250.05,41.4665996 250.656,41.3305996 250.946,40.7585996 C250.663,40.4155996 250.682,39.9585996 250.446,39.5915996 C249.873,37.6505996 251.563,36.1495996 250.991,34.1075996 C251.472,32.3325996 250.838,30.6165996 250.942,28.7875996 C250.826,27.5145996 251.212,26.3455996 250.97,25.1295996 L251.139,24.9645996 C251.182,23.5185996 251.083,22.0305996 251.253,20.6435996 C250.924,19.6855996 251.227,18.2655996 251.025,17.1505996 C251.031,16.2855996 251.04,15.1055996 251.046,14.2405996 C251.241548,13.9756989 251.276833,13.625158 251.138,13.3265996 C251.444,11.6425996 251.248,9.34559964 251.681,7.51159964 C251.84,6.58759964 250.905,5.96659964 250.269,5.50359964 L250.275,5.50559964 Z M246.008,15.0365996 C243.728,14.8125996 241.917,15.7145996 239.625,15.4905996 L239.457,15.6555996 L236.434,15.6335996 C236.12,16.0805996 235.834,15.4715996 235.426,15.6265996 C235.44,15.0865996 235.3,14.6035996 235.354,14.0465996 C236.9,13.8465996 238.469,13.9605996 240.14,13.8305996 C240.631,13.5005996 241.367,13.7975996 241.907,13.5935996 C242.982,13.3675996 243.88,13.4575996 244.768,12.7815996 C244.588,11.9995996 243.734,11.7525996 243.098,11.5235996 C242.393,11.1115996 241.637,11.5875996 240.832,11.4235996 C240.314,11.9235996 239.386,11.4465996 238.813,11.8235996 C237.704,11.9405996 236.683,11.5595996 235.623,11.8015996 C235.489853,11.2573976 235.465386,10.6922729 235.551,10.1385996 C236.570223,10.2232311 237.596298,10.1177752 238.577,9.82759964 L242.355,9.85359964 C243.618,9.36259964 244.771,10.1195996 246.133,9.87959964 C246.279671,11.5984764 246.236074,13.3282939 246.003,15.0375996 L246.008,15.0365996 Z M172.585,31.7295996 C172.298,31.9025996 171.864,31.7165996 171.577,31.8895996 C171.286,31.5705996 170.865,31.5275996 170.577,31.2175996 C170.364337,31.3252082 170.257191,31.5679619 170.321,31.7975996 C170.721,33.1215996 170.771,34.5765996 171.638,35.7135996 C171.664,36.6695996 172.598,37.4135996 173.387,37.8045996 C174.423,37.3215996 175.943,37.2565996 176.171,35.8285996 C175.684253,33.9757048 174.356759,32.4583052 172.585,31.7295996 L172.585,31.7295996 Z M148.624,36.0515996 C148.177796,34.9178626 147.354602,33.972478 146.293,33.3745996 C145.771,33.3745996 145.393,33.0275996 144.868,33.0335996 C144.473534,32.8274914 144.049498,32.6837848 143.611,32.6075996 C143.485,32.6405996 143.444,32.4895996 143.36,32.4395996 C143.207421,32.3564529 143.031591,32.32621 142.86,32.3535996 C141.126,31.7535996 138.679,31.1605996 137.315,32.8135996 C136.848,33.5495996 137.843,34.1055996 137.973,34.8135996 C138.021,35.1045996 138.516,35.1995996 138.387,35.5635996 C139.898667,36.6045009 141.432349,37.6130633 142.987,38.5885996 C143.907,39.1355996 144.732,39.9305996 145.918,39.8565996 C146.081671,39.7435217 146.177203,39.555466 146.172,39.3565996 C146.672,38.3125996 147.803,37.9565996 148.706,37.2965996 L148.706,37.0475996 C149.048,36.6695996 148.404,36.3825996 148.624,36.0515996 Z M177.429,11.8115996 C175.641,10.6265996 173.229,10.9175996 170.971,10.8515996 C170.092513,11.0689118 169.18095,11.1187814 168.284,10.9985996 C167.146007,11.2491745 165.99487,11.4358002 164.836,11.5575996 C163.279,11.9575996 161.565,12.0235996 160.044,12.5205996 C159.577,12.1765996 159.312,12.8155996 158.783,12.5955996 C157.47,13.2015996 155.7,12.8725996 154.824,14.3955996 C154.824,14.4865996 154.805,14.5955996 154.906,14.6455996 C154.686,14.8265996 154.659,15.1005996 154.481,15.3075996 C154.680945,15.6613213 154.766198,16.0683725 154.725,16.4725996 C154.68,16.8635996 155.082,16.9325996 155.307,17.1415996 C156.717,17.3095996 158.212,17.2115996 159.674,17.2555996 C160.16,17.4555996 160.113,18.0145996 160.253,18.4225996 C160.720057,19.3460572 161.246494,20.2382619 161.829,21.0935996 C161.633884,21.2979326 161.348675,21.3897413 161.071,21.3375996 C160.618,21.3925996 160.154,21.6975996 159.725,21.5785996 C159.304,21.8335996 158.716,21.7295996 158.294,21.9845996 C157.694,22.1125996 157.06,22.0505996 156.53,22.2215996 C156.574,23.0445996 156.33,23.9805996 157.016,24.5515996 C157.373,25.1855996 158.116,25.2325996 158.775,25.3105996 C159.134,25.4715996 159.448,24.9925996 159.698,25.4005996 C160.791,25.1755996 161.958,25.1175996 163.061,24.9255996 C163.179,24.9015996 163.302,25.1255996 163.396,24.9255996 C163.633847,24.8028655 163.916795,24.8047343 164.153,24.9305996 C164.021,25.5305996 164.397,26.0475996 164.14,26.5935996 C162.156,26.7385996 160.323,27.2405996 158.34,27.3845996 C158.024802,27.5701061 157.683725,27.7076157 157.328,27.7925996 C156.65,27.6225996 156.108,28.2835996 155.394,28.2785996 C154.373,28.8445996 153.106,28.8115996 152.029,29.2525996 C151.321,29.5805996 150.473,29.5325996 149.922,30.2355996 C149.762177,30.5624367 149.562308,30.8681181 149.327,31.1455996 C150.106,31.5575996 150.602,32.6085996 151.67,32.3255996 C153.776832,32.5144629 155.900035,32.3890928 157.97,31.9535996 C158.244,32.2805996 157.831,32.5255996 157.711,32.7835996 C157.323,34.1445996 155.956,35.0895996 154.833,35.9215996 C154.392,36.5505996 153.733,36.8795996 153.647,37.6595996 C153.94,37.7595996 154.105,38.1365996 154.397,38.2475996 C154.731453,38.7132003 155.009715,39.2166913 155.226,39.7475996 C155.553,39.8405996 155.69,39.5015996 155.984,39.5025996 C156.602745,39.3691206 157.247721,39.4320451 157.829,39.6825996 C158.246,39.0285996 159.046,38.6185996 159.436,38.1135996 C160.136,37.7135996 160.001,36.8215996 160.375,36.2075996 C161.036,35.2155996 161.062,33.9595996 161.74,32.9755996 C161.664,32.0525996 162.64,31.4605996 162.178,30.4855996 C162.835,30.1855996 163.655,29.5555996 164.364,30.1685996 C164.356,31.3405996 164.346,32.7115996 164.337,33.9915996 C164.194,34.0325996 164.319,34.1995996 164.167,34.2405996 C164.232,35.9405996 163.647,37.6775996 163.961,39.4765996 C164.253,39.9765996 163.661,40.9215996 164.454,41.1435996 C165.245185,41.3255829 166.076353,41.1488088 166.725,40.6605996 C166.936,39.2485996 167.006,37.7855996 167.343,36.4255996 C167.799097,35.5174002 168.090606,34.5355466 168.204,33.5255996 C168.704,32.6895996 168.311,31.3725996 168.56,30.5355996 C168.566231,30.1738147 168.541474,29.8121606 168.486,29.4545996 C168.569,29.3055996 168.729,29.3235996 168.823,29.2075996 C170.147,29.3735996 171.667,29.2775996 172.936,29.3195996 C173.901,29.5255996 173.807,28.4025996 174.372,27.9985996 C174.860418,27.4490687 175.313653,26.8692487 175.729,26.2625996 C175.358,25.2355996 174.275,25.1625996 173.387,24.9985996 C172.871,25.2985996 172.16,25.1055996 171.538,25.1515996 C171.159,25.4315996 170.605,25.2785996 170.192,25.4745996 C169.926,26.1055996 169.184,25.6255996 168.761,25.8805996 C168.478,25.4625996 168.969,25.0495996 168.687,24.6335996 C168.887,23.9025996 169.622,24.2985996 170.202,24.2275996 C170.720996,23.8232704 171.325849,23.5434229 171.97,23.4095996 C172.236,22.9035996 172.92,23.3835996 173.234,23.0035996 C173.975554,22.7128179 174.734326,22.4680204 175.506,22.2705996 C176.118,22.2085996 176.006,21.5705996 176.016,21.1115996 L175.264,20.6115996 C174.728,20.4005996 174.094,19.9385996 173.503,20.3505996 C173.219,20.2325996 172.903,20.2505996 172.665,20.0115996 C173.036834,19.479109 173.324533,18.8925817 173.518,18.2725996 C174.07,17.2785996 173.618,16.3945996 173.287,15.4435996 C173.741,15.2315996 174.176,15.3335996 174.632,15.0375996 C175.973,15.2475996 175.841,13.8375996 176.66,13.2225996 C177.161036,12.8444836 177.696762,12.5146773 178.26,12.2375996 C178.026577,12.0238848 177.739846,11.8770648 177.43,11.8125996 L177.429,11.8115996 Z M164.689,20.3685996 L164.353,20.3685996 C164.076,19.2845996 164.57,18.2085996 164.293,17.1255996 C165.034,16.8735996 165.914,16.9785996 166.647,16.7255996 C167.443766,16.7502269 168.239131,16.6431195 169.001,16.4085996 C169.17,17.4085996 168.977,18.5705996 169.146,19.5695996 C167.715,19.9655996 166.02,19.7215996 164.69,20.3685996 L164.689,20.3685996 Z M241.517,19.9085996 C241.176,19.4995996 240.578,19.6845996 240.179,19.4005996 C239.329,19.3115996 238.622,19.6395996 237.742,19.6325996 C237.235,19.8325996 236.517,19.5085996 236.142,20.0325996 C235.098,20.1585996 234.072,20.7995996 233.033,20.4265996 C232.104,20.9525996 231.233,20.0895996 230.262,20.4895996 C230.062,20.1235996 229.539,20.5185996 229.339,20.1505996 C227.526,20.2505996 226.039,19.5955996 224.22,19.7005996 C223.968,19.7895996 223.497,19.8955996 223.297,19.6105996 C222.909,19.8485996 222.358,19.4715996 222.036,19.7675996 C221.5018,19.7221751 220.963961,19.7463778 220.436,19.8395996 C218.088,19.6075996 216.654,21.6175996 214.874,22.7925996 C214.823,22.7435996 214.758,22.6765996 214.708,22.6265996 C214.871,22.2035996 214.58,21.6615996 214.8,21.2135996 C215.427,20.5445996 214.654,19.6085996 215.155,18.8885996 C215.392,18.5575996 215.6,18.9235996 215.911,18.8105996 C216.762291,18.6104337 217.637718,18.5323187 218.511,18.5785996 C219.135,18.2175996 220.072,18.6235996 220.696,18.2615996 C221.532,18.5745996 222.196,17.9055996 223.047,18.0285996 C223.470776,17.6071611 223.992809,17.2978591 224.566,17.1285996 C227.093,15.8915996 227.472,13.1585996 227.718,10.6665996 C227.854,9.22059964 227.68,7.66659964 228.918,6.68359964 C229.132,6.02059964 228.489,5.49159964 228.008,5.01559964 C228.06,4.51559964 227.423,4.43859964 227.258,4.09659964 C226.860374,4.29453489 226.435314,4.4317269 225.997,4.50359964 C224.757,5.16859964 223.323,6.15559964 221.79,5.38859964 C221.49,5.60259964 221.28,5.30959964 220.95,5.46659964 C220.701,5.21559964 220.262,5.42859964 220.029,5.12659964 C219.188834,5.08641169 218.346842,5.10880687 217.51,5.19359964 C217.367,5.01659964 217.072,5.19359964 216.923,5.02259964 C216.114383,5.25864877 215.326153,5.55962744 214.566,5.92259964 C214.056,5.52259964 213.172,5.99559964 212.807,5.24559964 C212.401172,5.2609726 212.007045,5.10788185 211.718,4.82259964 C211.593,4.78059964 211.409,4.65359964 211.298,4.82259964 C210.68,4.18659964 210.33,5.20559964 209.865,5.47659964 C209.801991,5.85231504 209.624588,6.19943788 209.357,6.47059964 C209.437,7.01159964 208.847,7.37059964 209.094,7.88159964 C208.546,8.21859964 209.128,9.03759964 208.581,9.37459964 C208.19,10.9685996 209.481,11.8905996 209.812,13.2075996 C210.218714,13.4827252 210.416775,13.9778783 210.312,14.4575996 C210.812,15.6325996 210.671,17.0575996 211.041,18.2865996 C210.967,21.3955996 210.752,24.5355996 210.805,27.5945996 C210.610688,28.0404685 210.577803,28.5401092 210.712,29.0075996 C210.499375,30.1893725 210.350824,31.3817808 210.267,32.5795996 L210.098,32.7445996 C210.228,33.4015996 209.871,33.8575996 209.751,34.4045996 C209.691,34.6705996 209.245,34.7835996 209.41,35.1505996 C209.197,35.6565996 208.746,35.2285996 208.401,35.3095996 C207.888,35.5465996 208.36,36.3565996 207.971,36.7195996 C208.093,38.5085996 209.242,39.8885996 209.871,41.4715996 C210.796,39.8565996 212.611,38.5975996 213.179,36.8395996 C213.721,36.0025996 213.495,34.8545996 214.037,34.0185996 C214.143,32.3985996 214.683,30.8385996 214.493,29.2005996 C214.531,28.5845996 214.803,27.8795996 214.593,27.3705996 C214.811,26.2255996 214.525,24.9935996 214.871,23.7985996 L216.288,24.9725996 C216.67,24.5675996 217.372,24.9545996 217.718,24.4835996 C218.257,24.4835996 218.88,24.1515996 219.318,24.4125996 C219.891,25.2975996 220.764,26.3765996 220.218,27.4125996 C220.252338,27.9245348 220.162095,28.4371658 219.955,28.9065996 C219.651738,29.8031473 219.394733,30.7146818 219.185,31.6375996 C219.185,31.8785996 218.838,32.0835996 219.013,32.3005996 C219.665,32.6475996 220.349,33.3835996 221.108,32.9805996 C221.808,32.5805996 221.671,31.6885996 222.045,31.0805996 C224.407,30.5975996 227.025,30.7405996 229.438,30.3805996 C229.683,30.3335996 229.892,30.1105996 230.109,30.3855996 C230.6,29.9725996 231.337,30.1855996 231.875,29.8985996 C232.512,29.9985996 233.147,29.5745996 233.809,29.4985996 C234.234,29.9745996 234.043,30.8305996 233.963,31.4115996 C233.634035,31.7897938 233.189933,32.0494392 232.699,32.1505996 C230.893,32.1705996 229.285,32.6605996 227.488,32.6965996 C226.235541,32.7781637 224.995268,32.9923623 223.788,33.3355996 C222.477,33.4845996 221.314,33.9915996 220.002,34.1355996 C219.884,34.4355996 219.548,34.2475996 219.33,34.2965996 C219.075,34.6275996 218.442,34.9555996 218.399,35.4535996 C218.881945,35.8995931 219.450434,36.2428635 220.07,36.4625996 C221.007,35.9795996 222.198,36.0955996 223.182,35.7355996 C224.072,35.5755996 224.982,35.4165996 225.872,35.2555996 C227.172,34.8245996 228.672,35.1255996 230.072,34.7035996 C231.547,34.9225996 233.143,33.8935996 234.351,34.9835996 C234.129287,36.2728534 234.036163,37.5809395 234.073,38.8885996 C233.851,39.2525996 234.116,39.8365996 234.146,40.3015996 C234.291,41.2755996 235.359,40.7675996 235.903,41.1455996 C235.921,39.7905996 236.835,38.8235996 237.103,37.5795996 C237.314,37.1315996 237.025,36.4725996 237.364,36.0845996 C237.074,35.6165996 237.655,35.2845996 237.457,34.7545996 C237.54,34.6395996 237.652,34.4325996 237.543,34.3405996 C237.443,34.1065996 237.372,33.6825996 237.634,33.5095996 C237.631039,32.7856489 237.691941,32.0628478 237.816,31.3495996 C237.168,29.2005996 238.673,27.7385996 238.529,25.7005996 C238.496,25.6675996 238.479,25.6505996 238.444,25.6175996 C238.695,24.7875996 238.299,23.6795996 238.801,22.9595996 C239.875167,22.8316693 240.835304,22.2286477 241.417,21.3165996 C241.245,20.7535996 242.175,20.3615996 241.518,19.9085996 L241.517,19.9085996 Z M216.232,10.1715996 C216.851,10.4585996 217.082,9.58659964 217.658,10.0155996 C219.726,9.83059964 221.858,9.78759964 223.876,9.47659964 C224.284,9.86159964 224.237,10.4355996 224.284,10.9765996 C224.284,11.0925996 224.284,11.1925996 224.284,11.3085996 C222.942,11.4575996 221.484,11.3395996 220.084,11.3625996 C219.601,11.9745996 218.857,11.1965996 218.317,11.6825996 C217.439521,11.7503048 216.56839,11.8840165 215.711,12.0825996 C216.14,11.3375996 214.805,10.1195996 216.234,10.1715996 L216.232,10.1715996 Z M216.122,13.5795996 C217.049,13.2125996 217.798,13.9655996 218.722,13.5975996 C219.101,13.2855996 219.486,13.7195996 219.981,13.5235996 C220.635,13.8605996 221.201,13.2405996 221.829,13.5355996 C222.441,13.5905996 222.839,13.1275996 223.429,13.1355996 C223.801,12.8965996 224.223,12.5495996 224.691,12.8105996 C224.525,13.7655996 224.208,14.6525996 224.083,15.6325996 C223.757475,15.7553204 223.398042,15.753183 223.074,15.6265996 C220.497622,15.4042816 217.90373,15.4976402 215.35,15.9045996 C215.291,15.7465996 215.131,15.8535996 215.015,15.8195996 C215.106,14.9515996 215.808,14.3375996 216.123,13.5795996 L216.122,13.5795996 Z M224.195,23.6935996 C225.81,24.1705996 227.27,23.2755996 228.982,23.4775996 C229.352,23.4145996 229.73,23.1185996 230.075,23.2365996 C230.395,22.9075996 230.965,23.2005996 231.337,22.9965996 C232.213787,22.7417464 233.115188,22.580842 234.026,22.5165996 C233.926,23.1475996 234.194,23.6315996 234.098,24.2615996 C234.147,24.4045996 234.003,24.4695996 234.011,24.5925996 C232.949758,24.6748826 231.884638,24.695584 230.821,24.6545996 C229.583,25.0285996 227.977,24.5425996 226.788,25.0415996 C225.562,24.9915996 224.543,25.4415996 223.261,25.2665996 C223.518,24.7195996 223.365,23.7035996 224.197,23.6925996 L224.195,23.6935996 Z M234.154,28.0045996 L226.088,28.6965996 C225.466,29.0235996 224.578,28.7265996 223.905,28.9285996 C223.516,29.2765996 222.888,29.0225996 222.475,29.3345996 C222.092,28.7595996 222.81,28.2235996 222.575,27.5065996 C223.022,27.3065996 223.363,27.5955996 223.753,27.2665996 C223.953,27.2345996 224.239,27.3665996 224.342,27.1045996 C225.392,27.1605996 226.318,26.6605996 227.366,26.9585996 C228.207,26.5985996 229.043,27.0035996 229.886,26.6445996 L232.825,26.6655996 C233.171,26.5015996 234.203,26.2165996 234.167,26.9235996 C233.91,27.2865996 234.286,27.5885996 234.156,28.0035996 L234.154,28.0045996 Z M203.061,20.0555996 C202.72,19.8045996 202.305,20.1845996 201.971,19.9655996 C201.718,20.2125996 201.519,19.8375996 201.216,19.9605996 C197.76,20.3935996 193.994,20.0755996 190.383,20.1345996 C188.267,20.1275996 186.132,20.3875996 184.167,20.5065996 C183.874,20.4715996 183.661,21.0065996 183.411,20.5845996 C183.343,19.6445996 182.534,18.9085996 182.843,17.9215996 C182.52,17.2865996 182.863,16.3085996 182.102,15.9215996 C181.888,15.1785996 182.773,15.9585996 183.111,15.5955996 C183.571,15.8955996 184.157,16.2185996 184.363,16.7685996 C185.28,16.8585996 185.945,16.3215996 186.803,16.2865996 C187.472353,15.8386786 188.212371,15.5067013 188.992,15.3045996 C189.898,15.3945996 190.724,14.8505996 191.681,14.8245996 C192.599,14.6145996 193.481,14.2955996 194.375,14.0125996 C194.882,13.5675996 195.638,13.5645996 196.06,13.1125996 C196.818097,12.6376164 197.525173,12.0856951 198.17,11.4655996 C198.599,11.3105996 199.046,11.1725996 199.101,10.6405996 C198.974,9.45059964 198.355,8.01659964 197.106,7.71759964 C196.76618,7.41554217 196.367957,7.18647859 195.936,7.04459964 C193.928676,6.5881861 191.828081,7.20251459 190.383,8.66859964 L190.046,8.66859964 C189.152892,9.2548181 188.072481,9.48495835 187.018,9.31359964 C186.44356,9.54675718 185.852602,9.73694653 185.25,9.88259964 C183.909,10.8705996 182.35,11.3335996 181.117,12.5965996 C180.675,13.3505996 179.9,13.7525996 179.843,14.6665996 C179.506,14.9135996 179.843,15.1235996 179.586,15.4125996 C178.753,15.7475996 177.595,15.6395996 177.143,16.5585996 C177.185169,17.1246503 177.293576,17.6838026 177.466,18.2245996 C177.258,19.2615996 178.161,19.8495996 177.951,20.8885996 C177.472,22.1405996 178.551,23.3945996 177.924,24.7105996 C178.286,25.7685996 177.874,27.1395996 178.235,28.2055996 C177.93,28.5935996 178.111,29.2055996 178.057,29.7005996 C178.47219,31.6402788 178.571468,33.6342722 178.351,35.6055996 C178.383,35.6385996 178.401,35.6545996 178.434,35.6885996 C177.803,37.1135996 178.488,38.6325996 179.334,39.7675996 C179.661,39.6785996 179.723,39.3225996 179.926,39.1075996 C180.273,37.4965996 181.226,36.1405996 181.806,34.6315996 C181.855425,34.1478349 181.971873,33.6732916 182.152,33.2215996 C182.492099,31.5541695 182.644714,29.8539428 182.607,28.1525996 C182.707,27.1525996 182.613,26.0745996 183.8,25.7525996 C184.216,25.2145996 185.115,25.2385996 185.736,25.2675996 C186.918207,25.2011764 188.095938,25.0706512 189.264,24.8765996 C190.235,25.2765996 189.455,26.5325996 189.92,27.2085996 C189.823967,28.0640191 189.790545,28.9253106 189.82,29.7855996 C190.088,32.1485996 189.584,34.4855996 189.853,36.8515996 C189.71,38.2795996 189.578,40.0665996 190.753,40.9315996 C191.414,41.2685996 191.962,41.8465996 192.761,41.8605996 C193.361,41.1915996 193.051,40.1325996 193.617,39.4545996 C194.087206,37.1857339 194.300881,34.8712024 194.254,32.5545996 C194.773,31.6355996 194.305,30.2855996 194.696,29.3165996 C194.732,27.8625996 194.696,26.4995996 194.643,24.9095996 C195.159,24.4225996 196.038,24.8275996 196.662,24.5915996 C196.695,24.6245996 196.713,24.6415996 196.745,24.6745996 C196.914,24.4605996 197.154,24.8435996 197.334,24.5965996 C198.233249,24.5334994 199.136904,24.5957624 200.019,24.7815996 C200.834275,24.6742037 201.662949,24.7365075 202.453,24.9645996 C203.969,25.4735996 204.57,23.6995996 205.489,22.9075996 C206.289,22.0165996 205.462,20.9705996 205.258,20.0785996 C204.533068,19.9453578 203.790672,19.9372405 203.063,20.0545996 L203.061,20.0555996 Z M138.854,28.2555996 C138.639,27.8385996 138.911,27.4245996 138.947,27.0095996 C138.667,26.2595996 139.159,25.5095996 138.879,24.7635996 C138.894,23.8815996 140.324,23.4775996 139.735,22.4425996 C139.498651,21.6734179 139.103462,20.9624188 138.575,20.3555996 L138.659,20.2735996 C138.187,19.4965996 137.109,19.7795996 136.312,19.5905996 C135.37,22.2785996 133.231,19.7025996 131.522,20.1395996 C129.001,20.4955996 126.601,20.3545996 124.128,20.8395996 C122.984,20.9985996 121.828,21.1565996 120.683,21.3135996 C120.29,20.9955996 119.992,21.7005996 119.591,21.3895996 C117.991,21.6445996 116.141,22.3965996 115.542,24.0215996 C115.463081,24.5894277 115.318444,25.1461616 115.111,25.6805996 C115.194,26.8375996 114.291,27.5625996 114.249,28.6675996 C114.988418,29.7785029 115.573123,30.9849187 115.987,32.2535996 C116.387,32.5485996 116.35,33.1715996 116.904,33.2535996 C117.641353,33.485282 118.441406,33.1813858 118.839,32.5185996 C119.439,31.9745996 120.183,32.5355996 120.939,32.3665996 C121.662,32.3395996 122.066,32.0755996 122.787,32.2975996 C124.430674,32.0985216 126.087237,32.0263082 127.742,32.0815996 C128.031,31.6685996 128.421,32.2035996 128.751,31.9225996 C130.894,31.5555996 133.612,32.0485996 135.806,31.5555996 C136.875,30.4005996 138.091,29.6095996 138.856,28.2515996 L138.854,28.2555996 Z M135.607,24.3255996 C135.235,24.7795996 135.969,25.4155996 135.513,25.9035996 C135.713,26.4385996 135.128,26.7665996 135.419,27.2345996 C135.337,28.1485996 134.896,28.8925996 134.813,29.8075996 C134.151,29.6275996 133.603,29.9975996 132.968,29.6275996 C128.55,29.8955996 124.057,30.0145996 120.109,31.4495996 C119.859,31.2065996 120.23,31.0345996 120.197,30.7855996 C120.21,30.2535996 119.964,29.6615996 120.297,29.2055996 C121.088,28.8775996 121.808,29.1735996 122.649,28.9735996 C124.329,28.8175996 126.166,29.0395996 127.691,28.5095996 C128.161,28.6875996 128.624,28.3495996 129.12,28.3525996 C129.386848,28.2306866 129.693923,28.2328826 129.959,28.3585996 C130.8,28.1725996 131.567,27.8375996 132.4,27.6275996 C132.871,27.3475996 132.269,27.0195996 132.069,26.8775996 C131.307,26.5155996 130.188,26.8645996 129.469,26.6105996 C128.619617,26.6787869 127.776773,26.8125185 126.948,27.0105996 C125.291828,27.0284388 123.648013,27.2981931 122.073,27.8105996 C121.484,28.0305996 120.819,28.1005996 120.222,28.2955996 C119.456,28.3245996 119.943,27.4125996 119.812,26.9625996 C121.762719,26.7210787 123.698897,26.3739018 125.612,25.9225996 C127.226392,25.6581132 128.853142,25.4755461 130.486,25.3755996 C130.52,25.4085996 130.535,25.4255996 130.569,25.4585996 C131.19171,25.3455322 131.789977,25.1249041 132.337,24.8065996 C131.863,24.2295996 130.995,24.5395996 130.41,24.2065996 C130.115,24.4455996 129.891,24.0065996 129.571,24.0345996 C127.887568,23.6973365 126.143848,23.8287814 124.53,24.4145996 C124.059,24.5275996 123.679,24.8745996 123.1,24.7365996 C122.368,25.0715996 121.487,25.0495996 120.745,25.3865996 C120.31,25.1865996 119.69,26.1435996 119.653,25.3785996 C119.858,24.9135996 119.545,24.0785996 120.253,23.9685996 C121.095,23.6005996 122.153,23.7325996 122.945,23.2395996 C123.036,23.3395996 123.245,23.2395996 123.365,23.1595996 C123.996901,23.1843678 124.626928,23.075672 125.214,22.8405996 C128.366,22.4055996 131.386,22.7675996 134.536,22.5735996 C134.824,22.3425996 135.852,21.7015996 135.711,22.6645996 C135.869,23.2925996 135.386,23.7545996 135.609,24.3225996 L135.607,24.3255996 Z M99.441,9.52559964 C99.307,9.55759964 99.106,9.44859964 99.021,9.60559964 C98.653,9.34559964 98.132,9.44159964 97.764,9.18159964 C96.791,9.09259964 95.801,9.00159964 94.828,8.91159964 C94.528,8.58559964 94.228,8.99159964 93.906,8.73959964 C93.315,9.05959964 92.9,8.49159964 92.311,8.56159964 C91.1102226,8.66636191 89.9035225,8.68574397 88.7,8.61959964 C88.438,8.94159964 88.071,8.53259964 87.692,8.61259964 C86.792,8.93859964 85.626,8.63959964 84.668,8.84059964 C84.575,8.72459964 84.416,8.73059964 84.333,8.58959964 C84.2775741,8.26149095 84.3726833,7.92585458 84.592,7.67559964 C85.769,7.40059964 87.152,7.64359964 88.124,6.86959964 C88.972,6.87559964 89.624,6.01559964 90.066,5.38659964 C89.441,4.71759964 89.103,3.70959964 88.066,3.62659964 C87.174,3.78659964 86.685,2.98559964 85.802,3.11259964 C85.343,2.68559964 84.528,2.86259964 83.956,2.93359964 C83.787,3.02359964 83.4,3.13359964 83.284,2.84559964 C83.384,2.01559964 82.8,1.44559964 82.544,0.762599642 C81.865,0.648599642 81.444,-0.037400358 80.703,0.00159964199 C79.968,0.459599642 79.167,0.901599642 79.01,1.81759964 C78.763,2.29059964 79.161,3.02459964 78.663,3.39459964 C78.478,3.38459964 78.268,3.43459964 78.163,3.22559964 C77.4825498,3.27142473 76.8075424,3.37784631 76.146,3.54359964 C75.5,3.29859964 74.546,3.57459964 73.795,3.36159964 C73.162,3.85659964 72.311,4.31559964 72.02,5.09459964 C71.438,5.47359964 71.575,6.16359964 71.085,6.58459964 C71.341,7.17659964 71.903,7.43859964 72.25,8.00559964 C72.818,8.58359964 73.424,8.27159964 74.094,8.60059964 C74.7473899,8.3474435 75.4234572,8.15724724 76.113,8.03259964 C76.377,7.52759964 77.063,8.00659964 77.376,7.62659964 C78.076,8.09659964 78.72,7.46059964 79.476,7.55759964 C79.346,8.10559964 80.098,8.68459964 79.465,9.05759964 C78.273942,8.94039652 77.0715371,9.07358074 75.935,9.44859964 C73.166,9.17959964 70.851,10.0365996 68.535,10.8935996 C67.55,11.4185996 66.1,12.2645996 65.998,13.5355996 C65.911,14.0005996 66.423,13.9295996 66.666,14.1225996 C67.3809506,13.9243871 68.1121974,13.7905204 68.851,13.7225996 C72.786,14.2825996 75.811,12.6225996 79.275,12.0495996 C79.8117065,11.586768 80.5746645,11.4935703 81.207,11.8135996 C83.207,11.9685996 84.892,12.1215996 86.829,12.4345996 C86.921,12.4855996 87.079,12.6855996 87.164,12.5195996 C88.202,12.9515996 89.394,13.0255996 90.432,13.4575996 C91.983,13.5505996 92.953,14.2655996 94.454,14.4835996 C95.2870717,14.5242275 96.1082039,14.698448 96.886,14.9995996 C98.715032,15.1231723 100.521791,14.5404853 101.934,13.3715996 C102.196248,12.5616427 102.821719,11.9206358 103.625,11.6385996 C102.850643,10.9468659 102.013716,10.328544 101.125,9.79159964 C100.619,9.57159964 99.893,9.85659964 99.444,9.52259964 L99.441,9.52559964 Z M98.175,34.9515996 C97.041,33.8365996 95.364,33.6595996 93.821,33.3405996 C92.8098642,33.0665657 91.768487,32.9197651 90.721,32.9035996 C89.988,33.3475996 88.821,32.9325996 88.363,33.8855996 C88.393,34.3165996 88.845,34.5955996 89.027,34.9705996 C90.258,36.6415996 91.959,37.1705996 93.368,38.4085996 C93.668,38.6685996 94.149,38.5475996 94.368,38.9975996 C95.1827634,39.3662833 96.0221095,39.6780308 96.88,39.9305996 C97.6990348,40.3623979 98.6835648,40.3377847 99.48,39.8655996 C99.78,38.9655996 99.022,38.2335996 98.572,37.6145996 C98.3573047,36.7411781 98.2243978,35.8496638 98.175,34.9515996 Z M89.636,19.5955996 C90.207,19.5575996 91.145,19.7635996 91.487,19.1095996 C91.772102,18.5534708 92.0009059,17.9702387 92.17,17.3685996 C92.225,16.7775996 92.879,16.9325996 93.27,16.7945996 C93.57,16.3305996 94.23,16.3845996 94.37,15.8875996 C94.0120418,15.7026176 93.6765105,15.4771406 93.37,15.2155996 C92.941,15.2705996 92.735,14.7705996 92.282,14.8755996 C91.83,14.5755996 91.157,14.7505996 90.603,14.6975996 C90.3160227,14.3283877 89.8954842,14.0866948 89.432,14.0245996 C88.8829125,13.8245797 88.3234327,13.6543322 87.756,13.5145996 C85.8782027,13.4779615 83.9998406,13.5480746 82.13,13.7245996 L82.035,13.6375996 C81.85,13.6445996 81.635,13.5925996 81.529,13.7995996 C80.7168458,13.7587704 79.90275,13.7808363 79.094,13.8655996 C79.053,13.7165996 78.885,13.8395996 78.843,13.6975996 C78.3753512,13.8867798 77.897626,14.0500276 77.412,14.1865996 C76.4373987,14.23924 75.4750102,14.4284189 74.553,14.7485996 C74.099,14.8625996 73.617,15.3745996 73.207,15.0725996 C72.797,13.7135996 71.265,14.2845996 70.19,14.1355996 C69.374,14.3355996 69.49,15.2195996 69.004,15.7065996 C69.696,16.5425996 70.665,17.0485996 71.171,17.9665996 C72.1898089,18.6014719 72.8390561,19.6895105 72.914,20.8875996 C73.314,21.2985996 73.142,21.9205996 73.575,22.3055996 C73.9377416,22.2734446 74.2720743,22.0959994 74.502,21.8135996 C75.334,21.7695996 75.122,20.8535996 75.519,20.4075996 C76.016518,20.7037031 76.5516659,20.9314185 77.11,21.0845996 C78.1989657,21.3522622 79.3443577,21.2728959 80.386,20.8575996 C80.747,20.7265996 81.055,21.1705996 81.31,20.7805996 C82.1243286,20.7953468 82.938545,20.7455241 83.745,20.6315996 C84.3018242,20.6217662 84.849057,20.484958 85.345,20.2315996 C86.4455822,20.2011979 87.495861,19.7640567 88.293,19.0045996 C88.456,18.5235996 88.079,18.3545996 87.793,18.0875996 C87.293,17.7875996 86.568,17.9955996 86.118,17.5765996 C86.172,16.9955996 85.992,16.3035996 86.297,15.8325996 C87.354,15.9325996 88.365,15.6725996 89.32,15.7695996 C89.431902,16.4571142 89.4834319,17.1531017 89.474,17.8495996 C89.775,18.3245996 89.585,19.1875996 89.632,19.5955996 L89.636,19.5955996 Z M78.136,19.3485996 C77.676,19.0485996 77.336,19.5485996 76.875,19.5065996 C76.256,19.2065996 74.975,20.1745996 75.369,18.8315996 C75.0983827,18.3354946 74.9038763,17.801529 74.792,17.2475996 C75.871,16.8475996 77.185,17.0895996 78.156,16.4395996 C78.307,16.5565996 78.493,16.2505996 78.745,16.3605996 C78.7034826,17.1095013 78.7262326,17.8605836 78.813,18.6055996 C78.847,19.0545996 78.451,19.1925996 78.131,19.3485996 L78.136,19.3485996 Z M82.594,18.1325996 C81.956,18.4105996 81.125,18.2385996 80.494,18.5325996 C79.945,17.8955996 80.894,17.2545996 80.34,16.6185996 C80.355,15.6705996 81.626,16.3695996 82.191,16.0495996 C82.605,15.5955996 83.122,16.1885996 83.279,16.4725996 C82.926,16.9715996 83.687,18.3895996 82.588,18.1375996 L82.594,18.1325996 Z M113.55,33.7325996 C113.35,33.6975996 113.166,33.4325996 112.963,33.6455996 C112.002,33.1315996 111.139,33.8825996 110.273,34.1255996 C109.445777,34.4665254 108.863813,35.2235351 108.747,36.1105996 C110.147,37.2335996 110.575,38.8995996 112.247,39.5425996 C113.808,39.5295996 114.19,37.8605996 115.287,37.0705996 C115.596,36.0705996 117.087,35.4615996 116.651,34.2535996 C115.821,33.5765996 114.636,33.7785996 113.545,33.7285996 L113.55,33.7325996 Z M109.767,22.5675996 C110.217,21.9675996 111.248,22.1945996 111.203,21.2465996 C111.955,20.5115996 112.693,19.6695996 112.397,18.5955996 C112.655,17.8565996 113.577,18.0135996 114.085,17.5255996 C115.245,17.2925996 116.101,16.3345996 117.367,16.3845996 C117.955,16.3845996 118.596,16.0195996 119.13,16.3975996 C118.83,16.9345996 119.454,18.1445996 118.362,18.0535996 C117.632,17.9995996 116.999,18.4605996 116.345,18.3735996 C116.007,18.7035996 115.487,18.5665996 115.166,18.9465996 C114.203221,19.1490897 113.389815,19.7887221 112.966,20.6765996 C112.929,21.1425996 113.494,20.9465996 113.634,21.3475996 C114.302,21.8595996 114.861,21.1395996 115.483,21.0275996 C118.118,20.1645996 121.572,20.7875996 124.307,19.9275996 C124.792,20.1555996 125.182,19.6845996 125.735,19.8545996 C126.014,19.6405996 126.357,19.7675996 126.66,19.5285996 C127.756999,19.5116345 128.841594,19.2936987 129.86,18.8855996 C130.783,18.9245996 131.78,18.1175996 132.8,18.6565996 C133.018,18.6565996 133.307,18.2865996 133.472,18.6565996 C135.118,18.7015996 136.832,18.6055996 138.425,18.7745996 C139.517,18.7315996 140.764,19.2975996 141.7,18.6305996 C141.682337,18.2294793 141.924365,17.8624031 142.3,17.7205996 C142.81,16.7345996 143.986,16.6435996 144.748,15.9085996 C145.933,15.7085996 146.428,14.5575996 147.031,13.6795996 C147.453,12.3275996 148.609,11.2885996 148.654,9.78459964 C148.604,9.73359964 148.537,9.66659964 148.486,9.61659964 C147.524,9.21059964 146.378,8.57959964 145.299,9.17859964 C144.846,9.19259964 144.363,9.63759964 143.784,9.57859964 C143.554,10.1175996 143.574,10.7585996 143.184,11.2365996 C143.021,11.6425996 142.626,11.4915996 142.258,11.4805996 C142.174,11.4465996 142.092,11.1805996 142.007,11.3945996 C141.553028,11.2070041 141.0726,11.091283 140.583,11.0515996 C140.046,10.7905996 139.358,10.8855996 138.822,10.6235996 C137.522,10.7735996 135.916,10.6535996 134.455,10.6775996 C133.445,11.0445996 132.22,10.9115996 131.255,11.4025996 C130.115,11.2615996 129.135,12.0025996 128.064,11.5455996 C129.278708,10.6961996 130.548131,9.92786438 131.864,9.24559964 C132.795,9.20259964 133.406,8.34559964 134.387,8.43259964 C134.774,8.39359964 134.963,7.85459964 135.399,7.94059964 C136.024665,7.42648621 136.591756,6.8449749 137.09,6.20659964 C136.919129,5.90697964 136.655074,5.67136689 136.338,5.53559964 C134.862,5.40059964 133.597,4.76859964 132.061,4.75759964 C131.81,4.72359964 131.561,4.45759964 131.307,4.67059964 C130.807,4.20059964 130.349,4.83859964 129.796,4.74259964 C129.762,4.65859964 129.496,4.57459964 129.712,4.49159964 C130.077,4.03759964 129.45,3.75859964 129.302,3.40859964 C128.862841,1.83873435 127.678061,0.586242536 126.135,0.060599642 C125.462,0.229599642 125.087,0.960599642 124.697,1.46059964 C123.979,2.21259964 124.644,3.23859964 124.426,4.20159964 L124.257,4.36659964 C123.936579,4.15307854 123.550076,4.06186511 123.168,4.10959964 C121.654,4.42159964 119.924,4.46859964 118.46,4.65759964 C117.998763,4.70048322 117.546112,4.80960448 117.116,4.98159964 C116.623341,5.05192416 116.142369,5.18814351 115.686,5.38659964 C115.059,6.17159964 113.786,6.42859964 113.739,7.53559964 C113.639,8.16659964 113.175,8.96059964 113.639,9.52959964 C114.837504,10.2500539 116.134886,10.791444 117.49,11.1365996 C119.407,10.8585996 121.512,11.0815996 123.37,10.6785996 C123.875,10.4785996 124.595,10.7695996 125.051,10.4405996 C125.292,10.8585996 125.641,11.3345996 125.377,11.8575996 C125.026,11.7575996 124.704,12.0265996 124.453,11.9335996 C121.963,12.5815996 119.084,12.5785996 116.553,12.8755996 C115.280365,12.8175786 114.006162,12.9486721 112.772,13.2645996 C112.486,13.2135996 112.164,13.7265996 112.016,13.3435996 C112.235,13.1695996 111.985,12.9775996 111.852,12.8435996 C110.898591,12.4613639 109.91868,12.1488753 108.92,11.9085996 C108.621052,11.8114843 108.310826,11.7533378 107.997,11.7355996 C107.565,12.2355996 107.325,11.6555996 106.819,11.9765996 C105.9856,12.3540048 105.407845,13.136965 105.293,14.0445996 C105.647345,14.9263247 105.64016,15.9121334 105.273,16.7885996 C105.849,18.5055996 108.689,18.2335996 108.522,20.4695996 C108.811,21.1695996 108.594,22.0695996 109.009,22.7165996 C109.297,23.0245996 109.468,22.5185996 109.762,22.5625996 L109.767,22.5675996 Z M134.093,14.0075996 C135.938,14.4285996 138.064,14.2075996 139.793,14.8785996 C140.620778,14.8970694 141.440753,15.0431201 142.224,15.3115996 C142.169,15.8505996 141.68,16.2115996 141.542,16.7195996 C141.108879,16.6664748 140.685589,16.5516443 140.285,16.3785996 C138.606,16.3585996 137.047,16.0785996 135.418,15.9285996 C134.66,16.3285996 133.849,15.8425996 132.983,15.9955996 C133.265,15.2865996 133.381,14.3725996 134.087,14.0035996 L134.093,14.0075996 Z M122.498,15.1745996 C123.675,14.9745996 125.066,15.2745996 126.198,14.9505996 C127.675,15.1685996 129.008,14.2635996 130.484,14.4815996 C130.449,14.6215996 130.684,14.6655996 130.649,14.8145996 C130.477,15.3455996 130.681,16.0955996 130.135,16.3905996 C129.459157,16.3134439 128.774822,16.3646758 128.118,16.5415996 C127.481792,16.4241448 126.83294,16.3905255 126.188,16.4415996 C125.77,16.2215996 125.271,16.6005996 124.845,16.3485996 C124.156497,16.5202747 123.453425,16.6270746 122.745,16.6675996 C122.61,16.6325996 122.408,16.7395996 122.326,16.5815996 C122.494,16.1675996 121.937,15.4575996 122.493,15.1705996 L122.498,15.1745996 Z M293.656,20.4075996 C292.958,21.444933 292.324667,22.369933 291.756,23.1825996 C291.243864,23.9189918 290.691701,24.6267227 290.102,25.3025996 C289.612196,25.867063 289.062277,26.3764092 288.462,26.8215996 C287.812885,27.2415667 287.114228,27.579475 286.382,27.8275996 C285.606444,28.1094159 284.801218,28.3016636 283.982,28.4005996 C282.928242,28.5280235 281.867403,28.5878126 280.806,28.5795996 L280.393,28.5795996 L280.393,31.5055996 L280.806,31.5055996 C282.110182,31.5171563 283.413517,31.4352802 284.706,31.2605996 C285.741405,31.1185808 286.758568,30.8657987 287.74,30.5065996 C288.600443,30.1859476 289.412715,29.7485185 290.154,29.2065996 C290.869709,28.6719771 291.529411,28.0662172 292.123,27.3985996 C292.77015,26.6682276 293.373537,25.9002201 293.93,25.0985996 C294.519333,24.255933 295.157,23.3195996 295.843,22.2895996 L296.103,21.9005996 L293.849,20.1125996 L293.656,20.4075996 Z M287.239,17.2875996 L279.775,17.2875996 L279.775,19.8815996 L287.231,19.8815996 L287.239,17.2875996 Z M298.417,22.7465996 L310.087,22.7465996 C310.058426,23.2938199 309.957551,23.8348512 309.787,24.3555996 C309.455417,24.9757339 309.015085,25.5312298 308.487,25.9955996 C307.827293,26.6735655 307.095254,27.2771706 306.304,27.7955996 C305.354,28.4415996 304.113,29.2205996 302.617,30.1105996 L302.185,30.3675996 L304.22,32.1595996 L304.508,31.9875996 C305.546,31.3702663 306.468,30.8035996 307.274,30.2875996 C308.08,29.7715996 308.8,29.2725996 309.413,28.8035996 C309.976279,28.3811023 310.503735,27.9128469 310.99,27.4035996 C311.409645,26.9586813 311.770275,26.4615969 312.063,25.9245996 C312.343825,25.401743 312.549517,24.8418978 312.674,24.2615996 C312.803975,23.6266241 312.866655,22.9797165 312.861,22.3315996 L312.861,20.3375996 L298.412,20.3375996 L298.417,22.7465996 Z M327.882,15.5095996 C327.691015,15.960866 327.463248,16.3956643 327.201,16.8095996 C326.942415,17.2148391 326.647535,17.5957391 326.32,17.9475996 C325.954595,18.3392242 325.564104,18.7066666 325.151,19.0475996 L323.951,19.9095996 C323.421667,20.274933 322.878667,20.6242663 322.322,20.9575996 C321.765333,21.290933 321.177333,21.617933 320.558,21.9385996 C319.932667,22.2612663 319.266,22.5885996 318.558,22.9205996 C317.85,23.2525996 317.091667,23.6045996 316.283,23.9765996 L315.615,24.2825996 L317.257,26.5315996 L317.724,26.3235996 C318.512667,25.9722663 319.266667,25.6275996 319.986,25.2895996 C320.705333,24.9515996 321.402333,24.6092663 322.077,24.2625996 C322.663,23.9625996 323.219,23.6455996 323.766,23.3255996 L323.766,31.7255996 L326.453,31.7255996 L326.453,21.5375996 L327.09,21.0675996 C327.620253,20.6462789 328.121398,20.1895696 328.59,19.7005996 C329.021311,19.2475712 329.414323,18.7595667 329.765,18.2415996 C330.115742,17.7173209 330.417036,17.1616013 330.665,16.5815996 L330.91,16.0135996 L328.115,14.9545996 L327.882,15.5095996 Z M347.767,20.4095996 C347.069,21.446933 346.435667,22.371933 345.867,23.1845996 C345.354708,23.9208766 344.802551,24.628599 344.213,25.3045996 C343.72286,25.8687377 343.172978,26.3780495 342.573,26.8235996 C341.92388,27.2435577 341.225224,27.5814654 340.493,27.8295996 C339.717409,28.1112987 338.912197,28.3035431 338.093,28.4025996 C337.039243,28.5300344 335.978403,28.5898235 334.917,28.5815996 L334.504,28.5815996 L334.504,31.5075996 L334.917,31.5075996 C336.221183,31.5191975 337.524521,31.4373211 338.817,31.2625996 C339.852769,31.1207801 340.870284,30.8679936 341.852,30.5085996 C342.71249,30.1880517 343.524776,29.7506152 344.266,29.2085996 C344.982172,28.674168 345.642224,28.0683942 346.236,27.4005996 C346.882705,26.6698559 347.48607,25.9018752 348.043,25.1005996 C348.631667,24.257933 349.269333,23.3215996 349.956,22.2915996 L350.216,21.9025996 L347.962,20.1145996 L347.767,20.4095996 Z M311.24,16.2685996 L300.04,16.2685996 L300.04,18.5135996 L311.24,18.5135996 L311.24,16.2685996 Z M341.35,17.2895996 L333.893,17.2895996 L333.893,19.8835996 L341.35,19.8835996 L341.35,17.2895996 Z M273.487,14.7895996 L270.824,14.7895996 L270.824,18.9285996 L261.042,18.9285996 L261.042,21.0965996 L268.794,21.0965996 C268.771854,21.7199775 268.647534,22.3354933 268.426,22.9185996 C268.151935,23.5827184 267.747654,24.1852307 267.237,24.6905996 C266.585079,25.3288209 265.855726,25.8828061 265.066,26.3395996 C264.152,26.8855996 263.038,27.4825996 261.756,28.1125996 L261.304,28.3355996 L262.804,30.1715996 L263.104,30.0225996 C264.47,29.3435996 265.683,28.6865996 266.711,28.0715996 C267.665165,27.514453 268.5457,26.8398572 269.332,26.0635996 C269.942847,25.4524962 270.445941,24.742484 270.82,23.9635996 L270.82,31.7375996 L273.483,31.7375996 L273.483,21.0895996 L277.466,21.0895996 L277.466,18.9215996 L273.483,18.9215996 L273.487,14.7895996 Z" fill="#000000"></path>
  <g transform="translate(0.000000, 4.752000)">
    <circle fill="#4B0082" cx="17.419" cy="17.419" r="17.419"></circle>
    <path d="M7.811,19.2775996 C7.82818584,18.8541165 7.73624494,18.4333233 7.544,18.0555996 C7.462,17.8685996 5.297,14.7885996 4.889,14.1835996 C4.68418658,13.8481138 4.41173262,13.558972 4.089,13.3345996 C3.93926358,13.2483546 3.77224312,13.1964382 3.6,13.1825996 C3.507,13.1825996 3.425,13.1585996 3.425,13.0825996 C3.425,13.0065996 3.507,12.9775996 3.646,12.9775996 C3.855,12.9775996 4.728,13.0135996 5.113,13.0135996 C5.356,13.0135996 6.013,12.9775996 6.539,12.9775996 C6.655,12.9775996 6.714,13.0135996 6.714,13.0825996 C6.714,13.1515996 6.632,13.1625996 6.458,13.2115996 C6.36134391,13.2334865 6.29355295,13.3205267 6.296,13.4195996 C6.31527569,13.560849 6.36253083,13.696835 6.435,13.8195996 C6.597,14.1675996 8.835,17.4945996 9.019,17.8195996 C9.135,17.5415996 11.165,14.3195996 11.328,13.9575996 C11.4243005,13.7695924 11.4801659,13.5635035 11.492,13.3525996 C11.4998289,13.2063685 11.3924843,13.0793075 11.247,13.0625996 C11.142,13.0385996 11.037,13.0145996 11.037,12.9465996 C11.037,12.8635996 11.095,12.8395996 11.237,12.8395996 C11.622,12.8395996 11.994,12.8745996 12.331,12.8745996 C12.587,12.8745996 13.354,12.8395996 13.576,12.8395996 C13.704,12.8395996 13.784,12.8635996 13.784,12.9335996 C13.784,13.0035996 13.691,13.0515996 13.563,13.0515996 C13.4064732,13.0625361 13.2547165,13.1101528 13.12,13.1905996 C12.8667074,13.3252352 12.650892,13.520775 12.492,13.7595996 C12.109,14.2255996 9.916,17.6225996 9.705,18.1235996 C9.54512662,18.4905079 9.46241353,18.8863735 9.462,19.2865996 L9.462,20.2405996 C9.462,20.4255996 9.462,20.9145996 9.497,21.4035996 C9.519,21.7405996 9.625,21.9965996 9.974,22.0425996 C10.1664792,22.0706737 10.3605232,22.0867048 10.555,22.0905996 C10.683,22.0905996 10.742,22.1245996 10.742,22.1825996 C10.742,22.2635996 10.648,22.2875996 10.497,22.2875996 L7.08,22.2875996 C6.918,22.2875996 6.824,22.2745996 6.824,22.1825996 C6.824,22.1235996 6.882,22.0905996 7.011,22.0905996 C7.14772716,22.090237 7.2839578,22.0741309 7.417,22.0425996 C7.649,21.9965996 7.755,21.7425996 7.778,21.4035996 C7.813,20.9145996 7.813,20.4255996 7.813,20.2405996 L7.811,19.2775996 Z M12.684,17.5545996 C12.6582407,16.2950937 13.1640833,15.0829699 14.0775104,14.2154045 C14.9909374,13.3478391 16.2274891,12.9050514 17.484,12.9955996 C20.384,12.9955996 22.184,14.6815996 22.184,17.3455996 C22.2330852,18.6331946 21.7398743,19.8823482 20.8243842,20.7890941 C19.9088941,21.6958399 18.6550646,22.1770398 17.368,22.1155996 C16.1267056,22.18719 14.9124441,21.7339577 14.0216396,20.8665454 C13.1308351,19.999133 12.6454587,18.7973593 12.684,17.5545996 Z M20.417,17.7765996 C20.417,15.1715996 19.058,13.5545996 17.15,13.5545996 C15.813,13.5545996 14.431,14.2975996 14.431,17.1955996 C14.431,19.6145996 15.631,21.5335996 17.859,21.5335996 C18.675,21.5325996 20.417,21.1365996 20.417,17.7765996 L20.417,17.7765996 Z M25.658,18.6535996 C25.658,20.2485996 25.667,21.1535996 25.93,21.3745996 C26.4973393,21.6064737 27.1152406,21.6867699 27.723,21.6075996 C28.384,21.6075996 28.869,21.5925996 29.181,21.2565996 C29.3535004,21.0407301 29.4656478,20.7829634 29.506,20.5095996 C29.518,20.3975996 29.544,20.3215996 29.644,20.3215996 C29.744,20.3215996 29.744,20.3835996 29.744,20.5345996 C29.7169702,21.0165436 29.6544677,21.4958411 29.557,21.9685996 C29.482,22.2405996 29.421,22.2685996 28.772,22.2685996 L23.061,22.2685996 C22.899,22.2685996 22.811,22.2305996 22.811,22.1445996 C22.811,22.0805996 22.862,22.0445996 23.011,22.0445996 C23.162122,22.0447814 23.3127686,22.0276702 23.46,21.9935996 C23.709,21.9455996 23.772,21.6705996 23.822,21.3085996 C23.883,20.7855996 23.883,19.8015996 23.883,18.6555996 L23.883,16.4555996 C23.883,14.5555996 23.883,14.2115996 23.858,13.8115996 C23.834,13.3895996 23.733,13.1895996 23.322,13.1015996 C23.1870093,13.0750049 23.0495597,13.0629361 22.912,13.0655996 C22.775,13.0655996 22.7,13.0385996 22.7,12.9525996 C22.7,12.8665996 22.786,12.8395996 22.974,12.8395996 C23.559,12.8395996 24.345,12.8765996 24.682,12.8765996 C24.982,12.8765996 26.108,12.8395996 26.596,12.8395996 C26.77,12.8395996 26.857,12.8645996 26.857,12.9525996 C26.857,13.0405996 26.781,13.0655996 26.632,13.0655996 C26.4693592,13.0662639 26.3069636,13.0782932 26.146,13.1015996 C25.809,13.1645996 25.709,13.3765996 25.686,13.8115996 C25.66,14.2115996 25.66,14.5595996 25.66,16.4555996 L25.658,18.6535996 Z" fill="#FFFFFF"></path>
  </g>
</svg>