<?xml version="1.0" encoding="UTF-8"?>
<svg width="41px" height="19px" viewBox="0 0 41 19" version="1.1" xmlns="http://www.w3.org/2000/svg" xmlns:xlink="http://www.w3.org/1999/xlink">
    <title>日テレ</title>
    <g stroke="none" stroke-width="1" fill="none" fill-rule="evenodd">
        <g transform="translate(0.000000, 0.250000)" fill="#1A1311" fill-rule="nonzero">
            <path d="M7.17,2.92836502e-14 C9.58726291,-0.0316912741 11.7453488,1.50933592 12.5,3.806 C12.8756039,5.25927741 13.0400437,6.7581681 12.989001,8.25660211 L12.964,8.756 L12.964,9.244 C13.0740346,10.9085132 12.9173932,12.5799165 12.5,14.195 C11.7699011,16.4145329 9.72919124,17.9279733 7.41078353,17.9979413 L7.17,18 L6.794,18 C4.37710577,18.0315089 2.21927471,16.4910685 1.464,14.195 C1.08839178,12.7414169 0.923952119,11.2422285 0.974997882,9.74349704 L1,9.244 L1,8.756 C0.890055399,7.09181852 1.04669617,5.4207586 1.464,3.806 C2.19349615,1.58589139 4.23442407,0.0718834685 6.55318001,0.00204300519 L7.17,2.92836502e-14 Z M32.483,0.85 L32.483,14.292 L32.603,14.295 C35.4705,14.295 37.1510277,11.8603795 37.2374907,9.21029968 L37.241,8.995 L37.241,8.786 L40.049,8.786 L40.049,8.995 C40.049,12.8668596 37.7720459,17.0022244 31.8507086,17.1461332 L31.53,17.15 L29.49,17.15 L29.49,0.85 L32.483,0.85 Z M26.745,6.255 L26.745,9.249 L22.535,9.249 L22.535,11.287 C22.5971252,12.8479313 22.0089424,14.3646923 20.9106916,15.4756429 C19.8770439,16.5212434 18.4787531,17.1191817 17.0159569,17.1490801 L16.477,17.148 L16.477,14.342 L16.677,14.342 C17.5173703,14.405633 18.3428976,14.0945887 18.9323338,13.4922297 C19.4764287,12.936206 19.767999,12.1844456 19.7452668,11.4123469 L19.733,11.219 L19.733,9.248 L15.524,9.248 L15.524,6.255 L26.745,6.255 Z M10.125,8.2 L4.11,13.246 C4.4806536,14.337992 5.46551539,15.096102 6.60307245,15.1853721 L6.794,15.194 L7.17,15.194 C8.44187394,15.179715 9.54431084,14.3307566 9.89245893,13.122066 L9.937,12.947 C10.07981,11.9248435 10.1468307,10.8947498 10.1388108,9.8642722 L10.125,9.246 L10.125,8.2 Z M7.17,2.806 L6.794,2.806 C5.52132192,2.82039826 4.41835476,3.67021124 4.07049435,4.87980479 L4.026,5.055 C3.88392211,6.07714694 3.81702302,7.10724645 3.82513374,8.13772672 L3.839,8.756 L3.839,9.81 L9.856,4.761 C9.48713893,3.66591833 8.50110198,2.9047276 7.3613096,2.81472746 L7.17,2.806 Z M26.754,0.85 L26.754,3.843 L15.524,3.843 L15.524,0.85 L26.754,0.85 Z" id="Shape"></path>
        </g>
    </g>
</svg>