<?xml version="1.0" encoding="UTF-8"?>
<svg width="50px" height="26px" viewBox="0 0 50 26" version="1.1" xmlns="http://www.w3.org/2000/svg" xmlns:xlink="http://www.w3.org/1999/xlink">
    <title>yfc</title>
    <g stroke="none" stroke-width="1" fill="none" fill-rule="evenodd">
        <g fill="#E50012" fill-rule="nonzero">
            <path d="M43.06,23.3 C39.89,22.97 37.45,17.91 37.54,13.9 C37.6,11.06 39.7,8.86 40.94,7.82 L40.58,7.8 C35.55,7.8 31.49,11.87 31.4999816,16.86 C31.51,21.87 35.59,25.92 40.61,25.9100185 C44.06,25.9100185 47.04,23.99 48.58,21.18 C46.95,22.77 44.99,23.51 43.07,23.3 M28.27,5.04 C29.03,2.84 31.7,1.37 31.7,1.37 C29.92,0.32 25.3,2.77 23.94,4.42 C22.74,5.9 21.33,8.21 21.05,12.02 L17.9,12.02 C17.9,12.02 17.9,13.67 17.9,13.67 L20.99,13.67 C21,18.36 21.01,25.53 21.01,25.53 L27.5,25.53 C27.5,25.53 27.48,13.65 27.48,13.65 L31.13,13.65 C31.13,13.65 31.13,11.99 31.13,11.99 L27.5,11.99 C27.54,10.44 27.69,6.75 28.28,5.03 M45.37,14.82 C47.44,14.82 49.12,13.14 49.1100444,11.09 C49.1100444,9.03 47.43,7.36 45.36,7.36995532 C43.3,7.36995532 41.62,9.04 41.6299556,11.11 C41.6299556,13.17 43.32,14.82 45.38,14.82 M35.06,7.46 C37.12,7.46 38.8,5.78 38.7900444,3.73 C38.7900444,1.65 37.11,-6.03961325e-14 35.04,-6.03961325e-14 C32.97,-6.03961325e-14 31.3,1.67 31.3,3.74 C31.3,5.79 32.98,7.46 35.05,7.46 M16.41,9.21 C18.47,9.21 20.14,7.54 20.1300447,5.48 C20.1300447,3.42 18.45,1.76 16.39,1.76 C14.32,1.76 12.65,3.43 12.6599553,5.49 C12.6599553,7.55 14.34,9.21 16.41,9.21 M16.45,11.86 C16.45,11.86 15.64,15.08 12.01,19.77 C8.38,24.46 6.21,24.21 4.9,24.21 C3.58,24.21 0.95,22.94 0.32,21.13 C0.27,21 0.25,20.86 0.22,20.72 C0.08,20.34 4.97379915e-14,19.93 4.97379915e-14,19.5 C4.97379915e-14,17.44 1.68,15.77 3.73,15.76 C5.8,15.76 7.48,17.43 7.48,19.48 C7.48,21.53 5.82,23.2 3.74,23.2 L3.37,23.2 C3.65,23.4 4.66,24.05 6.54,23.61 C8.79,23.11 9.59,21.54 9.59,21.54 L2.14,2.52 L9.23,2.5 C9.23,2.5 12.72,11.16 13.1,12.21 C13.49,13.26 15.26,13.81 16.07,11.74 L16.45,11.86"></path>
        </g>
    </g>
</svg>