<?xml version="1.0" encoding="UTF-8"?>
<svg width="72px" height="19px" viewBox="0 0 72 19" version="1.1" xmlns="http://www.w3.org/2000/svg" xmlns:xlink="http://www.w3.org/1999/xlink">
    <title>Giants</title>
    <g stroke="none" stroke-width="1" fill="none" fill-rule="evenodd">
        <g fill="#F48700" fill-rule="nonzero">
            <path d="M65.401,6.069 C66.1485396,5.92140555 66.6460679,5.20976788 66.528,4.457 C66.4422332,3.55555542 65.667866,2.87770991 64.763,2.912 C63.8310554,2.9285457 63.0795457,3.68005541 63.063,4.612 C63.063,8.6 70.674,7.902 70.674,13.452 C70.6532072,14.764398 70.1067494,16.0135876 69.157078,16.9196478 C68.2074066,17.8257079 66.9339259,18.3128809 65.622,18.272 C62.973,18.272 61.239,17.252 60.453,14.785 C60.2127123,14.0236611 59.5580458,13.4669032 58.768,13.352 C59.013003,12.6847895 59.6472325,12.24043 60.358,12.238 C60.7581706,12.2361922 61.146706,12.3725328 61.458,12.624 C61.5394968,12.7358893 61.6695769,12.8020706 61.808,12.8020706 C61.9464231,12.8020706 62.0765032,12.7358893 62.158,12.624 C62.4780746,12.3702198 62.8755445,12.2339645 63.284,12.238 C63.9809129,12.2320452 64.5986595,12.6853849 64.802,13.352 C64.1229982,13.410479 63.5968506,13.970669 63.581,14.652 C63.551,15.583 64.195,16.147 65.258,16.147 C66.41,16.147 67.053,15.393 67.053,14.12 C67.053,9.8 60.207,10.713 60.207,5.578 C60.1318506,4.33390034 60.5968156,3.11781633 61.4828103,2.24120643 C62.3688049,1.36459653 63.5897711,0.912607161 64.833,1.001 C66.9996308,0.906132763 68.9440292,2.32190046 69.519,4.413 C69.911,5.506 70.371,5.986 71.026,6.07 C70.8524221,6.71188141 70.2786693,7.1641384 69.614,7.183 C69.2490787,7.18292266 68.8976425,7.04506251 68.63,6.797 C68.5534681,6.67786914 68.4215955,6.60584661 68.28,6.60584661 C68.1384045,6.60584661 68.0065319,6.67786914 67.93,6.797 C67.646951,7.06031907 67.2702472,7.19933212 66.884,7.183 C66.1992398,7.17556586 65.5982933,6.7251595 65.399,6.07"></path>
            <path d="M34.003,17.152 C31.753,16.942 30.077,11.445 31.829,9.742 C28.772,7.798 28.24,2.942 30.329,2.331 C30.1040665,1.66758822 29.4815071,1.22117933 28.781,1.22084015 C28.3762677,1.21549986 27.9824196,1.35209049 27.668,1.607 C27.585994,1.71811419 27.4560991,1.78368817 27.318,1.78368817 C27.1799009,1.78368817 27.050006,1.71811419 26.968,1.607 C26.6512574,1.35559349 26.2583869,1.21946421 25.854,1.22084015 C25.1503292,1.21948983 24.5245198,1.6681074 24.3,2.335 C26.394,2.949 25.863,7.802 22.8,9.746 C24.553,11.446 22.876,16.946 20.627,17.156 C20.8511741,17.8232877 21.4770646,18.2723661 22.181,18.271154 C22.5860197,18.2763956 22.9801484,18.1398304 23.295,17.885 C23.3767531,17.7735 23.50674,17.7076242 23.645,17.7076242 C23.78326,17.7076242 23.9132469,17.7735 23.995,17.885 C24.3118977,18.1361239 24.7046661,18.2722178 25.109,18.271154 C25.8127668,18.2725563 26.4384669,17.8233253 26.662,17.156 C25.8991863,17.023256 25.3661367,16.327028 25.437,15.556 C25.3609397,14.8378221 25.7012344,14.139176 26.3135886,13.7563091 C26.9259428,13.3734423 27.7030572,13.3734423 28.3154114,13.7563091 C28.9277656,14.139176 29.2680603,14.8378221 29.192,15.556 C29.2633597,16.3271711 28.7300814,17.0236979 27.967,17.156 C28.1912906,17.8236375 28.8176969,18.272797 29.522,18.271154 C29.926031,18.2722291 30.3184868,18.1361214 30.635,17.885 C30.7167531,17.7735 30.84674,17.7076242 30.985,17.7076242 C31.12326,17.7076242 31.2532469,17.7735 31.335,17.885 C31.649503,18.1397593 32.0432951,18.2763305 32.448,18.271154 C33.151836,18.2720562 33.7775641,17.8230943 34.002,17.156 M27.317,11.831 C25.701,11.831 25.58,9.113 27.317,7.742 C29.054,9.113 28.934,11.831 27.317,11.831"></path>
            <path d="M8.666,17.565 C8.74800603,17.4538858 8.87790094,17.3883118 9.016,17.3883118 C9.15409906,17.3883118 9.28399397,17.4538858 9.366,17.565 C9.8337236,18.0013136 10.445529,18.250449 11.085,18.265 C11.799615,18.2813123 12.4443339,17.838068 12.685,17.165 C10.442,17.097 10.205,12.038 12.901,11.612 C12.6770372,10.9452711 12.0513365,10.4968455 11.348,10.499 C10.9433776,10.4931327 10.5495149,10.6293745 10.235,10.884 C10.1527444,10.9947319 10.0229404,11.0600077 9.885,11.0600077 C9.74705964,11.0600077 9.61725558,10.9947319 9.535,10.884 C9.21850946,10.6329543 8.82596394,10.4971681 8.422,10.499 C7.7183953,10.4967251 7.09234147,10.945115 6.868,11.612 C9.808,12.076 8.486,15.975 6.402,15.975 C3.794,15.975 3.388,11.396 5.471,9.735 C3.327,8.036 3.757,3.319 6.4,3.319 C8.451,3.319 9.309,6.152 6.866,7.481 C7.08926767,8.1470748 7.7135019,8.59571799 8.416,8.595 C8.82078726,8.60084069 9.21474816,8.46421094 9.529,8.209 C9.61125558,8.09826806 9.74105964,8.03299231 9.879,8.03299231 C10.0169404,8.03299231 10.1467444,8.09826806 10.229,8.209 C10.5455132,8.46012137 10.937969,8.59622913 11.342,8.595 C12.0453334,8.59689063 12.6707623,8.14796802 12.894,7.481 C12.21,7.289 11.639,6.657 11.394,5.338 C11.0547861,2.87034904 8.95774658,1.02442647 6.467,1.00098149 C3.69789835,0.993641739 1.42048499,3.1808605 1.316,5.948 C1.2,7.232 0.719,9.147 0,9.742 C0.769,10.378 1.207,11.948 1.316,13.355 C1.3966477,16.1277825 3.69348456,18.3193867 6.467,18.27 C7.25686227,18.2815684 8.02905061,18.0358721 8.667,17.57"></path>
            <path d="M20.176,2.33 C18.082,2.579 17.504,7.48 19.894,9.741 C17.504,12.001 18.082,16.903 20.176,17.151 C19.9518259,17.8182877 19.3259354,18.2673661 18.622,18.2661457 C18.2173088,18.2712459 17.8235447,18.1346844 17.509,17.88 C17.4272469,17.7685 17.29726,17.7026242 17.159,17.7026242 C17.02074,17.7026242 16.8907531,17.7685 16.809,17.88 C16.492141,18.1311944 16.0993471,18.2672972 15.695,18.2661457 C14.9910646,18.2673661 14.3651741,17.8182877 14.141,17.151 C16.235,16.903 16.814,12 14.424,9.741 C16.814,7.48 16.236,2.578 14.141,2.33 C14.3673339,1.66383857 14.9944494,1.21716479 15.698,1.22084494 C16.1023471,1.21970284 16.495141,1.35580555 16.812,1.607 C16.894006,1.71811419 17.0239009,1.78368817 17.162,1.78368817 C17.3000991,1.78368817 17.429994,1.71811419 17.512,1.607 C17.8264613,1.35216562 18.2202814,1.21558473 18.625,1.22084494 C19.3287701,1.2191796 19.9547421,1.66791374 20.179,2.335"></path>
            <path d="M56.043,9.741 C53.652,12.001 54.231,16.903 56.325,17.151 C56.1010922,17.8170378 55.4766669,18.265529 54.774,18.2651587 C54.3689667,18.2704803 53.9748099,18.1339054 53.66,17.879 C53.577994,17.7678858 53.4480991,17.7023118 53.31,17.7023118 C53.1719009,17.7023118 53.042006,17.7678858 52.96,17.879 C52.6435256,18.130192 52.2510443,18.2663086 51.847,18.2651587 C51.1429651,18.2666766 50.5169119,17.8174814 50.293,17.15 C52.386,16.902 52.965,11.999 50.574,9.74 C52.174,8.261 52.659,4.896 51.161,4.896 C50.8241916,4.91576069 50.5052989,5.05430183 50.261,5.287 C50.028,5.469 48.882,6.598 48.682,6.798 C48.262,7.22 47.702,6.947 47.901,6.398 C48.4334313,5.00014403 48.880258,3.57116685 49.239,2.119 C49.339,1.072 49.481,1.01 50.568,1.504 C51.4425045,1.8802621 52.3764282,2.09961061 53.327,2.152 C54.2775569,2.09950718 55.2114627,1.88016286 56.086,1.504 C57.174,1.011 57.315,1.072 57.415,2.119 C57.7745098,3.57095208 58.2213221,4.99988314 58.753,6.398 C58.953,6.946 58.393,7.218 57.972,6.798 C57.772,6.598 56.627,5.469 56.394,5.287 C56.1496525,5.05437516 55.830788,4.91584627 55.494,4.896 C53.994,4.896 54.453,8.262 56.048,9.74"></path>
            <path d="M34.461,2.33 C36.354,2.579 36.877,7.48 34.716,9.741 C36.877,12.001 36.353,16.903 34.461,17.151 C34.6310621,17.7925837 35.2025578,18.2461194 35.866,18.2660436 C36.2369773,18.2648076 36.5946052,18.12745 36.871,17.88 C37.098,17.651 37.277,17.641 37.502,17.88 C37.7767615,18.1307576 38.1360236,18.2686056 38.508,18.2660436 C39.1695674,18.2439484 39.7384708,17.7908574 39.908,17.151 C38.101,16.851 37.582,12.689 39.175,9.741 C43.203,12.595 43.05,16.661 41.135,17.151 C41.3045292,17.7908574 41.8734326,18.2439484 42.535,18.2660436 C42.906615,18.2650178 43.2649426,18.1276648 43.542,17.88 C43.769,17.651 43.947,17.641 44.173,17.88 C44.4480154,18.130993 44.8076792,18.2688581 45.18,18.2660436 C45.8415674,18.2439484 46.4104708,17.7908574 46.58,17.151 C44.688,16.903 44.164,12 46.324,9.741 C44.164,7.48 44.687,2.578 46.58,2.33 C46.4100993,1.69053807 45.8412845,1.23792399 45.18,1.21595026 C44.8076433,1.21294356 44.4479095,1.35083556 44.173,1.602 C43.948,1.841 43.773,1.831 43.542,1.602 C43.2649426,1.35433518 42.906615,1.21698217 42.535,1.21595026 C41.8737155,1.23792399 41.3049007,1.69053807 41.135,2.33 C42.647,2.487 43.328,5.844 42.328,8.239 C39.802,6.521 38.273,2.645 37.309,1.721 C36.9403475,1.40290673 36.4708936,1.22575435 35.984,1.221 C35.2884017,1.21772111 34.671424,1.66698452 34.461,2.33"></path>
        </g>
    </g>
</svg>