<?xml version="1.0" encoding="UTF-8"?>
<svg width="29px" height="25px" viewBox="0 0 29 25" version="1.1" xmlns="http://www.w3.org/2000/svg" xmlns:xlink="http://www.w3.org/1999/xlink">
    <title>weather-kumori-t-h</title>
    <g stroke="none" stroke-width="1" fill="none" fill-rule="evenodd">
        <g transform="translate(-542.000000, -147.000000)" fill-rule="nonzero">
            <g transform="translate(542.000000, 147.000000)">
                <path d="M11.92,0.66 C15.05,0.73 17.62,3.17 17.85,6.29 C18.08,6.25 18.31,6.24 18.54,6.24 C21.0872222,6.30805556 23.1145756,8.37996914 23.1701033,10.9026983 L23.17,11.12 C23.1759433,11.4017144 23.1573017,11.6789074 23.1159224,11.949362 L14.65,11.95 L14.6490328,16 L5.96,16 L5.96,16.01 C3.03317073,15.9319512 0.705984533,13.5505116 0.668492332,10.648592 L0.67,10.43 C0.59,7.43 2.96,4.93 5.96,4.85 C6.07,4.85 6.18,4.85 6.3,4.86 C7.07,2.4 9.34,0.7 11.92,0.66 Z" fill="#AAAAAA"></path>
                <polygon fill="#BCBCBC" points="26.35 12.95 26.34 12.96 26.34 13.76 16.45 13.76 16.45 22.61 15.65 22.61 15.65 12.95"></polygon>
                <g transform="translate(17.000000, 14.000000)">
                    <path d="M6.24,8.87 L5.2,10.44 L4.16,8.87 C4.49,8.97 4.84,9.03 5.2,9.03 C5.488,9.03 5.7696,8.9916 6.03968,8.92504 L6.24,8.87 Z M2.13,7.17 L2.14,7.18 C2.42444444,7.74 2.86691358,8.20518519 3.40419753,8.53341564 L3.61,8.65 L1.76,9.02 L2.13,7.17 Z M8.26,7.16 L8.63,9.01 L6.78,8.64 L6.79,8.63 C7.35,8.34555556 7.81518519,7.90308642 8.14341564,7.36580247 L8.26,7.16 Z M1.91,4.54 C1.81,4.87 1.75,5.22 1.75,5.58 C1.75,5.868 1.7884,6.1496 1.85496,6.41968 L1.91,6.62 L0.34,5.58 L1.91,4.54 Z M8.48,4.54 L10.05,5.58 L8.48,6.62 C8.58,6.29 8.64,5.94 8.64,5.58 C8.64,5.292 8.6016,5.0104 8.53504,4.74032 L8.48,4.54 Z M1.76,2.15 L3.61,2.52 L3.6,2.53 C3.04,2.81444444 2.57481481,3.25691358 2.24658436,3.79419753 L2.13,4 L1.76,2.15 Z M8.63,2.14 L8.26,3.99 L8.25,3.98 C7.96555556,3.42 7.52308642,2.95481481 6.98580247,2.62658436 L6.78,2.51 L8.63,2.14 Z M5.2,0.73 L6.24,2.3 C5.91,2.2 5.56,2.14 5.2,2.14 C4.84,2.14 4.49,2.2 4.16,2.3 L5.2,0.73 Z" fill="#FFAC83"></path>
                    <path d="M8.18,5.58 C8.18,3.94 6.84,2.6 5.2,2.6 C3.56,2.6 2.22,3.94 2.22,5.58 C2.22,7.22 3.56,8.56 5.2,8.56 C6.84,8.56 8.18,7.22 8.18,5.58 Z" fill="#FF7029"></path>
                </g>
            </g>
        </g>
    </g>
</svg>