<?xml version="1.0" encoding="UTF-8"?>
<svg width="90px" height="23px" viewBox="0 0 90 23" version="1.1" xmlns="http://www.w3.org/2000/svg" xmlns:xlink="http://www.w3.org/1999/xlink">
    <title>読売旅行</title>
    <g stroke="none" stroke-width="1" fill="none" fill-rule="evenodd">
        <g fill-rule="nonzero">
            <polygon id="Path" fill="#595757" points="32.4109168 14.3620423 31.696621 14.3620423 30.5952126 15.7841549 30.0898604 14.3620423 29.437114 14.3620423 30.2080999 16.2862676 30.2064802 16.2927465 29.9214097 17.6419718 30.5401421 17.6419718 30.8316914 16.2716901"></polygon>
            <path d="M33.9609872,14.3037324 C33.4200013,14.3037324 32.9648604,14.5094366 32.6101421,14.9143662 C32.2764802,15.306338 32.0918323,15.8116901 32.0918323,16.3397183 C32.0918323,17.1528169 32.6085224,17.698662 33.3795083,17.698662 C33.9674661,17.698662 34.4485224,17.5091549 34.7740858,17.1495775 C35.1304238,16.7511268 35.3264097,16.2328169 35.3264097,15.691831 C35.3264097,14.7977465 34.842114,14.3037324 33.9626069,14.3037324 L33.9609872,14.3037324 Z M33.4637337,17.2240845 C32.9276069,17.2240845 32.7380999,16.7689437 32.7380999,16.3785915 C32.7380999,15.7339437 33.1203534,14.7799296 33.9415506,14.7799296 C34.3885928,14.7799296 34.6769027,15.1103521 34.6769027,15.6205634 C34.6769027,16.2927465 34.2557759,17.2240845 33.4653534,17.2240845 L33.4637337,17.2240845 Z" id="Shape" fill="#595757"></path>
            <polygon id="Path" fill="#595757" points="40.7492266 14.3620423 40.0576069 17.6419718 40.7038745 17.6419718 41.3954943 14.3620423"></polygon>
            <path d="M41.9607759,17.3455634 C42.1519027,17.5804225 42.4855647,17.698662 42.9504238,17.698662 C43.7845788,17.698662 44.231621,17.2937324 44.4438041,16.3445775 L44.8811281,14.3620423 L44.272114,14.3620423 L43.9109168,16.048169 C43.7910576,16.5988732 43.6550013,17.2240845 42.955283,17.2240845 C42.7511985,17.2240845 42.598945,17.1625352 42.5033816,17.0410563 C42.2798604,16.7592254 42.4094379,16.2069014 42.4790858,15.910493 L42.8111281,14.3620423 L42.1923957,14.3620423 L41.8150013,16.1502113 C41.7032407,16.6895775 41.753452,17.0912676 41.9591562,17.3455634 L41.9607759,17.3455634 Z" id="Path" fill="#595757"></path>
            <polygon id="Path" fill="#595757" points="48.590283 14.3620423 47.900283 17.6419718 48.5465506 17.6419718 49.2365506 14.3620423"></polygon>
            <polygon id="Path" fill="#595757" points="53.6065506 14.8366197 53.7069731 14.3620423 51.1850717 14.3620423 51.0814097 14.8366197 52.0208464 14.8366197 51.4150717 17.6419718 52.0613393 17.6419718 52.667114 14.8366197"></polygon>
            <polygon id="Path" fill="#595757" points="63.0333112 14.3620423 62.3433112 17.6419718 64.2772548 17.6419718 64.3809168 17.1657746 63.0640858 17.1657746 63.2714097 16.1826056 64.4392266 16.1826056 64.53479 15.7064085 63.3702126 15.7064085 63.551621 14.8366197 64.8538745 14.8366197 64.9445788 14.3620423"></polygon>
            <polygon id="Path" fill="#595757" points="65.6361985 17.1657746 65.6426774 17.1366197 66.2322548 14.3620423 65.6135224 14.3620423 64.9186633 17.6419718 66.8380295 17.6419718 66.9433112 17.1657746"></polygon>
            <path d="M71.0687337,14.9419014 L71.2112689,14.4430282 C70.97479,14.3507042 70.6945788,14.3053521 70.377114,14.3053521 C69.8166914,14.3053521 69.1623252,14.5628873 69.1623252,15.2869014 C69.1623252,15.7598592 69.4862689,15.9412676 69.7988745,16.1161972 C70.05479,16.2587324 70.2961281,16.3947887 70.2961281,16.6798592 C70.2961281,17.0556338 69.9657055,17.2240845 69.6369027,17.2240845 C69.3453534,17.2240845 69.071621,17.1123239 68.8367619,17.0038028 L68.6796492,17.5221127 C69.0068323,17.6387324 69.3161985,17.698662 69.5996492,17.698662 C70.0045788,17.698662 70.9440154,17.5933803 70.9440154,16.611831 C70.9440154,16.1 70.5876774,15.8894366 70.273452,15.703169 C70.0353534,15.5622535 69.8085928,15.4294366 69.8085928,15.1848592 C69.8085928,14.9046479 70.1017619,14.7783099 70.3916914,14.7783099 C70.6119731,14.7783099 70.8565506,14.8366197 71.0687337,14.9402817 L71.0687337,14.9419014 Z" id="Path" fill="#595757"></path>
            <polygon id="Path" fill="#595757" points="71.9822548 14.3620423 71.2906351 17.6419718 73.2261985 17.6419718 73.3298604 17.1657746 72.0130295 17.1657746 72.2187337 16.1826056 73.3881703 16.1826056 73.482114 15.7064085 72.3191562 15.7064085 72.5005647 14.8366197 73.8028182 14.8366197 73.8935224 14.3620423"></polygon>
            <polygon id="Path" fill="#595757" points="80.497114 14.3620423 79.8054943 17.6419718 80.4517619 17.6419718 81.1433816 14.3620423"></polygon>
            <path d="M84.0928886,14.961338 L84.2435224,14.4559859 C83.9908464,14.3571831 83.6636633,14.3037324 83.2959872,14.3037324 C82.1686633,14.3037324 81.4122548,15.0439437 81.4122548,16.1437324 C81.4122548,17.1171831 81.9597196,17.698662 82.8764802,17.698662 C83.153452,17.698662 83.3931703,17.6711268 83.6085928,17.6128169 L83.7025365,17.0394366 C83.4838745,17.1625352 83.2635928,17.2224648 83.0335928,17.2224648 C82.4780295,17.2224648 82.0601421,16.7592254 82.0601421,16.1437324 C82.0601421,15.3403521 82.5881703,14.7783099 83.3445788,14.7783099 C83.7349309,14.7783099 83.9730295,14.8852113 84.0928886,14.9597183 L84.0928886,14.961338 Z" id="Path" fill="#595757"></path>
            <polygon id="Path" fill="#595757" points="84.9124661 14.3620423 84.2224661 17.6419718 86.1564097 17.6419718 86.2600717 17.1657746 84.9448604 17.1657746 85.1505647 16.1826056 86.3183816 16.1826056 86.413945 15.7064085 85.2493675 15.7064085 85.4323957 14.8366197 86.7330295 14.8366197 86.8237337 14.3620423"></polygon>
            <polygon id="Path" fill="#595757" points="38.8298604 14.3620423 37.4790154 16.8337324 37.4725365 16.7608451 37.4725365 16.7608451 37.2490154 14.3620423 36.1880999 14.3620423 35.4932407 17.6419718 36.077959 17.6419718 36.7015506 14.8139437 36.7145083 14.8139437 37.0060576 17.6419718 37.6102126 17.6419718 39.1797196 14.8139437 39.1926774 14.8139437 38.5415506 17.6419718 39.1975365 17.6419718 39.8972548 14.3620423"></polygon>
            <path d="M46.4198604,14.3620423 L45.6100013,14.3620423 L44.9232407,17.6419718 L45.5419731,17.6419718 L45.8335224,16.2587324 L46.1056351,16.2587324 C46.4344379,16.2587324 46.4700717,16.4547183 46.520283,16.7284507 C46.5283816,16.7754225 46.5380999,16.8272535 46.5494379,16.8790845 L46.7081703,17.6419718 L47.3592971,17.6419718 L47.0466914,16.3316197 C47.0175365,16.2069014 46.9381703,16.0319718 46.7308464,16.0222535 L46.7146492,16.0222535 L46.7146492,16.0109155 L46.7308464,16.0109155 C47.3074661,15.9995775 47.6800013,15.6383803 47.6800013,15.1249296 C47.6800013,14.3620423 47.0110576,14.3620423 46.4214802,14.3620423 L46.4198604,14.3620423 Z M46.2141562,15.7825352 L45.9404238,15.7825352 L45.9469027,15.7533803 L46.1364097,14.8366197 L46.4328182,14.8366197 C46.698452,14.8366197 47.0288745,14.8366197 47.0288745,15.2091549 C47.0288745,15.7258451 46.4587337,15.7825352 46.2125365,15.7825352 L46.2141562,15.7825352 Z" id="Shape" fill="#595757"></path>
            <path d="M54.9865506,14.3620423 L54.1766914,14.3620423 L53.4899309,17.6419718 L54.1086633,17.6419718 L54.4002126,16.2587324 L54.6723252,16.2587324 C55.0011281,16.2587324 55.0367619,16.4547183 55.0869731,16.7284507 C55.0950717,16.7754225 55.10479,16.8272535 55.1161281,16.8790845 L55.2748604,17.6419718 L55.9259872,17.6419718 L55.6133816,16.3316197 C55.5842266,16.2069014 55.5048604,16.0319718 55.2975365,16.0222535 L55.2813393,16.0222535 L55.2813393,16.0109155 L55.2975365,16.0109155 C55.8741562,15.9995775 56.2466914,15.6383803 56.2466914,15.1249296 C56.2466914,14.3620423 55.5777478,14.3620423 54.9881703,14.3620423 L54.9865506,14.3620423 Z M54.7808464,15.7825352 L54.507114,15.7825352 L54.5135928,15.7533803 L54.7030999,14.8366197 L54.9995083,14.8366197 C55.2651421,14.8366197 55.5955647,14.8366197 55.5955647,15.2091549 C55.5955647,15.7258451 55.0254238,15.7825352 54.7792266,15.7825352 L54.7808464,15.7825352 Z" id="Shape" fill="#595757"></path>
            <path d="M75.3674661,14.3620423 L74.5576069,14.3620423 L73.8724661,17.6419718 L74.4895788,17.6419718 L74.7811281,16.2587324 L75.0532407,16.2587324 C75.3820435,16.2587324 75.4176774,16.4547183 75.4678886,16.7284507 C75.4759872,16.7754225 75.4857055,16.8272535 75.4970435,16.8790845 L75.6557759,17.6419718 L76.3069027,17.6419718 L75.9942971,16.3316197 C75.9651421,16.2069014 75.8857759,16.0319718 75.678452,16.0222535 L75.6622548,16.0222535 L75.6622548,16.0109155 L75.678452,16.0109155 C76.2550717,15.9995775 76.6276069,15.6383803 76.6276069,15.1249296 C76.6276069,14.3620423 75.9586633,14.3620423 75.3690858,14.3620423 L75.3674661,14.3620423 Z M75.1633816,15.7825352 L74.8896492,15.7825352 L74.8961281,15.7533803 L75.0856351,14.8366197 L75.3820435,14.8366197 C75.6476774,14.8366197 75.9780999,14.8366197 75.9780999,15.2091549 C75.9780999,15.7258451 75.4063393,15.7825352 75.1617619,15.7825352 L75.1633816,15.7825352 Z" id="Shape" fill="#595757"></path>
            <path d="M58.8204238,14.3620423 L58.1142266,14.3620423 L56.1268323,17.6419718 L56.8087337,17.6419718 L57.2330999,16.8790845 L58.6843675,16.8790845 L58.7993675,17.6419718 L59.4164802,17.6419718 L58.8204238,14.3620423 L58.8204238,14.3620423 Z M57.5019731,16.4028873 L58.3701421,14.8787324 L58.6017619,16.4028873 L57.5019731,16.4028873 Z" id="Shape" fill="#595757"></path>
            <polygon id="Path" fill="#595757" points="61.9885928 14.3620423 60.5680999 17.0216197 60.2490154 14.3620423 59.630283 14.3620423 60.0643675 17.6419718 60.8240154 17.6419718 62.6575365 14.3620423"></polygon>
            <polygon id="Path" fill="#595757" points="79.3357759 14.3620423 77.915283 17.0216197 77.5978182 14.3620423 76.9790858 14.3620423 77.4115506 17.6419718 78.1728182 17.6419718 80.0047196 14.3620423"></polygon>
            <polygon id="Path" fill="#231815" points="46.5640154 5.3256338 46.0165506 7.935 47.2491562 7.935 47.5714802 6.40760563 57.0403534 6.40760563 56.7196492 7.935 57.9668323 7.935 58.5159168 5.3256338"></polygon>
            <path d="M48.2112689,9.98556338 C47.39979,10.7921831 46.3599309,11.3088732 45.277959,11.4400704 L45.0042266,12.7407042 C46.4506351,12.598169 47.9213393,11.9146479 48.946621,10.9071831 C50.1711281,9.70373239 50.5825365,8.34802817 50.9242971,6.94697183 L49.6382407,6.94697183 L49.6188041,7.02147887 C49.3612689,8.00950704 49.0713393,9.12873239 48.2096492,9.98556338 L48.2112689,9.98556338 Z" id="Path" fill="#231815"></path>
            <path d="M72.3094379,5.89253521 C71.9644379,6.14197183 71.5368323,6.37035211 70.837114,6.67647887 L70.6800013,6.74612676 C70.5682407,6.79471831 70.4548604,6.84492958 70.3382407,6.89514085 L70.3074661,6.90809859 L70.3042266,6.87408451 C70.2540154,6.34767606 70.2507759,5.58478873 70.2507759,5.36288732 L70.2507759,5.34669014 L70.2669731,5.34021127 C70.3042266,5.32401408 71.1043675,4.94985915 71.8348604,4.52873239 C72.5086633,4.14 73.0771844,3.68809859 73.2472548,3.55042254 L71.4007759,3.55042254 C71.0541562,3.80147887 70.6265506,4.02823944 69.928452,4.3343662 L69.7551421,4.41049296 C69.2449309,4.6356338 68.7169027,4.86725352 67.9912689,5.09887324 C67.1716914,5.35964789 66.541621,5.49246479 66.2938041,5.53943662 L66.092959,6.62950704 C66.3602126,6.58253521 66.7521844,6.50802817 67.0161985,6.44809859 L67.053452,6.44 L67.0453534,6.47725352 L65.7430999,12.6645775 L66.9238745,12.6645775 L68.2957759,6.12739437 L68.3087337,6.12253521 C68.4820435,6.05450704 68.7136633,5.95570423 68.9193675,5.86985915 L69.0878182,5.79859155 L69.0878182,5.83584507 C69.0651421,6.65704225 69.1299309,7.48471831 69.2773252,8.29295775 C69.3550717,8.72866197 69.5526774,9.59521127 69.9900013,10.5119718 C70.4985928,11.5777465 71.2501421,12.368169 72.0551421,12.6856338 L72.3628886,11.2246479 C71.8219027,10.8764085 71.3586633,10.3370423 71.0557759,9.70373239 C70.85979,9.29232394 70.6783816,8.76267606 70.5601421,8.25084507 C70.5374661,8.15528169 70.5180295,8.06133803 70.4985928,7.96739437 L70.4937337,7.94633803 L70.5131703,7.93985915 C70.7237337,7.86697183 71.0088041,7.75521127 71.1772548,7.68070423 C71.1837337,7.67746479 71.9903534,7.30492958 72.7451421,6.86922535 C73.4140858,6.48211268 73.9874661,6.03021127 74.1575365,5.89091549 L72.3110576,5.89091549 L72.3094379,5.89253521 Z" id="Path" fill="#231815"></path>
            <path d="M57.8242971,10.0503521 C57.8469731,9.96450704 57.8680295,9.88514085 57.8874661,9.81225352 L56.6564802,9.81225352 C56.628945,9.89809859 56.6046492,9.98394366 56.5787337,10.0697887 C56.432959,10.5589437 56.2969027,11.0205634 56.0296492,11.2570423 C55.9276069,11.3477465 55.7559168,11.3930986 55.5064802,11.3930986 L53.7328886,11.3930986 C53.6259872,11.3930986 53.5482407,11.3623239 53.4996492,11.3023944 C53.4380999,11.2262676 53.4219027,11.0983099 53.4559168,10.9395775 L54.2949309,6.94697183 L53.0736633,6.94697183 L52.1536633,11.3234507 C52.0742971,11.6992254 52.1228886,11.9972535 52.2961985,12.2094366 C52.4759872,12.431338 52.7756351,12.5430986 53.1886633,12.5430986 L55.6749309,12.5430986 C56.0830999,12.5430986 56.3973252,12.4637324 56.6661985,12.2920423 C57.352959,11.8530986 57.63479,10.7678873 57.8226774,10.0503521 L57.8242971,10.0503521 Z" id="Path" fill="#231815"></path>
            <path d="M64.1525365,11.551831 C64.4019731,11.0319014 64.8069027,9.53042254 65.1016914,8.2978169 C65.506621,6.60683099 65.862959,4.85429577 65.9115506,4.60809859 L63.6698604,4.60809859 L64.0342971,2.86690141 L66.7619027,2.86690141 L67.0048604,1.71690141 L64.9656351,1.71690141 L65.3252126,1.15087908e-15 L64.0909872,1.15087908e-15 L63.7314097,1.71690141 L61.7440154,1.71690141 L61.5026774,2.86690141 L62.8421844,2.86690141 L62.3287337,5.31429577 C61.982114,6.96478873 61.3747196,8.60394366 60.665283,9.8106338 C60.2328182,10.5476056 60.0303534,10.7435915 59.8683816,10.9007042 C59.8440858,10.9233803 59.8214097,10.9460563 59.7987337,10.9687324 L59.4407759,12.6726761 C60.2765506,12.1980986 60.9681703,11.4400704 61.6160576,10.2933099 C62.3951421,8.91330986 63.0025365,7.39401408 63.4220435,5.77753521 L63.4269027,5.75971831 L64.4764802,5.75971831 L64.4700013,5.78887324 C64.1055647,7.47338028 63.425283,10.6091549 63.0106351,11.2133099 C62.8956351,11.3752817 62.7563393,11.4740845 62.4145788,11.4740845 L61.5593675,11.4740845 L61.3099309,12.6661972 L62.4453534,12.6661972 C63.5888745,12.6661972 63.9921844,11.8725352 64.1444379,11.574507 L64.1557759,11.5534507 L64.1525365,11.551831 Z" id="Path" fill="#231815"></path>
            <polygon id="Path" fill="#231815" points="88.7609168 1.74443662 89.0054943 0.581478873 81.8107055 0.581478873 81.5661281 1.74443662"></polygon>
            <path d="M86.3880295,5.5021831 L88.4969027,5.5021831 L88.7511985,4.29711268 L80.4614802,4.29711268 L80.2088041,5.5021831 L85.0744379,5.5021831 L83.9519731,10.7290141 C83.8855647,11.0480986 83.6685224,11.2311268 83.3591562,11.2311268 L81.3328886,11.2165493 L81.0526774,12.5447183 L83.4547196,12.5447183 C84.4378886,12.5447183 84.9837337,12.1300704 85.171621,11.2392254 L86.3880295,5.50380282 L86.3880295,5.5021831 Z" id="Path" fill="#231815"></path>
            <path d="M69.6838745,1.67802817 C69.8733816,1.41887324 70.0904238,1.11274648 70.2750717,0.816338028 C70.4613393,0.515070423 70.6362689,0.226760563 70.7464097,-3.16491747e-15 L69.427959,-3.16491747e-15 C68.8723957,0.973450704 67.9588745,2.34049296 66.7440858,3.35605634 L66.4136633,4.9271831 C67.2623957,4.4056338 67.9167619,3.83387324 68.7314802,2.90253521 L68.737959,2.89443662 L74.108945,2.89443662 L74.3567619,1.71690141 L69.6547196,1.71690141 L69.6822548,1.67802817 L69.6838745,1.67802817 Z" id="Path" fill="#231815"></path>
            <path d="M78.7818323,5.3434507 C79.4459168,4.72471831 80.0873252,3.9893662 80.7416914,3.09690141 L79.3276774,3.09690141 C78.3250717,4.37485915 77.247959,5.28190141 75.9392266,5.94598592 L75.6201421,7.46528169 C76.1627478,7.19964789 76.7037337,6.8821831 77.2285224,6.52098592 L77.2787337,6.48697183 L75.9845788,12.6645775 L77.2447196,12.6645775 L78.7769731,5.34830986 L78.7818323,5.3434507 L78.7818323,5.3434507 Z" id="Path" fill="#231815"></path>
            <path d="M76.5725365,2.77619718 L76.253452,4.29549296 C77.9444379,3.4678169 79.6192266,1.99873239 80.9765506,0.150633803 L79.5625365,0.150633803 C78.6214802,1.35084507 77.6431703,2.20929577 76.5725365,2.77619718 Z" id="Path" fill="#231815"></path>
            <polygon id="Path" fill="#231815" points="35.9321844 5.32077465 35.4009168 7.84915493 36.5541562 7.84915493 36.8570435 6.40274648 42.1648604 6.40274648 41.8603534 7.84915493 43.0135928 7.84915493 43.5448604 5.32077465"></polygon>
            <path d="M37.4093675,10.3354225 C37.998945,9.48183099 38.4897196,8.24760563 38.7585928,6.94697183 L37.5794379,6.94697183 C37.3461985,7.97225352 36.9898604,8.88901408 36.5201421,9.66971831 C35.9840154,10.5621831 35.0899309,11.1096479 34.6785224,11.2780986 L34.4015506,12.5997887 C35.7475365,12.0766197 36.7031703,11.3558451 37.4093675,10.3338028 L37.4093675,10.3354225 Z" id="Path" fill="#231815"></path>
            <polygon id="Path" fill="#231815" points="35.5969027 4.1756338 31.6723252 4.1756338 31.4471844 5.24626761 35.3717619 5.24626761"></polygon>
            <polygon id="Path" fill="#231815" points="41.2140858 1.04633803 41.4343675 -1.72631862e-15 40.2535928 -1.72631862e-15 40.0333112 1.04633803 36.8214097 1.04633803 36.5914097 2.14288732 39.8033112 2.14288732 39.5457759 3.36901408 36.5995083 3.36901408 36.3743675 4.43802817 43.5950717 4.43802817 43.8202126 3.36901408 40.7265506 3.36901408 40.9840858 2.14288732 44.4438041 2.14288732 44.6738041 1.04633803"></polygon>
            <path d="M42.8904943,9.87866197 L41.7242971,9.87866197 C41.7032407,9.96288732 41.6805647,10.0600704 41.6578886,10.1637324 C41.5736633,10.5346479 41.4700013,10.9962676 41.2869731,11.2780986 C41.1995083,11.3801408 41.0683112,11.3930986 40.9516914,11.3930986 L40.2811281,11.3930986 C40.1709872,11.3930986 40.1045788,11.3785211 40.0819027,11.3509859 C40.0576069,11.321831 40.0673252,11.2521831 40.091621,11.1339437 L40.9727478,6.94535211 L39.8324661,6.94535211 L38.8687337,11.5291549 C38.8023252,11.8498592 38.837959,12.0992958 38.9788745,12.2709859 C39.1246492,12.4491549 39.3692266,12.5398592 39.7093675,12.5398592 L41.1282407,12.5398592 C41.5688041,12.5398592 41.8311985,12.4572535 42.035283,12.2564085 C42.3948604,11.9000704 42.5746492,11.1647183 42.8014097,10.2317606 C42.828945,10.1151408 42.8580999,9.99528169 42.8888745,9.87380282 L42.8904943,9.87866197 Z" id="Path" fill="#231815"></path>
            <polygon id="Path" fill="#231815" points="34.9700717 7.15915493 35.1854943 6.1306338 31.2625365 6.1306338 31.0454943 7.15915493"></polygon>
            <path d="M30.868945,8.06457746 L29.9505647,12.4345775 L33.8605647,12.4345775 L34.778945,8.06457746 L30.868945,8.06457746 L30.868945,8.06457746 Z M32.9859168,11.3655634 L31.2738745,11.3655634 L31.7452126,9.1206338 L33.4572548,9.1206338 L32.9859168,11.3655634 Z" id="Shape" fill="#231815"></path>
            <polygon id="Path" fill="#231815" points="53.8446492 2.24492958 59.5007055 2.24492958 59.7420435 1.09492958 54.0859872 1.09492958 54.3159872 3.16491747e-15 53.0153534 3.16491747e-15 52.7853534 1.09492958 47.1163393 1.09492958 46.8733816 2.24492958 52.5440154 2.24492958 52.3059168 3.37873239 47.4208464 3.37873239 47.1940858 4.44774648 58.2940154 4.44774648 58.5191562 3.37873239 53.6065506 3.37873239"></polygon>
            <polygon id="Path" fill="#231815" points="35.9678182 3.33985915 36.1945788 2.25626761 31.7387337 2.25626761 31.5119731 3.33985915"></polygon>
            <polygon id="Path" fill="#231815" points="36.1670435 1.4334507 36.3970435 0.338521127 32.4854238 0.338521127 32.2554238 1.4334507"></polygon>
            <path d="M20.6598604,0.213802817 C19.8937337,0.979929577 17.0365506,4.34570423 15.0783112,7.01661972 C14.9616914,7.12190141 14.843452,7.22880282 14.717114,7.34380282 C13.1783816,8.73676056 11.2347196,9.67943662 10.6548604,9.62112676 C10.0750013,9.5628169 9.7397196,9.02507042 10.1154943,8.12612676 C10.3130999,7.65478873 10.5236633,7.19964789 11.1051421,6.24725352 C11.1083816,6.24077465 11.3594379,5.87633803 11.6671844,5.40985915 C12.6746492,3.90838028 15.54479,0.610633803 16.1732407,0.215422535 C15.0540154,0.0356338028 11.7238745,-0.183028169 10.6046492,0.264014085 C10.1316914,0.714295775 8.1119027,3.1228169 6.57479003,5.57669014 C5.9269027,6.6084507 5.61105763,7.46852113 5.46042383,8.02732394 C5.0328182,9.61788732 5.66450834,10.9914085 6.85338158,11.4514085 C8.1297196,11.9454225 9.63929707,11.3639437 10.7131703,10.8715493 C11.3173252,10.5945775 12.5564097,9.84788732 13.6011281,9.19676056 C13.1994379,9.83169014 12.5742266,10.8083803 11.9538745,11.856338 C11.0306351,13.414507 10.4151421,14.5612676 10.0166914,15.3565493 C9.97943791,15.4310563 10.3033816,15.4116197 10.2580295,15.4812676 C9.13718439,17.1997887 6.69302946,19.7038732 4.90486045,20.5801408 C3.35802946,21.338169 1.47105763,21.671831 0.803733689,20.8052817 C0.753522421,21.0077465 0.562395661,21.3754225 0.87014214,21.8937324 C1.00295904,22.1188732 1.18922665,22.4023239 1.63302946,22.614507 C2.23556467,22.9011972 4.04964918,23.0939437 6.37394496,22.1253521 C9.30077594,20.9040845 12.5531703,17.4249296 14.5859168,14.679507 C16.1424661,12.5787324 18.1136633,9.49640845 19.7528182,7.54302817 C21.242959,5.76619718 25.2388041,1.1856338 26.5151421,0.257535211 C25.0071844,0.0534507042 21.9378182,-0.160352113 20.6598604,0.217042254 L20.6598604,0.213802817 Z" id="Path" fill="#E94709"></path>
            <path d="M28.2692971,3.73021127 C26.3871844,5.29809859 24.7674661,6.53232394 21.231621,8.1034507 C18.7323957,9.21457746 16.6866914,10.0114789 14.7948604,10.7192958 C14.7948604,10.7144366 14.7997196,10.7095775 14.8013393,10.7047183 C14.1259168,10.9622535 13.4942266,11.2019718 12.9645788,11.3995775 C12.6552126,11.5129577 12.3490858,11.6279577 12.0413393,11.7429577 C11.927959,11.7850704 11.8259168,11.8223239 11.7416914,11.8530986 C9.91464918,12.5220423 8.46662101,13.0306338 6.96838158,13.5667606 C3.72084637,14.7297183 1.87112806,15.7258451 0.845846365,17.1366197 C-0.320350818,18.7417606 -0.27985786,20.8085211 0.962466083,22.1334507 C1.14225482,22.3245775 1.35443791,22.4784507 1.63302946,22.6112676 C0.891198478,21.9779577 0.810212562,20.5947183 1.10500129,19.7573239 C1.39331115,18.9361268 2.20479003,17.7553521 3.81479003,17.0151408 C5.30655059,16.33 7.00401538,15.910493 9.34612806,15.5849296 C10.2094379,15.4650704 12.0413393,15.3225352 12.4252126,15.2917606 C15.4362689,15.0455634 16.7450013,14.7702113 17.8998604,14.1595775 C19.4985224,13.3140845 20.478452,12.2871831 20.4573957,10.9606338 C23.8312689,10.8521127 25.463945,8.89225352 25.20479,7.84267606 C27.6019731,7.36809859 28.2158464,5.4584507 28.2692971,3.72859155 L28.2692971,3.73021127 Z" id="Path" fill="#B5B5B6"></path>
        </g>
    </g>
</svg>