<?xml version="1.0" encoding="UTF-8"?>
<svg width="130px" height="18px" viewBox="0 0 130 18" version="1.1" xmlns="http://www.w3.org/2000/svg" xmlns:xlink="http://www.w3.org/1999/xlink">
    <title>よみうりランド</title>
    <g stroke="none" stroke-width="1" fill="none" fill-rule="evenodd">
        <g transform="translate(0.000000, 0.705000)" fill="#278E2A" fill-rule="nonzero">
            <path d="M10.4,0.499 L10.4,2.375 L17.759,2.381 L17.759,4.991 L10.4,4.991 L10.4,7.828 C13.2600574,8.51921314 15.9849627,9.67780575 18.4652389,11.2558192 L18.958,11.577 L17.758,13.947 C15.6695186,12.6176229 13.4212968,11.5594564 11.0675923,10.7973455 L10.477,10.613 L10.4475151,10.812221 C10.4222983,11.0135576 10.4091458,11.2209243 10.4013926,11.4314727 L10.383379,12.2838839 C10.3608322,13.2110839 10.2728095,14.1267143 9.577,14.799 C8.58218519,16.0967778 7.10945542,16.5495624 5.54818224,16.5869632 L5.31337586,16.5895117 C4.84262963,16.5885926 4.36566667,16.5522222 3.893,16.492 C2.17216588,16.2335062 0.73406053,15.0472615 0.153,13.407 C-0.214385358,11.9365513 0.251327179,10.3828974 1.367,9.357 C2.64716,7.95588 4.5080288,7.5785856 6.41143117,7.57847674 L6.68357702,7.58095725 L7.09211813,7.59338366 L7.09211813,7.59338366 L7.5,7.615 L7.5,0.499 L10.4,0.499 Z M38.6036513,3.04384921 C38.7060963,4.65513467 38.6329103,6.27339454 38.385,7.87 C38.6535714,8.016 38.9285918,8.13702041 39.2054431,8.24852478 L40.0368717,8.56995335 C40.3127668,8.67788921 40.5858746,8.79177259 40.8515773,8.92706706 L41.244,9.148 L40.586,11.722 C40.2422857,11.653 39.8814898,11.5270612 39.5149475,11.3858251 L38.7775598,11.0952945 C38.6545044,11.047586 38.5316501,11.0012624 38.4094169,10.9578659 L38.045,10.838 L37.9562122,11.3619994 C37.6980368,12.7548468 37.2690033,14.1105388 36.6788436,15.3983238 L36.45,15.878 L33.656,15.878 C34.3186488,13.9505349 34.8170918,11.9704782 35.146,9.959 C33.8963674,9.52886873 32.61152,9.21012765 31.3064903,9.00630598 L30.746,8.926 L30.5717101,9.73547595 L30.5717101,9.73547595 L30.36354,10.7404364 L30.36354,10.7404364 L30.2589239,11.2114913 C29.8479238,12.977418 29.286625,14.28725 27.346,15.19 C26.8348889,15.4252593 26.2075418,15.5599095 25.5436605,15.5954073 L25.2931481,15.6040741 C23.7816667,15.6282222 22.1356667,15.1513333 21.263,14.19 C20.4605306,13.4401024 20.0089729,12.3882814 20.0177383,11.29 C20.16697,9.48159097 21.2699364,7.89023878 22.911,7.116 C24.0058667,6.4824 25.3470356,6.29408 26.6284753,6.15982459 L27.6573899,6.05410726 C27.7688533,6.04193778 27.8791333,6.02933333 27.988,6.016 C28.0560728,5.36323238 28.0980638,4.70809528 28.1138935,4.05215289 L28.121,3.396 L21.982,3.296 L21.982,0.712 C22.2950588,0.727411765 22.6119239,0.734200692 22.9312925,0.73548504 L23.4120602,0.733672909 L23.8956064,0.725942601 L23.8956064,0.725942601 L25.3531447,0.690629554 C25.6768895,0.683880114 25.9998811,0.679421738 26.320817,0.680245102 L26.8005162,0.686245878 C27.9154567,0.711235294 28.9972353,0.821588235 29.99,1.151 C30.9890769,1.97419231 31.1087559,3.30783728 31.0635129,4.50147115 L31.0418602,4.91588092 L31.0418602,4.91588092 L30.9736177,5.85933136 C30.9700929,5.91627515 30.9670154,5.97180769 30.9645306,6.0257966 L30.959,6.183 L35.405,6.948 L35.4834696,6.30700434 C35.6015655,5.23739151 35.656208,4.16172187 35.64711,3.08564777 L35.634,2.44 L38.557,2.44 L38.6036513,3.04384921 Z M48.810655,3.954758 L49.3144932,3.95843058 C51.3297962,3.99410197 53.3431815,4.28157819 55.307,4.822 L55.6520299,5.04537838 C56.5402388,5.62732526 57.5774706,6.39035294 57.791,7.443 L57.785,7.444 C58.2263395,9.2625303 57.7660163,11.182342 56.548,12.603 C53.6231081,15.2187297 49.4346662,15.7678532 45.4959556,15.8183487 L44.7371493,15.8223167 C44.2338992,15.8213725 43.7364324,15.8138108 43.248,15.803 L43.248,13.414 C43.958027,13.3371959 44.6840625,13.295504 45.4138478,13.2600473 L46.7937309,13.1932816 L47.3948231,13.1577336 L47.3948231,13.1577336 L47.9925809,13.1131512 C50.3749011,12.9119417 52.6404324,12.407305 54.348,10.56 C54.8776393,9.76966375 54.9590407,8.76104391 54.563,7.896 C53.4459583,6.84979167 52.100125,6.6284375 50.6225232,6.6181679 L50.3604219,6.61842187 L49.8284861,6.6290787 L49.8284861,6.6290787 L48.737,6.67 L48.737,6.67 C46.5392857,6.90057143 44.5414082,7.18771429 42.4253499,7.54465306 L41.356,7.729 L41.356,5.156 C43.5895081,4.42471527 45.9050475,4.02664862 48.2294202,3.96355247 L48.810655,3.954758 Z M72.069,0.66 L72.692024,0.654624 L74.453576,0.664416 L74.453576,0.664416 L75.031,0.66 L75.0838778,0.966433396 C75.795424,5.32998918 75.2857907,9.82744186 71.791,12.87 C69.3484516,15.191871 65.8995036,15.7074735 62.4904164,15.7463277 L61.786,15.748 L61.786,15.748 L61.828,13.176 L62.1073494,13.178365 L62.3878245,13.175878 C66.0402861,13.1115532 69.9178049,11.7906341 71.669,8.176 C72.685,5.901 72.509,3.088 72.069,0.66 Z M93.055,5.029 C93.6354062,5.03056854 94.1537382,5.39260353 94.355,5.937 C94.7503714,8.98534286 92.7223894,11.8100351 90.1943143,13.3889436 L89.97,13.525 C87.6231696,15.0090357 84.7041347,15.4349637 81.8090475,15.5835317 L80.9830464,15.6191069 L80.9830464,15.6191069 L79.7532474,15.6530197 L79.7532474,15.6530197 L78.529,15.676 L78.529,13.103 L79.376286,13.1020943 L79.376286,13.1020943 L80.2306865,13.0905973 L80.2306865,13.0905973 L80.8081573,13.0742257 L80.8081573,13.0742257 L81.389819,13.048898 C81.4870116,13.0438356 81.5843036,13.0383289 81.6816574,13.0323424 L82.2662214,12.9903817 C85.5795455,12.7167551 88.8774048,11.8063014 90.682,8.862 L91.017,7.662 L90.704,7.533 L77.279,7.588 L77.279,5.062 L93.055,5.029 Z M113.035,2.355 C113.291484,6.0150997 111.825787,9.57821889 109.0847,11.9975688 L108.824,12.221 C106.04,14.6907041 102.320171,15.3263756 98.6393929,15.4661389 L97.8787295,15.4884184 C97.7521517,15.4910986 97.6257003,15.4932989 97.4994153,15.4950742 L96.7322598,15.5010903 L96.345,15.5010903 L96.345,13.017 L97.813624,12.882432 L97.813624,12.882432 L98.4047783,12.8231676 L98.4047783,12.8231676 L98.9960302,12.7582285 C99.0945055,12.7468374 99.1929288,12.7351384 99.291272,12.723096 L99.8801459,12.646435 C99.9780565,12.6328762 100.075831,12.6189026 100.173441,12.6044786 L100.756908,12.512244 C104.14635,11.93935 107.2659,10.7273 108.913,7.347 C109.627013,5.78697779 109.961798,4.08015538 109.89,2.366 L113.035,2.355 Z M117.738,-3.90798505e-14 L117.738,5.007 L129.433,5.007 L129.394,7.935 L117.738,7.935 L117.738,15.42 L114.546,15.42 L114.546,-3.90798505e-14 L117.738,-3.90798505e-14 Z M6.31537354,10.2169483 L6.12276562,10.2189063 C4.776375,10.25275 3.48075,10.7155 2.967,11.986 C2.83221823,12.6665723 3.17255851,13.3525899 3.796,13.657 C4.54430646,14.0262771 5.41190627,14.054683 6.17856556,13.7422178 L6.368,13.657 C7.28553846,13.2576154 7.41121893,12.5030118 7.41877469,11.7236472 L7.41181207,10.9958235 C7.41166272,10.7575207 7.42053846,10.5268846 7.459,10.314 C7.14971429,10.264 6.82949107,10.2311556 6.50819848,10.2205803 L6.31537354,10.2169483 Z M27.633,8.68 L27.2255565,8.68663164 C26.1405557,8.72766482 25.0696421,8.95511426 24.06,9.36 C23.444,9.77 22.793,10.313 22.893,11.108 C22.9021798,11.7583104 23.2246785,12.3642057 23.759,12.735 C24.1246042,12.8959783 24.5151329,12.9829233 24.9085475,12.9943468 L25.1447663,12.9921264 C25.3022413,12.9845886 25.4594728,12.9649197 25.6150504,12.9330245 L25.847,12.876 L25.847,12.88 L26.0344986,12.7799864 C27.0348925,12.1936223 27.327337,11.1200212 27.4750568,10.047053 L27.5247678,9.64567245 L27.5247678,9.64567245 L27.6098872,8.86595829 L27.6098872,8.86595829 L27.633,8.68 Z M62.85,0.706 C62.671777,3.68815684 62.6507479,6.67763102 62.787,9.662 L59.727,9.712 C59.4968963,6.71807759 59.505256,3.71059695 59.752,0.718 L62.85,0.706 Z M93.507,0.63 L93.515,3.287 L78.449,3.287 L78.449,0.63 L93.507,0.63 Z M105.541,0.63 L105.541,3.287 L95.638,3.287 L95.638,0.63 L105.541,0.63 Z M43.346,0.163 L55.273,0.797 L55.452,3.183 L43.346,2.732 L43.346,0.163 Z M124.583,0.342 L124.583,3.008 L121.583,3.008 L121.583,0.348 L124.583,0.342 Z M128.886,0.308 L128.886,3.007 L125.958,3.007 L125.958,0.318 L128.886,0.308 Z" id="Shape"></path>
        </g>
    </g>
</svg>