<?xml version="1.0" encoding="UTF-8"?>
<svg width="97px" height="29px" viewBox="0 0 97 29" version="1.1" xmlns="http://www.w3.org/2000/svg" xmlns:xlink="http://www.w3.org/1999/xlink">
    <title>スポーツ報知</title>
    <g stroke="none" stroke-width="1" fill="none" fill-rule="evenodd">
        <g fill-rule="nonzero">
            <path d="M48.284,27.932 C74.599,27.932 95.933,21.821 95.933,14.284 C95.933,6.747 74.6,0.635 48.284,0.635 C21.968,0.635 0.635,6.746 0.635,14.283 C0.635,21.82 21.969,27.932 48.284,27.932" fill="#FFEC00"></path>
            <path d="M48.284,28.566 C21.209,28.566 0,22.292 0,14.283 C0,6.274 21.209,0 48.284,0 C75.359,0 96.568,6.274 96.568,14.283 C96.568,22.292 75.359,28.566 48.284,28.566 Z M48.284,1.266 C22.8,1.27 1.27,7.229 1.27,14.283 C1.27,21.337 22.8,27.3 48.284,27.3 C73.768,27.3 95.3,21.337 95.3,14.283 C95.3,7.229 73.769,1.27 48.284,1.27 L48.284,1.266 Z" fill="#008A32"></path>
            <path d="M29.454,24.517 L30.062,24.517 C30.0712104,24.6293683 30.1105971,24.7371635 30.176,24.829 C30.31556,24.9685876 30.5106988,25.0376763 30.707,25.017 C30.830868,25.020974 30.9545395,25.0044169 31.073,24.968 C31.2340302,24.9272551 31.3450748,24.7800275 31.34,24.614 C31.3422334,24.5179592 31.2915273,24.4284553 31.208,24.381 C31.0778696,24.3122155 30.9378805,24.2639783 30.793,24.238 L30.471,24.166 C30.2401611,24.1264076 30.0178944,24.0472442 29.814,23.932 C29.60347,23.7810479 29.4867626,23.5313396 29.506,23.273 C29.5009528,23.0132087 29.6107168,22.7644102 29.806,22.593 C30.0533394,22.396092 30.3656637,22.2993608 30.681,22.322 C30.9756891,22.3135477 31.2648347,22.4032462 31.503,22.577 C31.7325737,22.7534775 31.8646986,23.0284902 31.859,23.318 L31.247,23.318 C31.2473488,23.1527762 31.1544833,23.0014828 31.007,22.927 C30.8914999,22.8724088 30.7646895,22.8460186 30.637,22.85 C30.4989594,22.8434016 30.3620986,22.8782263 30.244,22.95 C30.1495633,23.0099338 30.0937005,23.115199 30.097,23.227 C30.0932765,23.3297373 30.1499817,23.4251585 30.242,23.471 C30.369804,23.5288731 30.5041004,23.5711764 30.642,23.597 L31.167,23.723 C31.354251,23.7592894 31.5317662,23.8345885 31.688,23.944 C31.8737257,24.0953711 31.9753146,24.3268299 31.961,24.566 C31.9658237,24.8335413 31.8483793,25.0886791 31.642,25.259 C31.3853367,25.4569815 31.0655282,25.5550561 30.742,25.535 C30.4080995,25.5538263 30.0778082,25.4578442 29.806,25.263 C29.578745,25.0833845 29.451832,24.8053668 29.465,24.516" fill="#008A32"></path>
            <path d="M36.669,24.724 C36.3686019,24.237646 36.3686019,23.623354 36.669,23.137 C36.8134614,22.9541415 37.0360796,22.8506241 37.269,22.858 C37.5023616,22.849556 37.7255751,22.9537224 37.869,23.138 C38.1648474,23.6252768 38.1648474,24.2367232 37.869,24.724 C37.7253658,24.9079024 37.5021855,25.0116812 37.269,25.003 C37.0361125,25.0102153 36.8135631,24.9067298 36.669,24.724 M38.269,22.674 C37.6871688,22.1983657 36.8508312,22.1983657 36.269,22.674 C35.9396384,23.0060028 35.770692,23.4646758 35.806,23.931 C35.7748908,24.3967287 35.9432202,24.8537268 36.269,25.188 C36.8508312,25.6636343 37.6871688,25.6636343 38.269,25.188 C38.5936137,24.8531101 38.7611265,24.3963562 38.73,23.931 C38.76543,23.4650369 38.5972891,23.0065705 38.269,22.674" fill="#008A32"></path>
            <polygon fill="#008A32" points="42.696 22.411 45.164 22.411 45.164 22.95 44.253 22.95 44.253 25.457 43.615 25.457 43.615 22.952 42.699 22.952"></polygon>
            <path d="M46.069,25.264 C46.3407725,25.4589177 46.6710903,25.5549075 47.005,25.536 C47.3285282,25.5560561 47.6483367,25.4579815 47.905,25.26 C48.1113793,25.0896791 48.2288237,24.8345413 48.224,24.567 C48.2383146,24.3278299 48.1367257,24.0963711 47.951,23.945 C47.7947954,23.8355359 47.6172686,23.7602318 47.43,23.724 L46.905,23.598 C46.7671167,23.5721109 46.6328281,23.52981 46.505,23.472 C46.4129817,23.4261585 46.3562765,23.3307373 46.36,23.228 C46.3564974,23.1161517 46.4124103,23.0107921 46.507,22.951 C46.6250506,22.8791121 46.761947,22.8442785 46.9,22.851 C47.0277129,22.8467483 47.1545863,22.8731517 47.27,22.928 C47.4174833,23.0024828 47.5103488,23.1537762 47.51,23.319 L48.122,23.319 C48.127623,23.0292793 47.9950778,22.7541644 47.765,22.578 C47.5268347,22.4042462 47.2376891,22.3145477 46.943,22.323 C46.6280002,22.3006161 46.316079,22.3973331 46.069,22.594 C45.8736036,22.7653272 45.7638152,23.0141811 45.769,23.274 C45.7497626,23.5323396 45.86647,23.7820479 46.077,23.933 C46.2809851,24.0478407 46.5032388,24.1266612 46.734,24.166 L47.056,24.238 C47.2008927,24.2639315 47.3408888,24.3121711 47.471,24.381 C47.5548491,24.428626 47.6056061,24.5186044 47.603,24.615 C47.6079786,24.7807796 47.4968758,24.9276683 47.336,24.968 C47.2176165,25.0048459 47.0939285,25.0217431 46.97,25.018 C46.7736988,25.0386763 46.57856,24.9695876 46.439,24.83 C46.3735083,24.7382103 46.3341124,24.6303898 46.325,24.518 L45.717,24.518 C45.703832,24.8073668 45.830745,25.0853845 46.058,25.265" fill="#008A32"></path>
            <polygon fill="#008A32" points="51.178 25.458 50.548 25.458 50.548 22.411 51.178 22.411 51.178 23.573 52.368 23.573 52.368 22.411 53 22.411 53 25.458 52.368 25.458 52.368 24.098 51.178 24.098"></polygon>
            <path d="M34.105,22.411 L32.778,22.411 L32.778,25.457 L33.41,25.457 L33.41,24.357 L34.057,24.357 C34.3346681,24.3752356 34.610043,24.2964056 34.836,24.134 C35.0382143,23.9343641 35.1386699,23.6536037 35.109,23.371 C35.1316489,23.0990985 35.0315061,22.8313175 34.836,22.641 C34.6291812,22.4752585 34.3686805,22.3912719 34.104,22.405 M34.353,23.722 C34.2536069,23.7999471 34.1290754,23.8387297 34.003,23.831 L33.41,23.831 L33.41,22.931 L34.003,22.931 C34.1276973,22.9230715 34.2513136,22.9583904 34.353,23.031 C34.4446358,23.118729 34.4907467,23.2437818 34.478,23.37 C34.4892996,23.498409 34.4435913,23.6252952 34.353,23.717" fill="#008A32"></path>
            <path d="M41.997,25.207 C41.9831554,25.113341 41.9778003,25.0186227 41.981,24.924 L41.981,24.724 C41.991257,24.5601876 41.9610346,24.3963687 41.893,24.247 C41.823897,24.1343751 41.7178726,24.0492021 41.593,24.006 C41.748797,23.9581869 41.8790896,23.8502096 41.955,23.706 C42.0256167,23.5746874 42.0630377,23.4280932 42.064,23.279 C42.0657485,23.1695693 42.0460442,23.0608558 42.006,22.959 C41.9675705,22.8658824 41.9145752,22.7794697 41.849,22.703 C41.769635,22.6097385 41.6691964,22.5367234 41.556,22.49 C41.397771,22.4341691 41.2307515,22.4074053 41.063,22.411 L39.569,22.411 L39.569,25.457 L40.191,25.457 L40.191,24.262 L40.848,24.262 C40.9835484,24.2480578 41.119569,24.2835724 41.231,24.362 C41.3139376,24.4737506 41.3517792,24.6126222 41.337,24.751 L41.337,25.034 C41.3383188,25.122286 41.3473532,25.2102876 41.364,25.297 C41.372,25.338 41.386,25.397 41.405,25.46 L42.105,25.46 L42.105,25.384 C42.0431433,25.3453462 42.0008894,25.2819653 41.989,25.21 M41.228,23.71 C41.1251196,23.748076 41.0155495,23.7647497 40.906,23.759 L40.185,23.759 L40.185,22.941 L40.925,22.941 C41.0310924,22.9352403 41.1371039,22.9537068 41.235,22.995 C41.3648082,23.0714173 41.4370409,23.217453 41.419,23.367 C41.4346129,23.5100165 41.3585227,23.6473793 41.229,23.71" fill="#008A32"></path>
            <path d="M56.291,22.674 C55.7093077,22.1979765 54.8726923,22.1979765 54.291,22.674 C53.9615239,23.0059299 53.7925576,23.464657 53.828,23.931 C53.7967625,24.3967472 53.9651106,24.853796 54.291,25.188 C54.8728312,25.6636343 55.7091688,25.6636343 56.291,25.188 C56.6157227,24.8531786 56.7832539,24.3963745 56.752,23.931 C56.78743,23.4650369 56.6192891,23.0065705 56.291,22.674 M55.891,24.724 C55.7473658,24.9079024 55.5241855,25.0116812 55.291,25.003 C55.0581125,25.0102153 54.8355631,24.9067298 54.691,24.724 C54.3908355,24.2375797 54.3908355,23.6234203 54.691,23.137 C54.8355631,22.9542702 55.0581125,22.8507847 55.291,22.858 C55.5243616,22.849556 55.7475751,22.9537224 55.891,23.138 C56.1873012,23.6251498 56.1873012,24.2368502 55.891,24.724" fill="#008A32"></path>
            <path d="M57.444,23.959 C57.4147946,23.5080364 57.569158,23.0644219 57.872,22.729 C58.1610859,22.465859 58.5443959,22.3309744 58.9345655,22.3550892 C59.3247351,22.379204 59.6885178,22.5602633 59.943,22.857 C60.0655536,23.0226126 60.1387086,23.2195418 60.154,23.425 L59.517,23.425 C59.488508,23.3044851 59.4342659,23.191566 59.358,23.094 C59.2250854,22.9539876 59.0365911,22.8806436 58.844,22.894 C58.6254178,22.8872465 58.4186069,22.9929163 58.296,23.174 C58.1487601,23.4112179 58.0788712,23.6883272 58.096,23.967 C58.0754076,24.2398444 58.1503562,24.5113562 58.308,24.735 C58.4374443,24.8996368 58.6366084,24.9940362 58.846,24.99 C59.0414628,25.0023862 59.2311674,24.9210842 59.357,24.771 C59.4344532,24.6653352 59.4892633,24.5448211 59.518,24.417 L60.148,24.417 C60.1040113,24.7275035 59.9546752,25.0134662 59.725,25.227 C59.4859529,25.4397473 59.1737605,25.5515774 58.854,25.539 C58.4640482,25.5589278 58.0854572,25.4042663 57.821,25.117 C57.5551766,24.790481 57.4210603,24.3763613 57.445,23.956" fill="#008A32"></path>
            <polygon id="パス_37014" fill="#008A32" points="61.594 25.458 60.964 25.458 60.964 22.411 61.594 22.411 61.594 23.573 62.784 23.573 62.784 22.411 63.416 22.411 63.416 25.458 62.784 25.458 62.784 24.098 61.594 24.098"></polygon>
            <rect fill="#008A32" x="64.316" y="22.411" width="1" height="3.047"></rect>
            <path d="M22.986,17.943 L20.87,16.083 L25.27,13.283 L26.625,8.197 L16.212,8.197 L15.365,10.486 L23.239,10.486 L22.985,11.927 L22.477,12.266 L13.164,17.522 L12.147,20.658 L18.582,17.268 L22.392,20.828 L24.001,19.811 L24.678,17.099 L22.986,17.943 Z M45.086,13.027 L38.228,13.027 L37.55,15.399 L44.495,15.399 L45.086,13.027 Z M49.997,7.77 L47.372,7.77 L45.934,13.027 L48.389,13.197 L49.997,7.77 Z M52.114,13.197 L53.722,7.943 L51.35,7.943 L49.826,13.201 L52.114,13.197 Z M58.466,7.431 L55.922,7.431 L53.722,14.131 L43.983,17.776 L43.306,20.576 L55.838,15.828 L58.466,7.431 Z M31.115,11.331 L28.744,11.331 L27.389,15.655 L25.612,17.265 L24.68,20.655 L29.591,16.671 L31.115,11.331 Z M37.55,11.247 L35.179,11.247 L33.571,16.843 L36.11,20.657 L36.958,17.776 L36.196,16.249 L37.55,11.247 Z M38.058,10.315 L38.215,9.805 C38.0891501,9.23066998 38.1702562,8.63034362 38.444,8.11 L35.603,8.11 L35.772,7.01 L33.147,7.01 L32.809,8.11 L28.409,8.11 L27.816,10.31 L32.05,10.31 L29.002,20.567 L31.71,20.567 L34.922,10.319 L38.058,10.315 Z M83.148,6.795 L79.248,20.445 L73.111,20.445 L72.011,16.164 L68.111,20.445 L66.291,20.445 L65.444,18.198 L63.198,20.446 L61.222,20.446 L65.244,6.966 L70.918,6.966 L70.197,9.679 L68.462,9.679 L68.59,8.83 L66.557,8.83 L66.133,9.975 L70.073,9.975 L68.673,14.806 L67.191,16.374 L67.698,17.604 L70.621,14.764 L69.392,14.764 L70.071,12.348 L71.889,12.348 L72.354,10.186 L70.407,11.966 L70.107,11.924 L71.082,8.913 L72.901,6.881 L75.23,6.881 L75.062,7.642 L77.093,7.642 L76.543,9.762 L74.682,9.762 L74.173,12.22 L75.739,12.306 L75.104,14.595 L73.877,14.595 L74.512,17.053 L77.898,6.795 L83.148,6.795 Z M64.942,16.247 L64.642,15.231 L64.176,16.671 L64.942,16.247 Z M67.018,14.085 L67.61,12.136 L67.059,12.136 L66.509,14 L67.018,14.085 Z M80.481,9.085 L79.081,9.085 L76.456,18.029 L77.856,18.029 L80.481,9.085 Z M61.598,18.622 L59.862,18.622 L59.186,20.53 L57.022,20.53 L57.699,18.664 L55.799,18.664 L56.522,16.549 L58.216,16.549 L58.516,15.871 L56.696,15.871 L57.458,13.795 L58.008,13.795 L58.432,12.268 L57.924,12.268 L58.644,10.022 L60.122,10.022 L60.377,9.47 L58.851,9.47 L59.486,7.394 L61.095,7.394 L61.308,6.886 L63.171,6.886 L63,7.394 L64.822,7.394 L64.271,9.428 L62.579,9.428 L62.45,9.937 L64.102,9.937 L63.466,12.056 L62.789,12.056 L62.408,13.625 L63.085,13.625 L62.364,15.825 L60.713,15.825 L60.544,16.418 L62.239,16.418 L61.598,18.622 Z M60.539,13.706 L61.007,12.265 L60.242,12.265 L59.776,13.706 L60.539,13.706 Z M44.002,9.154 C43.9212324,10.4466202 42.9994785,11.5319701 41.737,11.821 C41.0732119,12.0076228 40.36685,11.7249961 40.015,11.132 C39.898,11.051 38.847,10.832 38.453,10.01 C38.2018228,9.31491564 38.2945485,8.54195425 38.703,7.926 C39.3463316,6.70845296 40.7819973,6.14268174 42.083,6.594 C43.2626979,6.86246348 44.0747415,7.94532932 44.002,9.153 M43.18,8.39 C42.254,6.847 41.095,7.236 40.961,7.29 C39.48,7.618 39.255,8.39 39.254,8.83 L39.254,8.83 C39.2892477,9.57559502 39.7955979,10.2158725 40.513,10.422 C40.9193252,10.5387279 41.3561923,10.4757463 41.713,10.249 C42.0115602,10.0237756 42.2117808,9.69210413 42.272,9.323 C42.213,9.246 41.962,9.211 41.962,9.211 C41.881,9.287 41.812,9.702 41.487,9.927 C41.2191591,10.0887116 40.8951282,10.1287154 40.596,10.037 C40.0594855,9.86943971 39.6814819,9.38888618 39.645,8.828 C39.645,8.276 40.145,7.865 41.06,7.666 C41.134,7.639 42.053,7.276 42.84,8.593 C43.0857477,9.10233876 43.0009253,9.70950963 42.625,10.132 C42.2623027,10.7014627 41.6151144,11.02448 40.942,10.972 C40.858,11.02 40.791,11.266 40.791,11.266 C41.625102,11.4453964 42.4826685,11.086248 42.94,10.366 C43.4312868,9.82369258 43.5266992,9.03032646 43.178,8.387 M41.094,8.507 C40.94,8.43 40.73,8.548 40.616,8.775 C40.616,8.775 40.559,9.244 40.559,9.244 L40.689,9.318 L40.882,9.327 L41.167,9.051 C41.167,9.051 41.222,8.608 41.222,8.608 L41.094,8.507 Z" fill="#008A32"></path>
        </g>
    </g>
</svg>