<?xml version="1.0" encoding="UTF-8"?>
<svg width="176px" height="20px" viewBox="0 0 176 20" version="1.1" xmlns="http://www.w3.org/2000/svg" xmlns:xlink="http://www.w3.org/1999/xlink">
    <title>読売ロジスティクス</title>
    <g stroke="none" stroke-width="1" fill="none" fill-rule="evenodd">
        <g transform="translate(0.000000, 0.146000)" fill-rule="nonzero">
            <rect id="長方形_5216" fill="#007CCF" x="72.76" y="6.594" width="5.773" height="5.773"></rect>
            <polygon id="パス_36805" fill="#1A1311" points="101.446 2.562 99.728 0.843 98.261 2.31 96.795 0.843 95.077 2.562 96.795 4.28 98.262 2.813 99.729 4.28"></polygon>
            <rect id="長方形_5217" fill="#1A1311" x="30.092" y="1.16" width="5.421" height="1.925"></rect>
            <polygon id="パス_36806" fill="#1A1311" points="40.848 5.052 37.048 5.052 37.048 6.98 46.581 6.98 46.581 5.052 42.781 5.052 42.781 3.863 47.135 3.863 47.135 1.938 42.781 1.938 42.781 0.664 40.856 0.664 40.856 1.938 36.494 1.938 36.494 3.863 40.848 3.863"></polygon>
            <rect id="長方形_5218" fill="#1A1311" x="30.092" y="6.476" width="5.421" height="1.925"></rect>
            <rect id="長方形_5219" fill="#1A1311" x="30.092" y="9.134" width="5.421" height="1.925"></rect>
            <rect id="長方形_5220" fill="#1A1311" x="29.677" y="3.864" width="6.252" height="1.925"></rect>
            <path d="M29.964,17.689 L35.641,17.689 L35.641,12.012 L29.964,12.012 L29.964,17.689 Z M31.889,13.937 L33.716,13.937 L33.716,15.764 L31.889,15.764 L31.889,13.937 Z" id="パス_36807" fill="#1A1311"></path>
            <polygon id="パス_36808" fill="#1A1311" points="55.82 5.052 49.158 5.052 49.158 6.98 64.407 6.98 64.407 5.052 57.745 5.052 57.745 3.863 64.957 3.863 64.957 1.938 57.745 1.938 57.745 0.664 55.82 0.664 55.82 1.938 48.608 1.938 48.608 3.863 55.82 3.863"></polygon>
            <path d="M45.339,15.725 C45.3402861,15.750317 45.3402861,15.775683 45.339,15.801 L43.983,15.801 L43.983,9.98 L45.114,9.98 L45.114,11.722 L47.039,11.722 L47.039,8.059 L36.59,8.059 L36.59,11.726 L38.515,11.726 L38.515,9.98 L39.274,9.98 C39.237,13.43 38.867,14.946 36.424,16.268 L37.34,17.961 C40.726,16.129 41.159,13.686 41.199,9.98 L42.059,9.98 L42.059,15.868 C42.059,17.723 43.368,17.723 44.235,17.723 L45.567,17.723 C46.0613094,17.6925842 46.5219092,17.4621514 46.8426533,17.0848053 C47.1633975,16.7074593 47.3166162,16.2157526 47.267,15.723 L47.267,13.354 L45.342,13.354 L45.339,15.725 Z" id="パス_36809" fill="#1A1311"></path>
            <path d="M63.621,13.354 L63.629,15.713 C63.542867,15.7776002 63.436427,15.8091774 63.329,15.802 L61.076,15.802 C60.72,15.802 60.265,15.802 59.987,15.777 L59.987,9.98 L62.934,9.98 L62.934,11.722 L64.859,11.722 L64.859,8.059 L48.699,8.059 L48.699,11.726 L50.624,11.726 L50.624,9.98 L53.36,9.98 C53.316,13.187 52.836,14.764 48.355,16.198 L48.942,18.031 C54.514,16.249 55.22,13.765 55.284,9.98 L58.069,9.98 L58.069,15.868 C58.069,17.723 59.533,17.723 61.083,17.723 L63.336,17.723 C63.897498,17.7627284 64.4509286,17.5718507 64.8685504,17.1944247 C65.2861722,16.8169988 65.5318944,16.2856418 65.549,15.723 L65.549,13.354 L63.621,13.354 Z" id="パス_36810" fill="#1A1311"></path>
            <path d="M68.304,16.873 L83.17,16.873 L83.17,2.224 L68.304,2.224 L68.304,16.873 Z M70.871,4.791 L80.604,4.791 L80.604,14.307 L70.871,14.307 L70.871,4.791 Z" id="パス_36811" fill="#1A1311"></path>
            <rect id="長方形_5221" fill="#1A1311" x="119.972" y="2.131" width="11.804" height="2.567"></rect>
            <path d="M133.364,9.281 L133.364,6.714 L118.505,6.714 L118.505,9.281 L125.042,9.281 C125.026574,10.8177168 124.442709,12.294301 123.403,13.426 C122.302846,14.4018441 120.873082,14.9233504 119.403,14.885 L119.214,17.445 C119.238,17.445 119.353,17.4541026 119.541,17.4541026 C121.62195,17.4643467 123.630645,16.6914973 125.168,15.289 C126.725927,13.6752849 127.603204,11.523988 127.618,9.281 L133.364,9.281 Z" id="パス_36812" fill="#1A1311"></path>
            <path d="M93.604,4.374 C91.7772109,3.20487542 89.7937765,2.3008657 87.713,1.689 L86.999,4.154 C88.8464773,4.69824315 90.6073676,5.50192289 92.229,6.541 L93.604,4.374 Z" id="パス_36813" fill="#1A1311"></path>
            <path d="M91.771,8.542 C89.9547013,7.39047493 87.9949139,6.48269899 85.942,5.842 L85.169,8.289 C87.0100629,8.86436468 88.767464,9.67935225 90.396,10.713 L91.771,8.542 Z" id="パス_36814" fill="#1A1311"></path>
            <path d="M85.92,14.884 L85.92,17.451 C94.52,17.451 100.298,11.298 100.298,5.551 L97.731,5.551 C97.731,9.464 93.631,14.884 85.92,14.884" id="パス_36815" fill="#1A1311"></path>
            <path d="M112.425,10.65 C113.599343,8.54731862 114.405621,6.25937047 114.809,3.885 L115.044,2.401 L103.082,2.401 L103.082,4.97 L111.934,4.97 C111.095,8.065 108.493,14.922 101.918,14.922 L101.918,17.489 C105.514422,17.4733317 108.886101,15.7373075 110.988,12.819 C112.272114,14.0443459 113.414297,15.4102693 114.393,16.891 L114.775,17.449 L117.432,17.449 L117.432,14.882 L116.121,14.882 C115.056403,13.3331804 113.814668,11.9139115 112.421,10.653" id="パス_36816" fill="#1A1311"></path>
            <path d="M149.601,2.408 L149.374,3.408 C149.341,3.552 148.539,6.939 145.874,6.939 L145.874,9.506 C149.068,9.506 150.847,6.929 151.574,4.972 L156.63,4.972 C155.791,8.067 153.189,14.924 146.614,14.924 L146.614,17.491 C155.108,17.491 158.76,8.591 159.504,3.891 L159.738,2.407 L150.622,2.407 L149.601,2.408 Z" id="パス_36817" fill="#1A1311"></path>
            <path d="M174.614,14.881 C173.549525,13.3311799 172.30779,11.9109036 170.914,10.649 C172.088325,8.54631051 172.894601,6.25836553 173.298,3.884 L173.533,2.4 L161.572,2.4 L161.572,4.97 L170.424,4.97 C169.585,8.065 166.983,14.921 160.408,14.921 L160.408,17.488 C164.004775,17.4726512 167.376894,15.7365919 169.479,12.818 C170.763139,14.0433227 171.905325,15.409249 172.884,16.89 L173.266,17.448 L175.923,17.448 L175.923,14.881 L174.614,14.881 Z" id="パス_36818" fill="#1A1311"></path>
            <path d="M132.895,11.423 L132.895,13.99 C134.69119,13.9689188 136.457432,13.5271015 138.052,12.7 L138.052,17.516 L140.619,17.516 L140.619,10.96 C142.640076,9.31285022 143.842516,6.86634273 143.912,4.26 L141.341,4.26 C141.341,8.228 136.718,11.422 132.891,11.422" id="パス_36819" fill="#1A1311"></path>
            <polygon id="パス_36820" fill="#1A1311" points="8.766 18.683 2.881 18.683 12.677 0 18.561 0"></polygon>
            <polygon id="パス_36821" fill="#007CCF" points="0 0 5.75 10.967 11.5 0"></polygon>
            <polygon id="パス_36822" fill="#767676" points="26.576 12.822 18.561 12.822 18.561 2.245 12.677 13.469 12.677 18.708 23.447 18.708"></polygon>
        </g>
    </g>
</svg>